<ttFont>
    <TTGlyph name=".notdef" xMin="256" yMin="0" xMax="1280" yMax="1280">
      <contour>
        <pt x="256" y="0" on="1"/>
        <pt x="256" y="1280" on="1"/>
        <pt x="1280" y="1280" on="1"/>
        <pt x="1280" y="0" on="1"/>
      </contour>
      <contour>
        <pt x="288" y="32" on="1"/>
        <pt x="1248" y="32" on="1"/>
        <pt x="1248" y="1248" on="1"/>
        <pt x="288" y="1248" on="1"/>
      </contour>
    </TTGlyph>
    <TTGlyph name="ampersand" xMin="106" yMin="-47" xMax="1304" yMax="1452">
      <contour>
        <pt x="1009" y="684" on="1"/>
        <pt x="1173" y="684" on="1"/>
        <pt x="1173" y="492" on="0"/>
        <pt x="1054" y="309" on="1"/>
        <pt x="1304" y="0" on="1"/>
        <pt x="1081" y="0" on="1"/>
        <pt x="954" y="160" on="1"/>
        <pt x="854" y="61" on="0"/>
        <pt x="796" y="27" on="1"/>
        <pt x="681" y="-47" on="0"/>
        <pt x="526" y="-47" on="1"/>
        <pt x="288" y="-47" on="0"/>
        <pt x="174" y="121" on="1"/>
        <pt x="106" y="221" on="0"/>
        <pt x="106" y="360" on="1"/>
        <pt x="106" y="526" on="0"/>
        <pt x="212" y="635" on="1"/>
        <pt x="286" y="709" on="0"/>
        <pt x="438" y="797" on="1"/>
        <pt x="294" y="977" on="0"/>
        <pt x="276" y="1075" on="1"/>
        <pt x="272" y="1102" on="0"/>
        <pt x="272" y="1130" on="1"/>
        <pt x="272" y="1288" on="0"/>
        <pt x="405" y="1384" on="1"/>
        <pt x="499" y="1452" on="0"/>
        <pt x="622" y="1452" on="1"/>
        <pt x="806" y="1452" on="0"/>
        <pt x="901" y="1317" on="1"/>
        <pt x="931" y="1260" on="1"/>
        <pt x="950" y="1217" on="0"/>
        <pt x="954" y="1167" on="1"/>
        <pt x="956" y="1149" on="0"/>
        <pt x="956" y="1130" on="1"/>
        <pt x="956" y="989" on="0"/>
        <pt x="843" y="889" on="1"/>
        <pt x="784" y="836" on="0"/>
        <pt x="673" y="774" on="1"/>
        <pt x="946" y="440" on="1"/>
        <pt x="1009" y="552" on="0"/>
        <pt x="1009" y="676" on="1"/>
      </contour>
      <contour>
        <pt x="583" y="883" on="1"/>
        <pt x="749" y="987" on="0"/>
        <pt x="780" y="1063" on="1"/>
        <pt x="794" y="1094" on="0"/>
        <pt x="794" y="1135" on="1"/>
        <pt x="794" y="1241" on="0"/>
        <pt x="702" y="1288" on="1"/>
        <pt x="663" y="1309" on="0"/>
        <pt x="616" y="1309" on="1"/>
        <pt x="493" y="1309" on="0"/>
        <pt x="452" y="1206" on="1"/>
        <pt x="440" y="1174" on="0"/>
        <pt x="440" y="1133" on="1"/>
        <pt x="440" y="1065" on="0"/>
        <pt x="491" y="993" on="1"/>
      </contour>
      <contour>
        <pt x="856" y="281" on="1"/>
        <pt x="528" y="690" on="1"/>
        <pt x="335" y="567" on="0"/>
        <pt x="294" y="465" on="1"/>
        <pt x="278" y="424" on="0"/>
        <pt x="278" y="375" on="1"/>
        <pt x="278" y="242" on="0"/>
        <pt x="389" y="164" on="1"/>
        <pt x="460" y="113" on="0"/>
        <pt x="546" y="113" on="1"/>
        <pt x="684" y="113" on="0"/>
        <pt x="823" y="246" on="1"/>
        <pt x="839" y="262" on="0"/>
      </contour>
    </TTGlyph>
    <TTGlyph name="asterisk" xMin="450" yMin="903" xMax="1071" yMax="1493">
      <contour>
        <pt x="696" y="1493" on="1"/>
        <pt x="825" y="1493" on="1"/>
        <pt x="815" y="1264" on="1"/>
        <pt x="1032" y="1341" on="1"/>
        <pt x="1071" y="1221" on="1"/>
        <pt x="849" y="1159" on="1"/>
        <pt x="993" y="977" on="1"/>
        <pt x="888" y="903" on="1"/>
        <pt x="761" y="1094" on="1"/>
        <pt x="632" y="903" on="1"/>
        <pt x="530" y="977" on="1"/>
        <pt x="671" y="1159" on="1"/>
        <pt x="450" y="1221" on="1"/>
        <pt x="489" y="1341" on="1"/>
        <pt x="706" y="1264" on="1"/>
      </contour>
    </TTGlyph>
    <TTGlyph name="at" xMin="69" yMin="-290" xMax="1947" yMax="1518">
      <contour>
        <pt x="1361" y="1026" on="1"/>
        <pt x="1531" y="1026" on="1"/>
        <pt x="1347" y="453" on="1"/>
        <pt x="1322" y="381" on="0"/>
        <pt x="1322" y="350" on="1"/>
        <pt x="1322" y="295" on="0"/>
        <pt x="1382" y="268" on="1"/>
        <pt x="1402" y="260" on="0"/>
        <pt x="1425" y="260" on="1"/>
        <pt x="1556" y="260" on="0"/>
        <pt x="1664" y="408" on="1"/>
        <pt x="1769" y="553" on="0"/>
        <pt x="1769" y="731" on="1"/>
        <pt x="1769" y="977" on="0"/>
        <pt x="1570" y="1159" on="1"/>
        <pt x="1367" y="1348" on="0"/>
        <pt x="1079" y="1360" on="1"/>
        <pt x="1048" y="1360" on="1"/>
        <pt x="747" y="1360" on="0"/>
        <pt x="515" y="1151" on="1"/>
        <pt x="446" y="1081" on="1"/>
        <pt x="243" y="850" on="0"/>
        <pt x="243" y="559" on="1"/>
        <pt x="243" y="270" on="0"/>
        <pt x="458" y="72" on="1"/>
        <pt x="679" y="-133" on="0"/>
        <pt x="1011" y="-133" on="1"/>
        <pt x="1173" y="-133" on="0"/>
        <pt x="1406" y="-67" on="1"/>
        <pt x="1464" y="-204" on="1"/>
        <pt x="1234" y="-290" on="0"/>
        <pt x="1001" y="-290" on="1"/>
        <pt x="632" y="-290" on="0"/>
        <pt x="364" y="-71" on="1"/>
        <pt x="114" y="133" on="0"/>
        <pt x="75" y="434" on="1"/>
        <pt x="69" y="481" on="0"/>
        <pt x="69" y="528" on="1"/>
        <pt x="69" y="844" on="0"/>
        <pt x="264" y="1110" on="1"/>
        <pt x="321" y="1190" on="0"/>
        <pt x="393" y="1253" on="1"/>
        <pt x="614" y="1454" on="0"/>
        <pt x="923" y="1505" on="1"/>
        <pt x="999" y="1518" on="0"/>
        <pt x="1075" y="1518" on="1"/>
        <pt x="1415" y="1518" on="0"/>
        <pt x="1666" y="1311" on="1"/>
        <pt x="1904" y="1118" on="0"/>
        <pt x="1941" y="842" on="1"/>
        <pt x="1947" y="799" on="0"/>
        <pt x="1947" y="756" on="1"/>
        <pt x="1947" y="508" on="0"/>
        <pt x="1771" y="299" on="1"/>
        <pt x="1615" y="117" on="0"/>
        <pt x="1390" y="117" on="1"/>
        <pt x="1193" y="117" on="0"/>
        <pt x="1165" y="274" on="1"/>
        <pt x="1030" y="127" on="0"/>
        <pt x="874" y="127" on="1"/>
        <pt x="706" y="127" on="0"/>
        <pt x="610" y="268" on="1"/>
        <pt x="540" y="369" on="0"/>
        <pt x="540" y="502" on="1"/>
        <pt x="540" y="725" on="0"/>
        <pt x="702" y="897" on="1"/>
        <pt x="860" y="1067" on="0"/>
        <pt x="1066" y="1069" on="1"/>
        <pt x="1238" y="1069" on="0"/>
        <pt x="1316" y="891" on="1"/>
      </contour>
      <contour>
        <pt x="1054" y="938" on="1"/>
        <pt x="919" y="938" on="0"/>
        <pt x="817" y="793" on="1"/>
        <pt x="724" y="664" on="0"/>
        <pt x="724" y="500" on="1"/>
        <pt x="724" y="362" on="0"/>
        <pt x="821" y="293" on="1"/>
        <pt x="870" y="258" on="0"/>
        <pt x="927" y="258" on="1"/>
        <pt x="1046" y="258" on="0"/>
        <pt x="1136" y="391" on="1"/>
        <pt x="1204" y="489" on="0"/>
        <pt x="1236" y="662" on="1"/>
        <pt x="1245" y="707" on="0"/>
        <pt x="1247" y="741" on="1"/>
        <pt x="1247" y="755" on="1"/>
        <pt x="1247" y="856" on="0"/>
        <pt x="1163" y="909" on="1"/>
        <pt x="1113" y="938" on="0"/>
      </contour>
    </TTGlyph>
    <TTGlyph name="colon" xMin="225" yMin="0" xMax="438" yMax="1073">
      <contour>
        <pt x="438" y="213" on="1"/>
        <pt x="438" y="0" on="1"/>
        <pt x="225" y="0" on="1"/>
        <pt x="225" y="213" on="1"/>
      </contour>
      <contour>
        <pt x="438" y="1073" on="1"/>
        <pt x="438" y="860" on="1"/>
        <pt x="225" y="860" on="1"/>
        <pt x="225" y="1073" on="1"/>
      </contour>
    </TTGlyph>
    <TTGlyph name="comma" xMin="178" yMin="-301" xMax="393" yMax="213">
      <contour>
        <pt x="178" y="213" on="1"/>
        <pt x="393" y="213" on="1"/>
        <pt x="393" y="-32" on="1"/>
        <pt x="393" y="-301" on="0"/>
        <pt x="178" y="-301" on="1"/>
        <pt x="178" y="-223" on="1"/>
        <pt x="266" y="-219" on="0"/>
        <pt x="287" y="-155" on="1"/>
        <pt x="301" y="-116" on="0"/>
        <pt x="301" y="-36" on="1"/>
        <pt x="301" y="0" on="1"/>
        <pt x="178" y="0" on="1"/>
      </contour>
    </TTGlyph>
    <TTGlyph name="dollar" xMin="70" yMin="-258" xMax="1064" yMax="1577">
      <contour>
        <pt x="501" y="1577" on="1"/>
        <pt x="622" y="1577" on="1"/>
        <pt x="622" y="1466" on="1"/>
        <pt x="880" y="1448" on="0"/>
        <pt x="976" y="1257" on="1"/>
        <pt x="1015" y="1180" on="0"/>
        <pt x="1019" y="1083" on="1"/>
        <pt x="1019" y="1063" on="1"/>
        <pt x="858" y="1063" on="1"/>
        <pt x="856" y="1221" on="0"/>
        <pt x="739" y="1290" on="1"/>
        <pt x="698" y="1313" on="0"/>
        <pt x="649" y="1321" on="1"/>
        <pt x="636" y="1323" on="0"/>
        <pt x="622" y="1323" on="1"/>
        <pt x="622" y="813" on="1"/>
        <pt x="827" y="750" on="0"/>
        <pt x="890" y="715" on="1"/>
        <pt x="1064" y="616" on="0"/>
        <pt x="1064" y="399" on="1"/>
        <pt x="1064" y="186" on="0"/>
        <pt x="925" y="61" on="1"/>
        <pt x="903" y="41" on="0"/>
        <pt x="876" y="25" on="1"/>
        <pt x="776" y="-34" on="0"/>
        <pt x="622" y="-47" on="1"/>
        <pt x="622" y="-258" on="1"/>
        <pt x="501" y="-258" on="1"/>
        <pt x="501" y="-47" on="1"/>
        <pt x="186" y="-26" on="0"/>
        <pt x="98" y="213" on="1"/>
        <pt x="70" y="293" on="0"/>
        <pt x="70" y="390" on="1"/>
        <pt x="70" y="408" on="0"/>
        <pt x="71" y="426" on="1"/>
        <pt x="233" y="426" on="1"/>
        <pt x="247" y="274" on="0"/>
        <pt x="276" y="225" on="1"/>
        <pt x="280" y="219" on="0"/>
        <pt x="284" y="211" on="1"/>
        <pt x="356" y="113" on="0"/>
        <pt x="501" y="94" on="1"/>
        <pt x="501" y="651" on="1"/>
        <pt x="311" y="709" on="0"/>
        <pt x="243" y="758" on="1"/>
        <pt x="98" y="862" on="0"/>
        <pt x="98" y="1057" on="1"/>
        <pt x="98" y="1356" on="0"/>
        <pt x="384" y="1442" on="1"/>
        <pt x="438" y="1458" on="0"/>
        <pt x="501" y="1466" on="1"/>
      </contour>
      <contour>
        <pt x="501" y="829" on="1"/>
        <pt x="501" y="1321" on="1"/>
        <pt x="305" y="1294" on="0"/>
        <pt x="270" y="1139" on="1"/>
        <pt x="264" y="1110" on="0"/>
        <pt x="264" y="1077" on="1"/>
        <pt x="264" y="893" on="0"/>
      </contour>
      <contour>
        <pt x="622" y="633" on="1"/>
        <pt x="622" y="94" on="1"/>
        <pt x="747" y="109" on="0"/>
        <pt x="810" y="170" on="1"/>
        <pt x="896" y="252" on="0"/>
        <pt x="896" y="375" on="1"/>
        <pt x="896" y="500" on="0"/>
        <pt x="800" y="561" on="1"/>
        <pt x="741" y="598" on="0"/>
      </contour>
    </TTGlyph>
    <TTGlyph name="eight" xMin="74" yMin="0" xMax="1004" yMax="1500">
      <contour>
        <pt x="539" y="1350" on="1"/>
        <pt x="254" y="1350" on="0"/>
        <pt x="254" y="1100" on="1"/>
        <pt x="254" y="850" on="0"/>
        <pt x="539" y="850" on="1"/>
        <pt x="824" y="850" on="0"/>
        <pt x="824" y="1100" on="1"/>
        <pt x="824" y="1350" on="0"/>
      </contour>
      <contour>
        <pt x="539" y="700" on="1"/>
        <pt x="224" y="700" on="0"/>
        <pt x="224" y="425" on="1"/>
        <pt x="224" y="150" on="0"/>
        <pt x="539" y="150" on="1"/>
        <pt x="854" y="150" on="0"/>
        <pt x="854" y="425" on="1"/>
        <pt x="854" y="700" on="0"/>
      </contour>
      <contour>
        <pt x="237" y="780" on="1"/>
        <pt x="104" y="878" on="0"/>
        <pt x="104" y="1100" on="1"/>
        <pt x="104" y="1500" on="0"/>
        <pt x="539" y="1500" on="1"/>
        <pt x="974" y="1500" on="0"/>
        <pt x="974" y="1100" on="1"/>
        <pt x="974" y="878" on="0"/>
        <pt x="841" y="780" on="1"/>
        <pt x="1004" y="677" on="0"/>
        <pt x="1004" y="425" on="1"/>
        <pt x="1004" y="0" on="0"/>
        <pt x="539" y="0" on="1"/>
        <pt x="74" y="0" on="0"/>
        <pt x="74" y="425" on="1"/>
        <pt x="74" y="677" on="0"/>
      </contour>
    </TTGlyph>
    <TTGlyph name="equal" xMin="102" yMin="227" xMax="1093" yMax="723">
      <contour>
        <pt x="1093" y="723" on="1"/>
        <pt x="1093" y="580" on="1"/>
        <pt x="102" y="580" on="1"/>
        <pt x="102" y="723" on="1"/>
      </contour>
      <contour>
        <pt x="1093" y="371" on="1"/>
        <pt x="1093" y="227" on="1"/>
        <pt x="102" y="227" on="1"/>
        <pt x="102" y="371" on="1"/>
      </contour>
    </TTGlyph>
    <TTGlyph name="exclam" xMin="450" yMin="0" xMax="622" yMax="1493">
      <contour>
        <pt x="612" y="1493" on="1"/>
        <pt x="612" y="801" on="1"/>
        <pt x="572" y="344" on="1"/>
        <pt x="502" y="344" on="1"/>
        <pt x="462" y="801" on="1"/>
        <pt x="462" y="1493" on="1"/>
      </contour>
      <contour>
        <pt x="622" y="213" on="1"/>
        <pt x="622" y="0" on="1"/>
        <pt x="450" y="0" on="1"/>
        <pt x="450" y="213" on="1"/>
      </contour>
    </TTGlyph>
    <TTGlyph name="five" xMin="124" yMin="0" xMax="1039" yMax="1500">
      <contour>
        <pt x="1039" y="500" on="1"/>
        <pt x="1039" y="0" on="0"/>
        <pt x="602" y="0" on="1"/>
        <pt x="174" y="0" on="0"/>
        <pt x="124" y="397" on="1"/>
        <pt x="274" y="397" on="1"/>
        <pt x="324" y="150" on="0"/>
        <pt x="602" y="150" on="1"/>
        <pt x="889" y="150" on="0"/>
        <pt x="889" y="500" on="1"/>
        <pt x="889" y="850" on="0"/>
        <pt x="612" y="850" on="1"/>
        <pt x="410" y="850" on="0"/>
        <pt x="324" y="722" on="1"/>
        <pt x="179" y="722" on="1"/>
        <pt x="249" y="1500" on="1"/>
        <pt x="969" y="1500" on="1"/>
        <pt x="969" y="1350" on="1"/>
        <pt x="384" y="1350" on="1"/>
        <pt x="347" y="949" on="1"/>
        <pt x="454" y="1000" on="0"/>
        <pt x="612" y="1000" on="1"/>
        <pt x="1039" y="1000" on="0"/>
      </contour>
    </TTGlyph>
    <TTGlyph name="four" xMin="40" yMin="0" xMax="1040" yMax="1500">
      <contour>
        <pt x="698" y="1231" on="1"/>
        <pt x="221" y="519" on="1"/>
        <pt x="698" y="519" on="1"/>
      </contour>
      <contour>
        <pt x="698" y="1500" on="1"/>
        <pt x="848" y="1500" on="1"/>
        <pt x="848" y="519" on="1"/>
        <pt x="1040" y="519" on="1"/>
        <pt x="1040" y="369" on="1"/>
        <pt x="848" y="369" on="1"/>
        <pt x="848" y="0" on="1"/>
        <pt x="698" y="0" on="1"/>
        <pt x="698" y="369" on="1"/>
        <pt x="40" y="369" on="1"/>
        <pt x="40" y="519" on="1"/>
      </contour>
    </TTGlyph>
    <TTGlyph name="glyph139" xMin="-1100" yMin="-700" xMax="450" yMax="1500">
      <contour>
        <pt x="-1050" y="-300" on="1"/>
        <pt x="-1050" y="-220" on="0"/>
        <pt x="-1100" y="-220" on="1"/>
        <pt x="-1100" y="-100" on="1"/>
        <pt x="-900" y="-100" on="1"/>
        <pt x="-750" y="-100" on="0"/>
        <pt x="-750" y="-220" on="1"/>
        <pt x="-750" y="-400" on="1"/>
        <pt x="-750" y="-500" on="0"/>
        <pt x="-600" y="-500" on="1"/>
        <pt x="-450" y="-500" on="0"/>
        <pt x="-450" y="-400" on="1"/>
        <pt x="-450" y="-100" on="1"/>
        <pt x="-150" y="-100" on="1"/>
        <pt x="-150" y="-400" on="1"/>
        <pt x="-150" y="-500" on="0"/>
        <pt x="0" y="-500" on="1"/>
        <pt x="150" y="-500" on="0"/>
        <pt x="150" y="-400" on="1"/>
        <pt x="150" y="1500" on="1"/>
        <pt x="450" y="1500" on="1"/>
        <pt x="450" y="-400" on="1"/>
        <pt x="450" y="-700" on="0"/>
        <pt x="0" y="-700" on="1"/>
        <pt x="-190" y="-700" on="0"/>
        <pt x="-299" y="-646" on="1"/>
        <pt x="-409" y="-700" on="0"/>
        <pt x="-600" y="-700" on="1"/>
        <pt x="-1050" y="-700" on="0"/>
        <pt x="-1050" y="-400" on="1"/>
      </contour>
    </TTGlyph>
    <TTGlyph name="glyph144" xMin="-1350" yMin="-700" xMax="450" yMax="1500">
      <contour>
        <pt x="-850" y="-350" on="1"/>
        <pt x="-850" y="-250" on="0"/>
        <pt x="-950" y="-250" on="1"/>
        <pt x="-1050" y="-250" on="0"/>
        <pt x="-1050" y="-350" on="1"/>
        <pt x="-1050" y="-500" on="1"/>
        <pt x="-950" y="-500" on="0"/>
        <pt x="-950" y="-600" on="1"/>
        <pt x="-950" y="-700" on="0"/>
        <pt x="-1050" y="-700" on="1"/>
        <pt x="-1200" y="-700" on="1"/>
        <pt x="-1350" y="-700" on="0"/>
        <pt x="-1350" y="-600" on="1"/>
        <pt x="-1350" y="-350" on="1"/>
        <pt x="-1350" y="-100" on="0"/>
        <pt x="-950" y="-100" on="1"/>
        <pt x="-550" y="-100" on="0"/>
        <pt x="-550" y="-350" on="1"/>
        <pt x="-550" y="-400" on="1"/>
        <pt x="-550" y="-500" on="0"/>
        <pt x="-450" y="-500" on="1"/>
        <pt x="-350" y="-500" on="0"/>
        <pt x="-350" y="-400" on="1"/>
        <pt x="-350" y="-100" on="1"/>
        <pt x="-50" y="-100" on="1"/>
        <pt x="-50" y="-400" on="1"/>
        <pt x="-50" y="-500" on="0"/>
        <pt x="50" y="-500" on="1"/>
        <pt x="150" y="-500" on="0"/>
        <pt x="150" y="-400" on="1"/>
        <pt x="150" y="1500" on="1"/>
        <pt x="450" y="1500" on="1"/>
        <pt x="450" y="-400" on="1"/>
        <pt x="450" y="-700" on="0"/>
        <pt x="50" y="-700" on="1"/>
        <pt x="-90" y="-700" on="0"/>
        <pt x="-199" y="-646" on="1"/>
        <pt x="-309" y="-700" on="0"/>
        <pt x="-450" y="-700" on="1"/>
        <pt x="-850" y="-700" on="0"/>
        <pt x="-850" y="-400" on="1"/>
      </contour>
    </TTGlyph>
    <TTGlyph name="glyph146" xMin="-1650" yMin="-700" xMax="-150" yMax="-50">
      <contour>
        <pt x="-450" y="-410" on="1"/>
        <pt x="-450" y="-205" on="1"/>
        <pt x="-450" y="-161" on="0"/>
        <pt x="-600" y="-161" on="1"/>
        <pt x="-700" y="-161" on="1"/>
        <pt x="-700" y="-50" on="1"/>
        <pt x="-600" y="-50" on="1"/>
        <pt x="-150" y="-50" on="0"/>
        <pt x="-150" y="-183" on="1"/>
        <pt x="-150" y="-410" on="1"/>
      </contour>
      <contour>
        <pt x="-1350" y="-277" on="1"/>
        <pt x="-1200" y="-277" on="0"/>
        <pt x="-1200" y="-321" on="1"/>
        <pt x="-1200" y="-366" on="1"/>
        <pt x="-1200" y="-410" on="0"/>
        <pt x="-1350" y="-410" on="1"/>
        <pt x="-1500" y="-410" on="1"/>
        <pt x="-1650" y="-410" on="0"/>
        <pt x="-1650" y="-366" on="1"/>
        <pt x="-1650" y="-94" on="1"/>
        <pt x="-1650" y="-50" on="0"/>
        <pt x="-1503" y="-50" on="1"/>
        <pt x="-1350" y="-50" on="1"/>
        <pt x="-1200" y="-115" on="1"/>
        <pt x="-1050" y="-50" on="1"/>
        <pt x="-897" y="-50" on="1"/>
        <pt x="-750" y="-50" on="0"/>
        <pt x="-750" y="-94" on="1"/>
        <pt x="-750" y="-410" on="1"/>
        <pt x="-1050" y="-410" on="1"/>
        <pt x="-1050" y="-180" on="1"/>
        <pt x="-1200" y="-245" on="1"/>
        <pt x="-1350" y="-180" on="1"/>
      </contour>
      <contour>
        <pt x="-1650" y="-477" on="1"/>
        <pt x="-1400" y="-477" on="1"/>
        <pt x="-1052" y="-477" on="0"/>
        <pt x="-696" y="-610" on="1"/>
        <pt x="-450" y="-610" on="1"/>
        <pt x="-450" y="-566" on="1"/>
        <pt x="-600" y="-566" on="1"/>
        <pt x="-600" y="-455" on="1"/>
        <pt x="-350" y="-455" on="1"/>
        <pt x="-150" y="-455" on="0"/>
        <pt x="-150" y="-544" on="1"/>
        <pt x="-150" y="-610" on="1"/>
        <pt x="-150" y="-700" on="0"/>
        <pt x="-350" y="-700" on="1"/>
        <pt x="-838" y="-700" on="1"/>
        <pt x="-1153" y="-588" on="0"/>
        <pt x="-1400" y="-588" on="1"/>
        <pt x="-1650" y="-588" on="1"/>
      </contour>
    </TTGlyph>
    <TTGlyph name="glyph150" xMin="-1050" yMin="-700" xMax="450" yMax="1500">
      <contour>
        <pt x="150" y="1500" on="1"/>
        <pt x="450" y="1500" on="1"/>
        <pt x="450" y="-570" on="1"/>
        <pt x="450" y="-700" on="0"/>
        <pt x="300" y="-700" on="1"/>
        <pt x="150" y="-700" on="1"/>
        <pt x="150" y="-643" on="0"/>
        <pt x="-4" y="-540" on="0"/>
        <pt x="-100" y="-540" on="1"/>
        <pt x="-150" y="-540" on="1"/>
        <pt x="-150" y="-700" on="0"/>
        <pt x="-300" y="-700" on="1"/>
        <pt x="-450" y="-700" on="0"/>
        <pt x="-450" y="-560" on="1"/>
        <pt x="-450" y="-295" on="1"/>
        <pt x="-600" y="-392" on="1"/>
        <pt x="-750" y="-295" on="1"/>
        <pt x="-750" y="-500" on="1"/>
        <pt x="-650" y="-500" on="0"/>
        <pt x="-650" y="-566" on="1"/>
        <pt x="-650" y="-633" on="1"/>
        <pt x="-650" y="-700" on="0"/>
        <pt x="-750" y="-700" on="1"/>
        <pt x="-900" y="-700" on="1"/>
        <pt x="-1050" y="-700" on="0"/>
        <pt x="-1050" y="-633" on="1"/>
        <pt x="-1050" y="-166" on="1"/>
        <pt x="-1050" y="-100" on="0"/>
        <pt x="-903" y="-100" on="1"/>
        <pt x="-750" y="-100" on="1"/>
        <pt x="-600" y="-197" on="1"/>
        <pt x="-450" y="-100" on="1"/>
        <pt x="-297" y="-100" on="1"/>
        <pt x="-150" y="-100" on="0"/>
        <pt x="-150" y="-166" on="1"/>
        <pt x="-150" y="-390" on="1"/>
        <pt x="-100" y="-390" on="1"/>
        <pt x="47" y="-390" on="0"/>
        <pt x="150" y="-479" on="1"/>
      </contour>
    </TTGlyph>
    <TTGlyph name="glyph157" xMin="-450" yMin="-700" xMax="450" yMax="1500">
      <contour>
        <pt x="-450" y="-100" on="0"/>
        <pt x="-300" y="-100" on="1"/>
        <pt x="-100" y="-100" on="1"/>
        <pt x="-100" y="-250" on="1"/>
        <pt x="-150" y="-250" on="0"/>
        <pt x="-150" y="-300" on="1"/>
        <pt x="-150" y="-407" on="1"/>
        <pt x="0" y="-261" on="1"/>
        <pt x="150" y="-407" on="1"/>
        <pt x="150" y="1500" on="1"/>
        <pt x="450" y="1500" on="1"/>
        <pt x="450" y="-600" on="1"/>
        <pt x="450" y="-700" on="0"/>
        <pt x="303" y="-700" on="1"/>
        <pt x="150" y="-700" on="1"/>
        <pt x="0" y="-554" on="1"/>
        <pt x="-150" y="-700" on="1"/>
        <pt x="-303" y="-700" on="1"/>
        <pt x="-450" y="-700" on="0"/>
        <pt x="-450" y="-600" on="1"/>
        <pt x="-450" y="-200" on="1"/>
      </contour>
    </TTGlyph>
    <TTGlyph name="glyph162" xMin="-450" yMin="-700" xMax="450" yMax="1500">
      <contour>
        <pt x="-150" y="-100" on="1"/>
        <pt x="-150" y="-400" on="1"/>
        <pt x="-150" y="-500" on="0"/>
        <pt x="0" y="-500" on="1"/>
        <pt x="150" y="-500" on="0"/>
        <pt x="150" y="-400" on="1"/>
        <pt x="150" y="1500" on="1"/>
        <pt x="450" y="1500" on="1"/>
        <pt x="450" y="-400" on="1"/>
        <pt x="450" y="-700" on="0"/>
        <pt x="0" y="-700" on="1"/>
        <pt x="-450" y="-700" on="0"/>
        <pt x="-450" y="-400" on="1"/>
        <pt x="-450" y="-100" on="1"/>
      </contour>
    </TTGlyph>
    <TTGlyph name="glyph166" xMin="-500" yMin="-700" xMax="600" yMax="1500">
      <contour>
        <pt x="450" y="200" on="1"/>
        <pt x="600" y="200" on="1"/>
        <pt x="600" y="0" on="1"/>
        <pt x="450" y="0" on="1"/>
        <pt x="450" y="-400" on="1"/>
        <pt x="450" y="-700" on="0"/>
        <pt x="0" y="-700" on="1"/>
        <pt x="-450" y="-700" on="0"/>
        <pt x="-450" y="-400" on="1"/>
        <pt x="-450" y="-370" on="1"/>
        <pt x="-450" y="-300" on="0"/>
        <pt x="-500" y="-300" on="1"/>
        <pt x="-500" y="-100" on="1"/>
        <pt x="-350" y="-100" on="1"/>
        <pt x="-150" y="-100" on="0"/>
        <pt x="-150" y="-250" on="1"/>
        <pt x="-150" y="-400" on="1"/>
        <pt x="-150" y="-500" on="0"/>
        <pt x="0" y="-500" on="1"/>
        <pt x="150" y="-500" on="0"/>
        <pt x="150" y="-400" on="1"/>
        <pt x="150" y="0" on="1"/>
        <pt x="0" y="0" on="1"/>
        <pt x="0" y="200" on="1"/>
        <pt x="150" y="200" on="1"/>
        <pt x="150" y="1500" on="1"/>
        <pt x="450" y="1500" on="1"/>
      </contour>
    </TTGlyph>
    <TTGlyph name="glyph169" xMin="-450" yMin="-1200" xMax="-150" yMax="-750">
      <contour>
        <pt x="-150" y="-750" on="1"/>
        <pt x="-150" y="-1200" on="1"/>
        <pt x="-450" y="-1200" on="1"/>
        <pt x="-450" y="-750" on="1"/>
      </contour>
    </TTGlyph>
    <TTGlyph name="glyph170" xMin="-800" yMin="-1200" xMax="-150" yMax="-750">
      <contour>
        <pt x="-800" y="-750" on="1"/>
        <pt x="-600" y="-750" on="1"/>
        <pt x="-600" y="-1017" on="1"/>
        <pt x="-600" y="-1050" on="0"/>
        <pt x="-525" y="-1050" on="1"/>
        <pt x="-450" y="-1050" on="0"/>
        <pt x="-450" y="-1017" on="1"/>
        <pt x="-450" y="-750" on="1"/>
        <pt x="-150" y="-750" on="1"/>
        <pt x="-150" y="-1017" on="1"/>
        <pt x="-150" y="-1200" on="0"/>
        <pt x="-525" y="-1200" on="1"/>
        <pt x="-800" y="-1200" on="0"/>
        <pt x="-800" y="-1017" on="1"/>
      </contour>
    </TTGlyph>
    <TTGlyph name="glyph171" xMin="-850" yMin="-1200" xMax="-150" yMax="-750">
      <contour>
        <pt x="-850" y="-750" on="1"/>
        <pt x="-650" y="-750" on="1"/>
        <pt x="-650" y="-1045" on="1"/>
        <pt x="-550" y="-947" on="1"/>
        <pt x="-450" y="-1045" on="1"/>
        <pt x="-450" y="-750" on="1"/>
        <pt x="-150" y="-750" on="1"/>
        <pt x="-150" y="-1125" on="1"/>
        <pt x="-150" y="-1200" on="0"/>
        <pt x="-300" y="-1200" on="1"/>
        <pt x="-450" y="-1200" on="1"/>
        <pt x="-550" y="-1102" on="1"/>
        <pt x="-650" y="-1200" on="1"/>
        <pt x="-750" y="-1200" on="1"/>
        <pt x="-850" y="-1200" on="0"/>
        <pt x="-850" y="-1125" on="1"/>
      </contour>
    </TTGlyph>
    <TTGlyph name="glyph172" xMin="-1050" yMin="1950" xMax="-150" yMax="2200">
      <contour>
        <pt x="-1050" y="1950" on="1"/>
        <pt x="-1050" y="2100" on="1"/>
        <pt x="-1050" y="2200" on="0"/>
        <pt x="-950" y="2200" on="1"/>
        <pt x="-550" y="2200" on="1"/>
        <pt x="-430" y="2200" on="0"/>
        <pt x="-150" y="2050" on="1"/>
        <pt x="-150" y="1950" on="1"/>
      </contour>
    </TTGlyph>
    <TTGlyph name="glyph173" xMin="-1050" yMin="1950" xMax="-150" yMax="2350">
      <contour>
        <pt x="-350" y="2147" on="1"/>
        <pt x="-350" y="2350" on="1"/>
        <pt x="-150" y="2350" on="1"/>
        <pt x="-150" y="1950" on="1"/>
        <pt x="-1050" y="1950" on="1"/>
        <pt x="-1050" y="2100" on="1"/>
        <pt x="-1050" y="2200" on="0"/>
        <pt x="-950" y="2200" on="1"/>
        <pt x="-550" y="2200" on="1"/>
        <pt x="-478" y="2200" on="0"/>
      </contour>
    </TTGlyph>
    <TTGlyph name="glyph174" xMin="-1050" yMin="1950" xMax="-150" yMax="2350">
      <contour>
        <pt x="-449" y="2182" on="1"/>
        <pt x="-450" y="2191" on="0"/>
        <pt x="-450" y="2200" on="1"/>
        <pt x="-450" y="2240" on="0"/>
        <pt x="-408" y="2312" on="0"/>
        <pt x="-338" y="2350" on="0"/>
        <pt x="-300" y="2350" on="1"/>
        <pt x="-262" y="2350" on="0"/>
        <pt x="-190" y="2312" on="0"/>
        <pt x="-150" y="2240" on="0"/>
        <pt x="-150" y="2200" on="1"/>
        <pt x="-150" y="2160" on="0"/>
        <pt x="-169" y="2125" on="1"/>
        <pt x="-183" y="2098" on="0"/>
        <pt x="-207" y="2080" on="1"/>
        <pt x="-179" y="2066" on="0"/>
        <pt x="-150" y="2050" on="1"/>
        <pt x="-150" y="1950" on="1"/>
        <pt x="-1050" y="1950" on="1"/>
        <pt x="-1050" y="2100" on="1"/>
        <pt x="-1050" y="2200" on="0"/>
        <pt x="-950" y="2200" on="1"/>
        <pt x="-550" y="2200" on="1"/>
        <pt x="-508" y="2200" on="0"/>
      </contour>
    </TTGlyph>
    <TTGlyph name="glyph175" xMin="-1050" yMin="1950" xMax="-150" yMax="2350">
      <contour>
        <pt x="-400" y="2160" on="1"/>
        <pt x="-355" y="2143" on="0"/>
        <pt x="-300" y="2117" on="1"/>
        <pt x="-300" y="2350" on="1"/>
        <pt x="-150" y="2350" on="1"/>
        <pt x="-150" y="1950" on="1"/>
        <pt x="-1050" y="1950" on="1"/>
        <pt x="-1050" y="2100" on="1"/>
        <pt x="-1050" y="2200" on="0"/>
        <pt x="-950" y="2200" on="1"/>
        <pt x="-550" y="2200" on="1"/>
        <pt x="-550" y="2350" on="1"/>
        <pt x="-400" y="2350" on="1"/>
      </contour>
    </TTGlyph>
    <TTGlyph name="glyph176" xMin="-900" yMin="1900" xMax="-300" yMax="2500">
      <contour>
        <pt x="-625" y="2300" on="0"/>
        <pt x="-673" y="2274" on="0"/>
        <pt x="-700" y="2226" on="0"/>
        <pt x="-700" y="2200" on="1"/>
        <pt x="-700" y="2174" on="0"/>
        <pt x="-673" y="2126" on="0"/>
        <pt x="-625" y="2100" on="0"/>
        <pt x="-600" y="2100" on="1"/>
        <pt x="-574" y="2100" on="0"/>
        <pt x="-526" y="2126" on="0"/>
        <pt x="-500" y="2174" on="0"/>
        <pt x="-500" y="2200" on="1"/>
        <pt x="-500" y="2226" on="0"/>
        <pt x="-527" y="2274" on="0"/>
        <pt x="-574" y="2300" on="0"/>
        <pt x="-600" y="2300" on="1"/>
      </contour>
      <contour>
        <pt x="-600" y="2500" on="1"/>
        <pt x="-524" y="2500" on="0"/>
        <pt x="-381" y="2423" on="0"/>
        <pt x="-300" y="2278" on="0"/>
        <pt x="-300" y="2200" on="1"/>
        <pt x="-300" y="2122" on="0"/>
        <pt x="-379" y="1979" on="0"/>
        <pt x="-522" y="1900" on="0"/>
        <pt x="-600" y="1900" on="1"/>
        <pt x="-677" y="1900" on="0"/>
        <pt x="-820" y="1979" on="0"/>
        <pt x="-900" y="2122" on="0"/>
        <pt x="-900" y="2200" on="1"/>
        <pt x="-900" y="2278" on="0"/>
        <pt x="-819" y="2423" on="0"/>
        <pt x="-676" y="2500" on="0"/>
      </contour>
    </TTGlyph>
    <TTGlyph name="glyph177" xMin="-900" yMin="1900" xMax="-300" yMax="2500">
      <contour>
        <pt x="-500" y="2300" on="1"/>
        <pt x="-300" y="2300" on="1"/>
        <pt x="-300" y="2100" on="1"/>
        <pt x="-500" y="2100" on="1"/>
        <pt x="-500" y="1900" on="1"/>
        <pt x="-700" y="1900" on="1"/>
        <pt x="-700" y="2100" on="1"/>
        <pt x="-900" y="2100" on="1"/>
        <pt x="-900" y="2300" on="1"/>
        <pt x="-700" y="2300" on="1"/>
        <pt x="-700" y="2500" on="1"/>
        <pt x="-500" y="2500" on="1"/>
      </contour>
    </TTGlyph>
    <TTGlyph name="glyph178" xMin="-800" yMin="1950" xMax="0" yMax="2350">
      <contour>
        <pt x="-800" y="2300" on="1"/>
        <pt x="-450" y="2300" on="1"/>
        <pt x="-450" y="2200" on="1"/>
        <pt x="-550" y="2200" on="1"/>
        <pt x="-550" y="2150" on="1"/>
        <pt x="-250" y="2150" on="1"/>
        <pt x="-250" y="2350" on="1"/>
        <pt x="0" y="2350" on="1"/>
        <pt x="0" y="2100" on="1"/>
        <pt x="0" y="1950" on="0"/>
        <pt x="-200" y="1950" on="1"/>
        <pt x="-800" y="1950" on="1"/>
      </contour>
    </TTGlyph>
    <TTGlyph name="glyph179" xMin="150" yMin="0" xMax="1650" yMax="1500">
      <contour>
        <pt x="1350" y="0" on="1"/>
        <pt x="1350" y="1150" on="1"/>
        <pt x="1350" y="1250" on="0"/>
        <pt x="1200" y="1250" on="1"/>
        <pt x="1100" y="1250" on="1"/>
        <pt x="1100" y="1500" on="1"/>
        <pt x="1200" y="1500" on="1"/>
        <pt x="1650" y="1500" on="0"/>
        <pt x="1650" y="1200" on="1"/>
        <pt x="1650" y="0" on="1"/>
      </contour>
      <contour>
        <pt x="450" y="300" on="1"/>
        <pt x="600" y="300" on="0"/>
        <pt x="600" y="200" on="1"/>
        <pt x="600" y="100" on="1"/>
        <pt x="600" y="0" on="0"/>
        <pt x="450" y="0" on="1"/>
        <pt x="300" y="0" on="1"/>
        <pt x="150" y="0" on="0"/>
        <pt x="150" y="100" on="1"/>
        <pt x="150" y="1400" on="1"/>
        <pt x="150" y="1500" on="0"/>
        <pt x="297" y="1500" on="1"/>
        <pt x="450" y="1500" on="1"/>
        <pt x="600" y="1354" on="1"/>
        <pt x="750" y="1500" on="1"/>
        <pt x="903" y="1500" on="1"/>
        <pt x="1050" y="1500" on="0"/>
        <pt x="1050" y="1400" on="1"/>
        <pt x="1050" y="0" on="1"/>
        <pt x="750" y="0" on="1"/>
        <pt x="750" y="1207" on="1"/>
        <pt x="600" y="1061" on="1"/>
        <pt x="450" y="1207" on="1"/>
      </contour>
    </TTGlyph>
    <TTGlyph name="glyph180" xMin="-1650" yMin="-700" xMax="-750" yMax="-100">
      <contour>
        <pt x="-1050" y="-700" on="1"/>
        <pt x="-1050" y="-357" on="1"/>
        <pt x="-1050" y="-250" on="0"/>
        <pt x="-1200" y="-250" on="1"/>
        <pt x="-1350" y="-250" on="0"/>
        <pt x="-1350" y="-357" on="1"/>
        <pt x="-1350" y="-450" on="1"/>
        <pt x="-1200" y="-450" on="0"/>
        <pt x="-1200" y="-575" on="1"/>
        <pt x="-1200" y="-700" on="0"/>
        <pt x="-1350" y="-700" on="1"/>
        <pt x="-1500" y="-700" on="1"/>
        <pt x="-1650" y="-700" on="0"/>
        <pt x="-1650" y="-614" on="1"/>
        <pt x="-1650" y="-357" on="1"/>
        <pt x="-1650" y="-100" on="0"/>
        <pt x="-1200" y="-100" on="1"/>
        <pt x="-750" y="-100" on="0"/>
        <pt x="-750" y="-357" on="1"/>
        <pt x="-750" y="-700" on="1"/>
      </contour>
    </TTGlyph>
    <TTGlyph name="glyph181" xMin="-1050" yMin="-1200" xMax="-750" yMax="-750">
      <contour>
        <pt x="-750" y="-750" on="1"/>
        <pt x="-750" y="-1200" on="1"/>
        <pt x="-1050" y="-1200" on="1"/>
        <pt x="-1050" y="-750" on="1"/>
      </contour>
    </TTGlyph>
    <TTGlyph name="glyph182" xMin="-1400" yMin="-1200" xMax="-750" yMax="-750">
      <contour>
        <pt x="-1400" y="-750" on="1"/>
        <pt x="-1200" y="-750" on="1"/>
        <pt x="-1200" y="-1017" on="1"/>
        <pt x="-1200" y="-1050" on="0"/>
        <pt x="-1125" y="-1050" on="1"/>
        <pt x="-1050" y="-1050" on="0"/>
        <pt x="-1050" y="-1017" on="1"/>
        <pt x="-1050" y="-750" on="1"/>
        <pt x="-750" y="-750" on="1"/>
        <pt x="-750" y="-1017" on="1"/>
        <pt x="-750" y="-1200" on="0"/>
        <pt x="-1125" y="-1200" on="1"/>
        <pt x="-1400" y="-1200" on="0"/>
        <pt x="-1400" y="-1017" on="1"/>
      </contour>
    </TTGlyph>
    <TTGlyph name="glyph183" xMin="-1450" yMin="-1200" xMax="-750" yMax="-750">
      <contour>
        <pt x="-1450" y="-750" on="1"/>
        <pt x="-1250" y="-750" on="1"/>
        <pt x="-1250" y="-1025" on="1"/>
        <pt x="-1150" y="-927" on="1"/>
        <pt x="-1050" y="-1025" on="1"/>
        <pt x="-1050" y="-750" on="1"/>
        <pt x="-750" y="-750" on="1"/>
        <pt x="-750" y="-1125" on="1"/>
        <pt x="-750" y="-1200" on="0"/>
        <pt x="-900" y="-1200" on="1"/>
        <pt x="-1050" y="-1200" on="1"/>
        <pt x="-1150" y="-1102" on="1"/>
        <pt x="-1250" y="-1200" on="1"/>
        <pt x="-1350" y="-1200" on="1"/>
        <pt x="-1450" y="-1200" on="0"/>
        <pt x="-1450" y="-1125" on="1"/>
      </contour>
    </TTGlyph>
    <TTGlyph name="glyph185" xMin="-600" yMin="-1200" xMax="450" yMax="2150">
      <contour>
        <pt x="450" y="-900" on="1"/>
        <pt x="450" y="-1200" on="0"/>
        <pt x="0" y="-1200" on="1"/>
        <pt x="-450" y="-1200" on="0"/>
        <pt x="-450" y="-900" on="1"/>
        <pt x="-450" y="-750" on="1"/>
        <pt x="-150" y="-750" on="1"/>
        <pt x="-150" y="-900" on="1"/>
        <pt x="-150" y="-1000" on="0"/>
        <pt x="0" y="-1000" on="1"/>
        <pt x="150" y="-1000" on="0"/>
        <pt x="150" y="-900" on="1"/>
        <pt x="150" y="1650" on="1"/>
        <pt x="150" y="1750" on="0"/>
        <pt x="0" y="1750" on="1"/>
        <pt x="-600" y="1750" on="1"/>
        <pt x="-600" y="1900" on="1"/>
        <pt x="-600" y="2000" on="0"/>
        <pt x="-500" y="2000" on="1"/>
        <pt x="-100" y="2000" on="1"/>
        <pt x="-100" y="2150" on="1"/>
        <pt x="50" y="2150" on="1"/>
        <pt x="50" y="1960" on="1"/>
        <pt x="65" y="1954" on="0"/>
        <pt x="82" y="1947" on="1"/>
        <pt x="118" y="1945" on="0"/>
        <pt x="150" y="1940" on="1"/>
        <pt x="150" y="2150" on="1"/>
        <pt x="300" y="2150" on="1"/>
        <pt x="300" y="1896" on="1"/>
        <pt x="450" y="1823" on="0"/>
        <pt x="450" y="1650" on="1"/>
      </contour>
    </TTGlyph>
    <TTGlyph name="glyph186" xMin="-450" yMin="-1200" xMax="450" yMax="2350">
      <contour>
        <pt x="150" y="1700" on="1"/>
        <pt x="150" y="1800" on="0"/>
        <pt x="0" y="1800" on="1"/>
        <pt x="-150" y="1800" on="0"/>
        <pt x="-150" y="1700" on="1"/>
        <pt x="-450" y="1700" on="1"/>
        <pt x="-450" y="2350" on="1"/>
        <pt x="-150" y="2350" on="1"/>
        <pt x="-150" y="1990" on="1"/>
        <pt x="-83" y="2000" on="0"/>
        <pt x="0" y="2000" on="1"/>
        <pt x="450" y="2000" on="0"/>
        <pt x="450" y="1700" on="1"/>
        <pt x="450" y="-900" on="1"/>
        <pt x="450" y="-1200" on="0"/>
        <pt x="0" y="-1200" on="1"/>
        <pt x="-450" y="-1200" on="0"/>
        <pt x="-450" y="-900" on="1"/>
        <pt x="-450" y="-750" on="1"/>
        <pt x="-150" y="-750" on="1"/>
        <pt x="-150" y="-900" on="1"/>
        <pt x="-150" y="-1000" on="0"/>
        <pt x="0" y="-1000" on="1"/>
        <pt x="150" y="-1000" on="0"/>
        <pt x="150" y="-900" on="1"/>
      </contour>
    </TTGlyph>
    <TTGlyph name="glyph187" xMin="-1100" yMin="-1200" xMax="450" yMax="1500">
      <contour>
        <pt x="150" y="1500" on="1"/>
        <pt x="450" y="1500" on="1"/>
        <pt x="450" y="-975" on="1"/>
        <pt x="450" y="-1200" on="0"/>
        <pt x="0" y="-1200" on="1"/>
        <pt x="-190" y="-1200" on="0"/>
        <pt x="-299" y="-1159" on="1"/>
        <pt x="-409" y="-1200" on="0"/>
        <pt x="-600" y="-1200" on="1"/>
        <pt x="-1050" y="-1200" on="0"/>
        <pt x="-1050" y="-975" on="1"/>
        <pt x="-1050" y="-900" on="1"/>
        <pt x="-1050" y="-840" on="0"/>
        <pt x="-1100" y="-840" on="1"/>
        <pt x="-1100" y="-750" on="1"/>
        <pt x="-900" y="-750" on="1"/>
        <pt x="-750" y="-750" on="0"/>
        <pt x="-750" y="-840" on="1"/>
        <pt x="-750" y="-975" on="1"/>
        <pt x="-750" y="-1050" on="0"/>
        <pt x="-600" y="-1050" on="1"/>
        <pt x="-450" y="-1050" on="0"/>
        <pt x="-450" y="-975" on="1"/>
        <pt x="-450" y="-750" on="1"/>
        <pt x="-150" y="-750" on="1"/>
        <pt x="-150" y="-975" on="1"/>
        <pt x="-150" y="-1050" on="0"/>
        <pt x="0" y="-1050" on="1"/>
        <pt x="150" y="-1050" on="0"/>
        <pt x="150" y="-975" on="1"/>
      </contour>
    </TTGlyph>
    <TTGlyph name="glyph188" xMin="-1350" yMin="-1200" xMax="450" yMax="1500">
      <contour>
        <pt x="150" y="1500" on="1"/>
        <pt x="450" y="1500" on="1"/>
        <pt x="450" y="-975" on="1"/>
        <pt x="450" y="-1200" on="0"/>
        <pt x="50" y="-1200" on="1"/>
        <pt x="-90" y="-1200" on="0"/>
        <pt x="-199" y="-1159" on="1"/>
        <pt x="-309" y="-1200" on="0"/>
        <pt x="-450" y="-1200" on="1"/>
        <pt x="-850" y="-1200" on="0"/>
        <pt x="-850" y="-975" on="1"/>
        <pt x="-850" y="-937" on="1"/>
        <pt x="-850" y="-862" on="0"/>
        <pt x="-950" y="-862" on="1"/>
        <pt x="-1050" y="-862" on="0"/>
        <pt x="-1050" y="-937" on="1"/>
        <pt x="-1050" y="-1050" on="1"/>
        <pt x="-950" y="-1050" on="0"/>
        <pt x="-950" y="-1125" on="1"/>
        <pt x="-950" y="-1200" on="0"/>
        <pt x="-1050" y="-1200" on="1"/>
        <pt x="-1200" y="-1200" on="1"/>
        <pt x="-1350" y="-1200" on="0"/>
        <pt x="-1350" y="-1125" on="1"/>
        <pt x="-1350" y="-937" on="1"/>
        <pt x="-1350" y="-750" on="0"/>
        <pt x="-950" y="-750" on="1"/>
        <pt x="-550" y="-750" on="0"/>
        <pt x="-550" y="-937" on="1"/>
        <pt x="-550" y="-975" on="1"/>
        <pt x="-550" y="-1050" on="0"/>
        <pt x="-450" y="-1050" on="1"/>
        <pt x="-350" y="-1050" on="0"/>
        <pt x="-350" y="-975" on="1"/>
        <pt x="-350" y="-750" on="1"/>
        <pt x="-50" y="-750" on="1"/>
        <pt x="-50" y="-975" on="1"/>
        <pt x="-50" y="-1050" on="0"/>
        <pt x="50" y="-1050" on="1"/>
        <pt x="150" y="-1050" on="0"/>
        <pt x="150" y="-975" on="1"/>
      </contour>
    </TTGlyph>
    <TTGlyph name="glyph189" xMin="-1050" yMin="-1200" xMax="450" yMax="1500">
      <contour>
        <pt x="450" y="-1102" on="1"/>
        <pt x="450" y="-1200" on="0"/>
        <pt x="300" y="-1200" on="1"/>
        <pt x="150" y="-1200" on="1"/>
        <pt x="150" y="-1157" on="0"/>
        <pt x="-4" y="-1080" on="0"/>
        <pt x="-100" y="-1080" on="1"/>
        <pt x="-150" y="-1080" on="1"/>
        <pt x="-150" y="-1200" on="0"/>
        <pt x="-300" y="-1200" on="1"/>
        <pt x="-450" y="-1200" on="0"/>
        <pt x="-450" y="-1095" on="1"/>
        <pt x="-450" y="-896" on="1"/>
        <pt x="-600" y="-969" on="1"/>
        <pt x="-750" y="-896" on="1"/>
        <pt x="-750" y="-1050" on="1"/>
        <pt x="-650" y="-1050" on="0"/>
        <pt x="-650" y="-1099" on="1"/>
        <pt x="-650" y="-1149" on="1"/>
        <pt x="-650" y="-1200" on="0"/>
        <pt x="-750" y="-1200" on="1"/>
        <pt x="-900" y="-1200" on="1"/>
        <pt x="-1050" y="-1200" on="0"/>
        <pt x="-1050" y="-1149" on="1"/>
        <pt x="-1050" y="-799" on="1"/>
        <pt x="-1050" y="-750" on="0"/>
        <pt x="-903" y="-750" on="1"/>
        <pt x="-750" y="-750" on="1"/>
        <pt x="-600" y="-822" on="1"/>
        <pt x="-450" y="-750" on="1"/>
        <pt x="-297" y="-750" on="1"/>
        <pt x="-150" y="-750" on="0"/>
        <pt x="-150" y="-799" on="1"/>
        <pt x="-150" y="-967" on="1"/>
        <pt x="-100" y="-967" on="1"/>
        <pt x="47" y="-967" on="0"/>
        <pt x="150" y="-1034" on="1"/>
        <pt x="150" y="1500" on="1"/>
        <pt x="450" y="1500" on="1"/>
      </contour>
    </TTGlyph>
    <TTGlyph name="glyph190" xMin="-450" yMin="-1200" xMax="450" yMax="1500">
      <contour>
        <pt x="450" y="-1125" on="1"/>
        <pt x="450" y="-1200" on="0"/>
        <pt x="303" y="-1200" on="1"/>
        <pt x="150" y="-1200" on="1"/>
        <pt x="0" y="-1090" on="1"/>
        <pt x="-150" y="-1200" on="1"/>
        <pt x="-303" y="-1200" on="1"/>
        <pt x="-450" y="-1200" on="0"/>
        <pt x="-450" y="-1125" on="1"/>
        <pt x="-450" y="-825" on="1"/>
        <pt x="-450" y="-750" on="0"/>
        <pt x="-300" y="-750" on="1"/>
        <pt x="-100" y="-750" on="1"/>
        <pt x="-100" y="-862" on="1"/>
        <pt x="-150" y="-862" on="0"/>
        <pt x="-150" y="-900" on="1"/>
        <pt x="-150" y="-980" on="1"/>
        <pt x="0" y="-870" on="1"/>
        <pt x="150" y="-980" on="1"/>
        <pt x="150" y="1500" on="1"/>
        <pt x="450" y="1500" on="1"/>
      </contour>
    </TTGlyph>
    <TTGlyph name="glyph191" xMin="-450" yMin="-1200" xMax="450" yMax="1500">
      <contour>
        <pt x="450" y="-975" on="1"/>
        <pt x="450" y="-1200" on="0"/>
        <pt x="0" y="-1200" on="1"/>
        <pt x="-450" y="-1200" on="0"/>
        <pt x="-450" y="-975" on="1"/>
        <pt x="-450" y="-750" on="1"/>
        <pt x="-150" y="-750" on="1"/>
        <pt x="-150" y="-975" on="1"/>
        <pt x="-150" y="-1050" on="0"/>
        <pt x="0" y="-1050" on="1"/>
        <pt x="150" y="-1050" on="0"/>
        <pt x="150" y="-975" on="1"/>
        <pt x="150" y="1500" on="1"/>
        <pt x="450" y="1500" on="1"/>
      </contour>
    </TTGlyph>
    <TTGlyph name="glyph192" xMin="150" yMin="-1200" xMax="1050" yMax="1500">
      <contour>
        <pt x="450" y="-975" on="1"/>
        <pt x="450" y="-1050" on="0"/>
        <pt x="600" y="-1050" on="1"/>
        <pt x="750" y="-1050" on="0"/>
        <pt x="750" y="-975" on="1"/>
        <pt x="750" y="-750" on="1"/>
        <pt x="1050" y="-750" on="1"/>
        <pt x="1050" y="-975" on="1"/>
        <pt x="1050" y="-1200" on="0"/>
        <pt x="600" y="-1200" on="1"/>
        <pt x="150" y="-1200" on="0"/>
        <pt x="150" y="-975" on="1"/>
        <pt x="150" y="1500" on="1"/>
        <pt x="450" y="1500" on="1"/>
      </contour>
    </TTGlyph>
    <TTGlyph name="glyph193" xMin="-500" yMin="-1200" xMax="600" yMax="1500">
      <contour>
        <pt x="450" y="-975" on="1"/>
        <pt x="450" y="-1200" on="0"/>
        <pt x="0" y="-1200" on="1"/>
        <pt x="-450" y="-1200" on="0"/>
        <pt x="-450" y="-975" on="1"/>
        <pt x="-450" y="-952" on="1"/>
        <pt x="-450" y="-900" on="0"/>
        <pt x="-500" y="-900" on="1"/>
        <pt x="-500" y="-750" on="1"/>
        <pt x="-350" y="-750" on="1"/>
        <pt x="-150" y="-750" on="0"/>
        <pt x="-150" y="-862" on="1"/>
        <pt x="-150" y="-975" on="1"/>
        <pt x="-150" y="-1050" on="0"/>
        <pt x="0" y="-1050" on="1"/>
        <pt x="150" y="-1050" on="0"/>
        <pt x="150" y="-975" on="1"/>
        <pt x="150" y="0" on="1"/>
        <pt x="0" y="0" on="1"/>
        <pt x="0" y="200" on="1"/>
        <pt x="150" y="200" on="1"/>
        <pt x="150" y="1500" on="1"/>
        <pt x="450" y="1500" on="1"/>
        <pt x="450" y="200" on="1"/>
        <pt x="600" y="200" on="1"/>
        <pt x="600" y="0" on="1"/>
        <pt x="450" y="0" on="1"/>
      </contour>
    </TTGlyph>
    <TTGlyph name="glyph194" xMin="-700" yMin="1750" xMax="0" yMax="2000">
      <contour>
        <pt x="-700" y="1750" on="1"/>
        <pt x="-700" y="1900" on="1"/>
        <pt x="-700" y="2000" on="0"/>
        <pt x="-622" y="2000" on="1"/>
        <pt x="-311" y="2000" on="1"/>
        <pt x="-217" y="2000" on="0"/>
        <pt x="0" y="1850" on="1"/>
        <pt x="0" y="1750" on="1"/>
      </contour>
    </TTGlyph>
    <TTGlyph name="glyph195" xMin="-700" yMin="1750" xMax="0" yMax="2150">
      <contour>
        <pt x="-155" y="1947" on="1"/>
        <pt x="-155" y="2150" on="1"/>
        <pt x="0" y="2150" on="1"/>
        <pt x="0" y="1750" on="1"/>
        <pt x="-700" y="1750" on="1"/>
        <pt x="-700" y="1900" on="1"/>
        <pt x="-700" y="2000" on="0"/>
        <pt x="-622" y="2000" on="1"/>
        <pt x="-311" y="2000" on="1"/>
        <pt x="-255" y="2000" on="0"/>
      </contour>
    </TTGlyph>
    <TTGlyph name="glyph196" xMin="-700" yMin="1750" xMax="0" yMax="2150">
      <contour>
        <pt x="-232" y="1982" on="1"/>
        <pt x="-233" y="1991" on="0"/>
        <pt x="-233" y="2000" on="1"/>
        <pt x="-233" y="2040" on="0"/>
        <pt x="-200" y="2112" on="0"/>
        <pt x="-146" y="2150" on="0"/>
        <pt x="-116" y="2150" on="1"/>
        <pt x="-87" y="2150" on="0"/>
        <pt x="-31" y="2112" on="0"/>
        <pt x="0" y="2040" on="0"/>
        <pt x="0" y="2000" on="1"/>
        <pt x="0" y="1960" on="0"/>
        <pt x="-14" y="1925" on="1"/>
        <pt x="-25" y="1898" on="0"/>
        <pt x="-44" y="1880" on="1"/>
        <pt x="-22" y="1866" on="0"/>
        <pt x="0" y="1850" on="1"/>
        <pt x="0" y="1750" on="1"/>
        <pt x="-700" y="1750" on="1"/>
        <pt x="-700" y="1900" on="1"/>
        <pt x="-700" y="2000" on="0"/>
        <pt x="-622" y="2000" on="1"/>
        <pt x="-311" y="2000" on="1"/>
        <pt x="-278" y="2000" on="0"/>
      </contour>
    </TTGlyph>
    <TTGlyph name="glyph197" xMin="-700" yMin="1750" xMax="0" yMax="2150">
      <contour>
        <pt x="-194" y="1960" on="1"/>
        <pt x="-159" y="1943" on="0"/>
        <pt x="-116" y="1917" on="1"/>
        <pt x="-116" y="2150" on="1"/>
        <pt x="0" y="2150" on="1"/>
        <pt x="0" y="1750" on="1"/>
        <pt x="-700" y="1750" on="1"/>
        <pt x="-700" y="1900" on="1"/>
        <pt x="-700" y="2000" on="0"/>
        <pt x="-622" y="2000" on="1"/>
        <pt x="-311" y="2000" on="1"/>
        <pt x="-311" y="2150" on="1"/>
        <pt x="-194" y="2150" on="1"/>
      </contour>
    </TTGlyph>
    <TTGlyph name="glyph198" xMin="-600" yMin="1650" xMax="0" yMax="2250">
      <contour>
        <pt x="-373" y="2024" on="0"/>
        <pt x="-400" y="1976" on="0"/>
        <pt x="-400" y="1950" on="1"/>
        <pt x="-400" y="1924" on="0"/>
        <pt x="-373" y="1876" on="0"/>
        <pt x="-325" y="1850" on="0"/>
        <pt x="-300" y="1850" on="1"/>
        <pt x="-274" y="1850" on="0"/>
        <pt x="-226" y="1876" on="0"/>
        <pt x="-200" y="1924" on="0"/>
        <pt x="-200" y="1950" on="1"/>
        <pt x="-200" y="1976" on="0"/>
        <pt x="-227" y="2024" on="0"/>
        <pt x="-274" y="2050" on="0"/>
        <pt x="-300" y="2050" on="1"/>
        <pt x="-325" y="2050" on="0"/>
      </contour>
      <contour>
        <pt x="-300" y="2250" on="1"/>
        <pt x="-224" y="2250" on="0"/>
        <pt x="-81" y="2173" on="0"/>
        <pt x="0" y="2028" on="0"/>
        <pt x="0" y="1950" on="1"/>
        <pt x="0" y="1872" on="0"/>
        <pt x="-79" y="1729" on="0"/>
        <pt x="-222" y="1650" on="0"/>
        <pt x="-300" y="1650" on="1"/>
        <pt x="-377" y="1650" on="0"/>
        <pt x="-520" y="1729" on="0"/>
        <pt x="-600" y="1872" on="0"/>
        <pt x="-600" y="1950" on="1"/>
        <pt x="-600" y="2028" on="0"/>
        <pt x="-519" y="2173" on="0"/>
        <pt x="-376" y="2250" on="0"/>
      </contour>
    </TTGlyph>
    <TTGlyph name="glyph199" xMin="-575" yMin="1650" xMax="-25" yMax="2250">
      <contour>
        <pt x="-575" y="1650" on="1"/>
        <pt x="-575" y="2250" on="1"/>
        <pt x="-375" y="2250" on="1"/>
        <pt x="-375" y="1650" on="1"/>
      </contour>
      <contour>
        <pt x="-225" y="1650" on="1"/>
        <pt x="-225" y="2250" on="1"/>
        <pt x="-25" y="2250" on="1"/>
        <pt x="-25" y="1650" on="1"/>
      </contour>
    </TTGlyph>
    <TTGlyph name="glyph200" xMin="-625" yMin="1650" xMax="25" yMax="2100">
      <contour>
        <pt x="-350" y="1760" on="1"/>
        <pt x="-220" y="1760" on="1"/>
        <pt x="-220" y="1650" on="1"/>
        <pt x="-625" y="1650" on="1"/>
        <pt x="-625" y="1950" on="1"/>
        <pt x="-337" y="1950" on="1"/>
        <pt x="-200" y="1950" on="0"/>
        <pt x="-200" y="2100" on="1"/>
        <pt x="25" y="2100" on="1"/>
        <pt x="25" y="1950" on="1"/>
        <pt x="25" y="1850" on="0"/>
        <pt x="-175" y="1850" on="1"/>
        <pt x="-350" y="1850" on="1"/>
      </contour>
    </TTGlyph>
    <TTGlyph name="glyph201" xMin="-600" yMin="1750" xMax="100" yMax="2250">
      <contour>
        <pt x="-23" y="1800" on="1"/>
        <pt x="-23" y="1750" on="1"/>
        <pt x="-600" y="1750" on="1"/>
        <pt x="-600" y="1900" on="1"/>
        <pt x="-600" y="2000" on="0"/>
        <pt x="-476" y="2000" on="1"/>
        <pt x="-228" y="2000" on="1"/>
        <pt x="-229" y="2100" on="1"/>
        <pt x="-144" y="2100" on="1"/>
        <pt x="-64" y="2100" on="0"/>
        <pt x="-64" y="2250" on="1"/>
        <pt x="100" y="2250" on="1"/>
        <pt x="100" y="2100" on="1"/>
        <pt x="100" y="2000" on="0"/>
        <pt x="-2" y="2000" on="1"/>
        <pt x="-64" y="2000" on="1"/>
        <pt x="-64" y="1910" on="1"/>
        <pt x="9" y="1910" on="1"/>
        <pt x="9" y="1800" on="1"/>
      </contour>
    </TTGlyph>
    <TTGlyph name="glyph202" xMin="-750" yMin="-700" xMax="150" yMax="-100">
      <contour>
        <pt x="-150" y="-700" on="1"/>
        <pt x="-150" y="-357" on="1"/>
        <pt x="-150" y="-250" on="0"/>
        <pt x="-300" y="-250" on="1"/>
        <pt x="-450" y="-250" on="0"/>
        <pt x="-450" y="-357" on="1"/>
        <pt x="-450" y="-700" on="1"/>
        <pt x="-750" y="-700" on="1"/>
        <pt x="-750" y="-357" on="1"/>
        <pt x="-750" y="-100" on="0"/>
        <pt x="-300" y="-100" on="1"/>
        <pt x="150" y="-100" on="0"/>
        <pt x="150" y="-357" on="1"/>
        <pt x="150" y="-700" on="1"/>
      </contour>
    </TTGlyph>
    <TTGlyph name="glyph203" xMin="-750" yMin="-700" xMax="150" yMax="-100">
      <contour>
        <pt x="-450" y="-308" on="1"/>
        <pt x="-567" y="-308" on="1"/>
        <pt x="-750" y="-308" on="0"/>
        <pt x="-750" y="-274" on="1"/>
        <pt x="-750" y="-236" on="1"/>
        <pt x="-750" y="-100" on="0"/>
        <pt x="-300" y="-100" on="1"/>
        <pt x="150" y="-100" on="0"/>
        <pt x="150" y="-236" on="1"/>
        <pt x="150" y="-318" on="1"/>
        <pt x="150" y="-387" on="0"/>
        <pt x="-450" y="-455" on="0"/>
        <pt x="-450" y="-522" on="1"/>
        <pt x="-450" y="-533" on="1"/>
        <pt x="-450" y="-600" on="0"/>
        <pt x="-300" y="-600" on="1"/>
        <pt x="-150" y="-600" on="0"/>
        <pt x="-150" y="-533" on="1"/>
        <pt x="-150" y="-491" on="1"/>
        <pt x="150" y="-437" on="1"/>
        <pt x="150" y="-563" on="1"/>
        <pt x="150" y="-700" on="0"/>
        <pt x="-300" y="-700" on="1"/>
        <pt x="-750" y="-700" on="0"/>
        <pt x="-750" y="-563" on="1"/>
        <pt x="-750" y="-481" on="1"/>
        <pt x="-750" y="-412" on="0"/>
        <pt x="-150" y="-344" on="0"/>
        <pt x="-150" y="-297" on="1"/>
        <pt x="-150" y="-266" on="1"/>
        <pt x="-150" y="-200" on="0"/>
        <pt x="-300" y="-200" on="1"/>
        <pt x="-450" y="-200" on="0"/>
        <pt x="-450" y="-266" on="1"/>
      </contour>
    </TTGlyph>
    <TTGlyph name="glyph204" xMin="-750" yMin="-700" xMax="150" yMax="-100">
      <contour>
        <pt x="-450" y="-481" on="1"/>
        <pt x="-352" y="-375" on="1"/>
        <pt x="-262" y="-464" on="1"/>
        <pt x="-450" y="-688" on="1"/>
        <pt x="-450" y="-700" on="1"/>
        <pt x="-750" y="-700" on="1"/>
        <pt x="-750" y="-357" on="1"/>
        <pt x="-750" y="-100" on="0"/>
        <pt x="-300" y="-100" on="1"/>
        <pt x="150" y="-100" on="0"/>
        <pt x="150" y="-357" on="1"/>
        <pt x="150" y="-700" on="1"/>
        <pt x="-150" y="-700" on="1"/>
        <pt x="-150" y="-357" on="1"/>
        <pt x="-150" y="-250" on="0"/>
        <pt x="-300" y="-250" on="1"/>
        <pt x="-450" y="-250" on="0"/>
        <pt x="-450" y="-357" on="1"/>
      </contour>
    </TTGlyph>
    <TTGlyph name="glyph205" xMin="-750" yMin="-700" xMax="150" yMax="-100">
      <contour>
        <pt x="-352" y="-700" on="1"/>
        <pt x="-750" y="-700" on="0"/>
        <pt x="-750" y="-450" on="1"/>
        <pt x="-750" y="-400" on="1"/>
        <pt x="-750" y="-200" on="0"/>
        <pt x="-500" y="-200" on="1"/>
        <pt x="-350" y="-200" on="1"/>
        <pt x="-350" y="-350" on="1"/>
        <pt x="-450" y="-350" on="0"/>
        <pt x="-450" y="-450" on="1"/>
        <pt x="-450" y="-550" on="0"/>
        <pt x="-352" y="-550" on="1"/>
        <pt x="-150" y="-550" on="0"/>
        <pt x="-150" y="-100" on="1"/>
        <pt x="150" y="-100" on="1"/>
        <pt x="150" y="-700" on="0"/>
      </contour>
    </TTGlyph>
    <TTGlyph name="glyph206" xMin="-825" yMin="-700" xMax="225" yMax="-100">
      <contour>
        <pt x="125" y="-700" on="1"/>
        <pt x="-525" y="-700" on="1"/>
        <pt x="-775" y="-700" on="0"/>
        <pt x="-775" y="-550" on="1"/>
        <pt x="-775" y="-300" on="1"/>
        <pt x="-775" y="-250" on="0"/>
        <pt x="-825" y="-250" on="1"/>
        <pt x="-825" y="-100" on="1"/>
        <pt x="-625" y="-100" on="1"/>
        <pt x="-475" y="-100" on="0"/>
        <pt x="-475" y="-200" on="1"/>
        <pt x="-475" y="-450" on="1"/>
        <pt x="-475" y="-550" on="0"/>
        <pt x="-325" y="-550" on="1"/>
        <pt x="-175" y="-550" on="0"/>
        <pt x="-175" y="-450" on="1"/>
        <pt x="-175" y="-300" on="1"/>
        <pt x="-275" y="-300" on="1"/>
        <pt x="-275" y="-200" on="1"/>
        <pt x="-175" y="-200" on="1"/>
        <pt x="-175" y="-100" on="1"/>
        <pt x="125" y="-100" on="1"/>
        <pt x="125" y="-200" on="1"/>
        <pt x="225" y="-200" on="1"/>
        <pt x="225" y="-300" on="1"/>
        <pt x="125" y="-300" on="1"/>
      </contour>
    </TTGlyph>
    <TTGlyph name="glyph207" xMin="-750" yMin="-700" xMax="150" yMax="-100">
      <contour>
        <pt x="-150" y="-479" on="1"/>
        <pt x="-150" y="-300" on="1"/>
        <pt x="-300" y="-300" on="0"/>
        <pt x="-300" y="-200" on="1"/>
        <pt x="-300" y="-100" on="0"/>
        <pt x="-150" y="-100" on="1"/>
        <pt x="-33" y="-100" on="1"/>
        <pt x="150" y="-100" on="0"/>
        <pt x="150" y="-250" on="1"/>
        <pt x="150" y="-570" on="1"/>
        <pt x="150" y="-700" on="0"/>
        <pt x="0" y="-700" on="1"/>
        <pt x="-150" y="-700" on="1"/>
        <pt x="-150" y="-643" on="0"/>
        <pt x="-304" y="-540" on="0"/>
        <pt x="-400" y="-540" on="1"/>
        <pt x="-450" y="-540" on="1"/>
        <pt x="-450" y="-700" on="0"/>
        <pt x="-600" y="-700" on="1"/>
        <pt x="-750" y="-700" on="0"/>
        <pt x="-750" y="-560" on="1"/>
        <pt x="-750" y="-394" on="0"/>
        <pt x="-617" y="-391" on="1"/>
        <pt x="-750" y="-340" on="1"/>
        <pt x="-750" y="-100" on="1"/>
        <pt x="-450" y="-100" on="1"/>
        <pt x="-450" y="-390" on="1"/>
        <pt x="-400" y="-390" on="1"/>
        <pt x="-253" y="-390" on="0"/>
      </contour>
    </TTGlyph>
    <TTGlyph name="glyph208" xMin="-800" yMin="-700" xMax="200" yMax="-100">
      <contour>
        <pt x="100" y="-600" on="1"/>
        <pt x="100" y="-700" on="0"/>
        <pt x="-47" y="-700" on="1"/>
        <pt x="-200" y="-700" on="1"/>
        <pt x="-350" y="-554" on="1"/>
        <pt x="-500" y="-700" on="1"/>
        <pt x="-653" y="-700" on="1"/>
        <pt x="-800" y="-700" on="0"/>
        <pt x="-800" y="-600" on="1"/>
        <pt x="-800" y="-100" on="1"/>
        <pt x="-500" y="-100" on="1"/>
        <pt x="-500" y="-477" on="1"/>
        <pt x="-350" y="-331" on="1"/>
        <pt x="-200" y="-477" on="1"/>
        <pt x="-200" y="-300" on="1"/>
        <pt x="-300" y="-300" on="1"/>
        <pt x="-300" y="-200" on="1"/>
        <pt x="-200" y="-200" on="1"/>
        <pt x="-200" y="-100" on="1"/>
        <pt x="100" y="-100" on="1"/>
        <pt x="100" y="-200" on="1"/>
        <pt x="200" y="-200" on="1"/>
        <pt x="200" y="-300" on="1"/>
        <pt x="100" y="-300" on="1"/>
      </contour>
    </TTGlyph>
    <TTGlyph name="glyph209" xMin="-750" yMin="-650" xMax="150" yMax="-150">
      <contour>
        <pt x="-750" y="-200" on="1"/>
        <pt x="-676" y="-200" on="1"/>
        <pt x="-491" y="-200" on="0"/>
        <pt x="-373" y="-335" on="1"/>
        <pt x="-255" y="-470" on="0"/>
        <pt x="-177" y="-470" on="1"/>
        <pt x="-100" y="-470" on="0"/>
        <pt x="-100" y="-350" on="1"/>
        <pt x="-200" y="-350" on="1"/>
        <pt x="-200" y="-150" on="1"/>
        <pt x="-11" y="-150" on="1"/>
        <pt x="150" y="-150" on="0"/>
        <pt x="150" y="-350" on="1"/>
        <pt x="150" y="-650" on="0"/>
        <pt x="-129" y="-650" on="1"/>
        <pt x="-297" y="-650" on="0"/>
        <pt x="-417" y="-550" on="1"/>
        <pt x="-537" y="-450" on="0"/>
        <pt x="-636" y="-450" on="1"/>
        <pt x="-750" y="-450" on="1"/>
      </contour>
    </TTGlyph>
    <TTGlyph name="glyph210" xMin="-750" yMin="-700" xMax="150" yMax="-100">
      <contour>
        <pt x="-150" y="-700" on="1"/>
        <pt x="-150" y="-357" on="1"/>
        <pt x="-150" y="-250" on="0"/>
        <pt x="-300" y="-250" on="1"/>
        <pt x="-450" y="-250" on="0"/>
        <pt x="-450" y="-357" on="1"/>
        <pt x="-450" y="-450" on="1"/>
        <pt x="-300" y="-450" on="0"/>
        <pt x="-300" y="-575" on="1"/>
        <pt x="-300" y="-700" on="0"/>
        <pt x="-450" y="-700" on="1"/>
        <pt x="-600" y="-700" on="1"/>
        <pt x="-750" y="-700" on="0"/>
        <pt x="-750" y="-614" on="1"/>
        <pt x="-750" y="-357" on="1"/>
        <pt x="-750" y="-100" on="0"/>
        <pt x="-300" y="-100" on="1"/>
        <pt x="150" y="-100" on="0"/>
        <pt x="150" y="-357" on="1"/>
        <pt x="150" y="-700" on="1"/>
      </contour>
    </TTGlyph>
    <TTGlyph name="glyph211" xMin="-800" yMin="-670" xMax="200" yMax="-70">
      <contour>
        <pt x="-800" y="-170" on="1"/>
        <pt x="-200" y="-170" on="1"/>
        <pt x="-200" y="-70" on="1"/>
        <pt x="100" y="-70" on="1"/>
        <pt x="100" y="-170" on="1"/>
        <pt x="200" y="-170" on="1"/>
        <pt x="200" y="-320" on="1"/>
        <pt x="100" y="-320" on="1"/>
        <pt x="100" y="-570" on="1"/>
        <pt x="100" y="-670" on="0"/>
        <pt x="-50" y="-670" on="1"/>
        <pt x="-200" y="-670" on="1"/>
        <pt x="-350" y="-550" on="1"/>
        <pt x="-500" y="-670" on="1"/>
        <pt x="-650" y="-670" on="1"/>
        <pt x="-800" y="-670" on="0"/>
        <pt x="-800" y="-570" on="1"/>
      </contour>
      <contour>
        <pt x="-200" y="-470" on="1"/>
        <pt x="-200" y="-320" on="1"/>
        <pt x="-500" y="-320" on="1"/>
        <pt x="-500" y="-470" on="1"/>
        <pt x="-350" y="-370" on="1"/>
      </contour>
    </TTGlyph>
    <TTGlyph name="glyph212" xMin="-750" yMin="-700" xMax="150" yMax="-100">
      <contour>
        <pt x="150" y="-318" on="1"/>
        <pt x="150" y="-387" on="0"/>
        <pt x="-450" y="-455" on="0"/>
        <pt x="-450" y="-522" on="1"/>
        <pt x="-450" y="-563" on="1"/>
        <pt x="-450" y="-600" on="0"/>
        <pt x="-370" y="-600" on="1"/>
        <pt x="-310" y="-600" on="0"/>
        <pt x="-150" y="-533" on="1"/>
        <pt x="-150" y="-450" on="1"/>
        <pt x="150" y="-450" on="1"/>
        <pt x="150" y="-700" on="1"/>
        <pt x="-150" y="-700" on="1"/>
        <pt x="-150" y="-620" on="1"/>
        <pt x="-295" y="-700" on="0"/>
        <pt x="-370" y="-700" on="1"/>
        <pt x="-500" y="-700" on="1"/>
        <pt x="-750" y="-700" on="0"/>
        <pt x="-750" y="-563" on="1"/>
        <pt x="-750" y="-481" on="1"/>
        <pt x="-750" y="-412" on="0"/>
        <pt x="-150" y="-344" on="0"/>
        <pt x="-150" y="-297" on="1"/>
        <pt x="-150" y="-269" on="1"/>
        <pt x="-150" y="-240" on="0"/>
        <pt x="-177" y="-240" on="1"/>
        <pt x="-245" y="-240" on="0"/>
        <pt x="-300" y="-306" on="1"/>
        <pt x="-355" y="-240" on="0"/>
        <pt x="-422" y="-240" on="1"/>
        <pt x="-450" y="-240" on="0"/>
        <pt x="-450" y="-269" on="1"/>
        <pt x="-450" y="-328" on="1"/>
        <pt x="-617" y="-328" on="1"/>
        <pt x="-750" y="-328" on="0"/>
        <pt x="-750" y="-274" on="1"/>
        <pt x="-750" y="-229" on="1"/>
        <pt x="-750" y="-100" on="0"/>
        <pt x="-600" y="-100" on="1"/>
        <pt x="-465" y="-100" on="1"/>
        <pt x="-370" y="-100" on="0"/>
        <pt x="-300" y="-188" on="1"/>
        <pt x="-230" y="-100" on="0"/>
        <pt x="-135" y="-100" on="1"/>
        <pt x="0" y="-100" on="1"/>
        <pt x="150" y="-100" on="0"/>
        <pt x="150" y="-229" on="1"/>
      </contour>
    </TTGlyph>
    <TTGlyph name="glyph213" xMin="-750" yMin="-700" xMax="150" yMax="-100">
      <contour>
        <pt x="-150" y="-700" on="1"/>
        <pt x="-150" y="-357" on="1"/>
        <pt x="-150" y="-250" on="0"/>
        <pt x="-300" y="-250" on="1"/>
        <pt x="-450" y="-250" on="0"/>
        <pt x="-450" y="-357" on="1"/>
        <pt x="-450" y="-450" on="1"/>
        <pt x="-300" y="-450" on="0"/>
        <pt x="-300" y="-575" on="1"/>
        <pt x="-300" y="-700" on="0"/>
        <pt x="-450" y="-700" on="1"/>
        <pt x="-600" y="-700" on="1"/>
        <pt x="-750" y="-700" on="0"/>
        <pt x="-750" y="-614" on="1"/>
        <pt x="-750" y="-357" on="1"/>
        <pt x="-750" y="-100" on="0"/>
        <pt x="-300" y="-100" on="1"/>
        <pt x="150" y="-100" on="0"/>
        <pt x="150" y="-357" on="1"/>
        <pt x="150" y="-700" on="1"/>
      </contour>
    </TTGlyph>
    <TTGlyph name="glyph214" xMin="-750" yMin="-650" xMax="150" yMax="-100">
      <contour>
        <pt x="150" y="-650" on="1"/>
        <pt x="42" y="-650" on="1"/>
        <pt x="-133" y="-650" on="0"/>
        <pt x="-307" y="-350" on="1"/>
        <pt x="-366" y="-250" on="0"/>
        <pt x="-439" y="-250" on="1"/>
        <pt x="-513" y="-250" on="0"/>
        <pt x="-513" y="-350" on="1"/>
        <pt x="-513" y="-400" on="1"/>
        <pt x="-418" y="-400" on="1"/>
        <pt x="-418" y="-600" on="1"/>
        <pt x="-597" y="-600" on="1"/>
        <pt x="-750" y="-600" on="0"/>
        <pt x="-750" y="-400" on="1"/>
        <pt x="-750" y="-300" on="1"/>
        <pt x="-750" y="-100" on="0"/>
        <pt x="-502" y="-100" on="1"/>
        <pt x="-428" y="-100" on="1"/>
        <pt x="-288" y="-100" on="0"/>
        <pt x="-170" y="-225" on="1"/>
        <pt x="-51" y="-350" on="0"/>
        <pt x="42" y="-350" on="1"/>
        <pt x="150" y="-350" on="1"/>
      </contour>
    </TTGlyph>
    <TTGlyph name="glyph215" xMin="-750" yMin="-700" xMax="150" yMax="-100">
      <contour>
        <pt x="-150" y="-263" on="0"/>
        <pt x="-150" y="-200" on="1"/>
        <pt x="-263" y="-200" on="1"/>
        <pt x="-263" y="-100" on="1"/>
        <pt x="150" y="-100" on="1"/>
        <pt x="150" y="-219" on="1"/>
        <pt x="150" y="-338" on="0"/>
        <pt x="-80" y="-366" on="1"/>
        <pt x="-450" y="-394" on="1"/>
        <pt x="-450" y="-514" on="1"/>
        <pt x="150" y="-427" on="1"/>
        <pt x="150" y="-590" on="1"/>
        <pt x="150" y="-700" on="0"/>
        <pt x="4" y="-700" on="1"/>
        <pt x="-256" y="-700" on="1"/>
        <pt x="-190" y="-645" on="1"/>
        <pt x="-190" y="-590" on="1"/>
        <pt x="-411" y="-645" on="1"/>
        <pt x="-750" y="-645" on="1"/>
        <pt x="-750" y="-318" on="1"/>
        <pt x="-325" y="-277" on="1"/>
      </contour>
    </TTGlyph>
    <TTGlyph name="glyph216" xMin="-750" yMin="-700" xMax="150" yMax="-100">
      <contour>
        <pt x="-120" y="-100" on="1"/>
        <pt x="150" y="-100" on="1"/>
        <pt x="150" y="-400" on="1"/>
        <pt x="150" y="-476" on="0"/>
        <pt x="31" y="-552" on="0"/>
        <pt x="-134" y="-552" on="1"/>
        <pt x="-244" y="-518" on="1"/>
        <pt x="-244" y="-580" on="0"/>
        <pt x="-300" y="-640" on="1"/>
        <pt x="-354" y="-700" on="0"/>
        <pt x="-464" y="-700" on="1"/>
        <pt x="-750" y="-700" on="1"/>
        <pt x="-750" y="-326" on="1"/>
        <pt x="-464" y="-258" on="0"/>
        <pt x="-120" y="-145" on="0"/>
      </contour>
      <contour>
        <pt x="-280" y="-372" on="1"/>
        <pt x="-120" y="-409" on="1"/>
        <pt x="-120" y="-280" on="1"/>
      </contour>
      <contour>
        <pt x="-464" y="-475" on="1"/>
        <pt x="-464" y="-580" on="1"/>
        <pt x="-409" y="-580" on="0"/>
        <pt x="-381" y="-550" on="1"/>
        <pt x="-354" y="-521" on="0"/>
        <pt x="-354" y="-462" on="1"/>
        <pt x="-354" y="-427" on="1"/>
      </contour>
    </TTGlyph>
    <TTGlyph name="glyph217" xMin="-775" yMin="-700" xMax="175" yMax="-100">
      <contour>
        <pt x="-775" y="-600" on="0"/>
        <pt x="-775" y="-500" on="1"/>
        <pt x="-775" y="-300" on="1"/>
        <pt x="-775" y="-200" on="0"/>
        <pt x="-625" y="-200" on="1"/>
        <pt x="-225" y="-200" on="1"/>
        <pt x="-225" y="-100" on="1"/>
        <pt x="75" y="-100" on="1"/>
        <pt x="75" y="-200" on="1"/>
        <pt x="175" y="-200" on="1"/>
        <pt x="175" y="-350" on="1"/>
        <pt x="75" y="-350" on="1"/>
        <pt x="75" y="-450" on="1"/>
        <pt x="175" y="-450" on="0"/>
        <pt x="175" y="-575" on="1"/>
        <pt x="175" y="-700" on="0"/>
        <pt x="-50" y="-700" on="1"/>
        <pt x="-225" y="-700" on="0"/>
        <pt x="-225" y="-600" on="1"/>
        <pt x="-625" y="-600" on="1"/>
      </contour>
      <contour>
        <pt x="-475" y="-450" on="1"/>
        <pt x="-225" y="-450" on="1"/>
        <pt x="-225" y="-350" on="1"/>
        <pt x="-475" y="-350" on="1"/>
      </contour>
    </TTGlyph>
    <TTGlyph name="glyph218" xMin="-750" yMin="-700" xMax="150" yMax="-100">
      <contour>
        <pt x="150" y="-600" on="1"/>
        <pt x="150" y="-700" on="0"/>
        <pt x="3" y="-700" on="1"/>
        <pt x="-150" y="-700" on="1"/>
        <pt x="-300" y="-554" on="1"/>
        <pt x="-450" y="-700" on="1"/>
        <pt x="-603" y="-700" on="1"/>
        <pt x="-750" y="-700" on="0"/>
        <pt x="-750" y="-600" on="1"/>
        <pt x="-750" y="-100" on="1"/>
        <pt x="-450" y="-100" on="1"/>
        <pt x="-450" y="-477" on="1"/>
        <pt x="-300" y="-331" on="1"/>
        <pt x="-150" y="-477" on="1"/>
        <pt x="-150" y="-300" on="1"/>
        <pt x="-250" y="-300" on="0"/>
        <pt x="-250" y="-200" on="1"/>
        <pt x="-250" y="-100" on="0"/>
        <pt x="-150" y="-100" on="1"/>
        <pt x="0" y="-100" on="1"/>
        <pt x="150" y="-100" on="0"/>
        <pt x="150" y="-200" on="1"/>
      </contour>
    </TTGlyph>
    <TTGlyph name="glyph219" xMin="-750" yMin="-700" xMax="150" yMax="-100">
      <contour>
        <pt x="150" y="-700" on="1"/>
        <pt x="-150" y="-700" on="1"/>
        <pt x="-150" y="-295" on="1"/>
        <pt x="-300" y="-392" on="1"/>
        <pt x="-450" y="-295" on="1"/>
        <pt x="-450" y="-500" on="1"/>
        <pt x="-300" y="-500" on="0"/>
        <pt x="-300" y="-566" on="1"/>
        <pt x="-300" y="-633" on="1"/>
        <pt x="-300" y="-700" on="0"/>
        <pt x="-450" y="-700" on="1"/>
        <pt x="-600" y="-700" on="1"/>
        <pt x="-750" y="-700" on="0"/>
        <pt x="-750" y="-633" on="1"/>
        <pt x="-750" y="-166" on="1"/>
        <pt x="-750" y="-100" on="0"/>
        <pt x="-603" y="-100" on="1"/>
        <pt x="-450" y="-100" on="1"/>
        <pt x="-300" y="-197" on="1"/>
        <pt x="-150" y="-100" on="1"/>
        <pt x="3" y="-100" on="1"/>
        <pt x="150" y="-100" on="0"/>
        <pt x="150" y="-166" on="1"/>
      </contour>
    </TTGlyph>
    <TTGlyph name="glyph220" xMin="-800" yMin="-700" xMax="200" yMax="-100">
      <contour>
        <pt x="-400" y="-614" on="1"/>
        <pt x="-400" y="-700" on="0"/>
        <pt x="-550" y="-700" on="1"/>
        <pt x="-700" y="-700" on="1"/>
        <pt x="-800" y="-700" on="0"/>
        <pt x="-800" y="-575" on="1"/>
        <pt x="-800" y="-450" on="0"/>
        <pt x="-700" y="-450" on="1"/>
        <pt x="-700" y="-357" on="1"/>
        <pt x="-700" y="-100" on="0"/>
        <pt x="-250" y="-100" on="1"/>
        <pt x="200" y="-100" on="0"/>
        <pt x="200" y="-357" on="1"/>
        <pt x="200" y="-700" on="1"/>
        <pt x="-100" y="-700" on="1"/>
        <pt x="-100" y="-357" on="1"/>
        <pt x="-100" y="-250" on="0"/>
        <pt x="-250" y="-250" on="1"/>
        <pt x="-400" y="-250" on="0"/>
        <pt x="-400" y="-357" on="1"/>
      </contour>
    </TTGlyph>
    <TTGlyph name="glyph221" xMin="-800" yMin="-700" xMax="200" yMax="-50">
      <contour>
        <pt x="-150" y="-300" on="1"/>
        <pt x="-150" y="-50" on="1"/>
        <pt x="150" y="-50" on="1"/>
        <pt x="150" y="-238" on="1"/>
        <pt x="27" y="-301" on="1"/>
        <pt x="64" y="-306" on="0"/>
        <pt x="99" y="-325" on="1"/>
        <pt x="146" y="-351" on="0"/>
        <pt x="200" y="-447" on="0"/>
        <pt x="200" y="-500" on="1"/>
        <pt x="200" y="-700" on="0"/>
        <pt x="32" y="-700" on="1"/>
        <pt x="-136" y="-700" on="0"/>
        <pt x="-143" y="-549" on="1"/>
        <pt x="-800" y="-550" on="1"/>
        <pt x="-800" y="-300" on="1"/>
      </contour>
    </TTGlyph>
    <TTGlyph name="glyph222" xMin="-750" yMin="-650" xMax="150" yMax="-150">
      <contour>
        <pt x="-150" y="-650" on="1"/>
        <pt x="-450" y="-400" on="1"/>
        <pt x="-450" y="-650" on="1"/>
        <pt x="-750" y="-650" on="1"/>
        <pt x="-750" y="-150" on="1"/>
        <pt x="-450" y="-150" on="1"/>
        <pt x="-150" y="-399" on="1"/>
        <pt x="-150" y="-150" on="1"/>
        <pt x="150" y="-150" on="1"/>
        <pt x="150" y="-650" on="1"/>
      </contour>
    </TTGlyph>
    <TTGlyph name="glyph223" xMin="-750" yMin="-700" xMax="150" yMax="-100">
      <contour>
        <pt x="-361" y="-700" on="1"/>
        <pt x="-605" y="-700" on="0"/>
        <pt x="-750" y="-570" on="0"/>
        <pt x="-750" y="-451" on="1"/>
        <pt x="-750" y="-350" on="1"/>
        <pt x="-636" y="-324" on="0"/>
        <pt x="-452" y="-262" on="1"/>
        <pt x="-269" y="-199" on="0"/>
        <pt x="-150" y="-100" on="1"/>
        <pt x="150" y="-100" on="1"/>
        <pt x="150" y="-201" on="1"/>
        <pt x="150" y="-448" on="0"/>
        <pt x="-152" y="-700" on="0"/>
      </contour>
      <contour>
        <pt x="-450" y="-447" on="1"/>
        <pt x="-450" y="-497" on="0"/>
        <pt x="-422" y="-524" on="1"/>
        <pt x="-395" y="-549" on="0"/>
        <pt x="-340" y="-549" on="1"/>
        <pt x="-229" y="-549" on="0"/>
        <pt x="-189" y="-483" on="1"/>
        <pt x="-150" y="-417" on="0"/>
        <pt x="-150" y="-276" on="1"/>
        <pt x="-202" y="-338" on="0"/>
        <pt x="-285" y="-381" on="1"/>
        <pt x="-367" y="-423" on="0"/>
      </contour>
    </TTGlyph>
    <TTGlyph name="glyph224" xMin="-750" yMin="-650" xMax="150" yMax="-150">
      <contour>
        <pt x="-500" y="-500" on="1"/>
        <pt x="-390" y="-500" on="1"/>
        <pt x="-390" y="-150" on="1"/>
        <pt x="-15" y="-150" on="1"/>
        <pt x="68" y="-150" on="0"/>
        <pt x="109" y="-188" on="1"/>
        <pt x="150" y="-225" on="0"/>
        <pt x="150" y="-275" on="1"/>
        <pt x="150" y="-650" on="1"/>
        <pt x="-100" y="-650" on="1"/>
        <pt x="-100" y="-300" on="1"/>
        <pt x="-210" y="-300" on="1"/>
        <pt x="-210" y="-650" on="1"/>
        <pt x="-585" y="-650" on="1"/>
        <pt x="-667" y="-650" on="0"/>
        <pt x="-708" y="-612" on="1"/>
        <pt x="-750" y="-575" on="0"/>
        <pt x="-750" y="-525" on="1"/>
        <pt x="-750" y="-150" on="1"/>
        <pt x="-500" y="-150" on="1"/>
      </contour>
    </TTGlyph>
    <TTGlyph name="glyph225" xMin="-800" yMin="-700" xMax="200" yMax="-100">
      <contour>
        <pt x="-400" y="-100" on="1"/>
        <pt x="-400" y="-550" on="1"/>
        <pt x="-400" y="-700" on="0"/>
        <pt x="-600" y="-700" on="1"/>
        <pt x="-800" y="-700" on="1"/>
        <pt x="-800" y="-550" on="1"/>
        <pt x="-700" y="-550" on="0"/>
        <pt x="-700" y="-475" on="1"/>
        <pt x="-700" y="-100" on="1"/>
      </contour>
      <contour>
        <pt x="-100" y="-250" on="1"/>
        <pt x="-100" y="-100" on="1"/>
        <pt x="200" y="-100" on="1"/>
        <pt x="200" y="-550" on="1"/>
        <pt x="200" y="-700" on="0"/>
        <pt x="0" y="-700" on="1"/>
        <pt x="-200" y="-700" on="1"/>
        <pt x="-200" y="-550" on="1"/>
        <pt x="-100" y="-550" on="0"/>
        <pt x="-100" y="-475" on="1"/>
        <pt x="-100" y="-400" on="1"/>
        <pt x="-350" y="-400" on="1"/>
        <pt x="-350" y="-250" on="1"/>
      </contour>
    </TTGlyph>
    <TTGlyph name="glyph226" xMin="-1650" yMin="-700" xMax="-750" yMax="-100">
      <contour>
        <pt x="-1050" y="-700" on="1"/>
        <pt x="-1050" y="-357" on="1"/>
        <pt x="-1050" y="-250" on="0"/>
        <pt x="-1200" y="-250" on="1"/>
        <pt x="-1350" y="-250" on="0"/>
        <pt x="-1350" y="-357" on="1"/>
        <pt x="-1350" y="-700" on="1"/>
        <pt x="-1650" y="-700" on="1"/>
        <pt x="-1650" y="-357" on="1"/>
        <pt x="-1650" y="-100" on="0"/>
        <pt x="-1200" y="-100" on="1"/>
        <pt x="-750" y="-100" on="0"/>
        <pt x="-750" y="-357" on="1"/>
        <pt x="-750" y="-700" on="1"/>
      </contour>
    </TTGlyph>
    <TTGlyph name="glyph227" xMin="-1650" yMin="-700" xMax="-750" yMax="-100">
      <contour>
        <pt x="-1350" y="-308" on="1"/>
        <pt x="-1467" y="-308" on="1"/>
        <pt x="-1650" y="-308" on="0"/>
        <pt x="-1650" y="-274" on="1"/>
        <pt x="-1650" y="-236" on="1"/>
        <pt x="-1650" y="-100" on="0"/>
        <pt x="-1200" y="-100" on="1"/>
        <pt x="-750" y="-100" on="0"/>
        <pt x="-750" y="-236" on="1"/>
        <pt x="-750" y="-318" on="1"/>
        <pt x="-750" y="-387" on="0"/>
        <pt x="-1350" y="-455" on="0"/>
        <pt x="-1350" y="-522" on="1"/>
        <pt x="-1350" y="-533" on="1"/>
        <pt x="-1350" y="-600" on="0"/>
        <pt x="-1200" y="-600" on="1"/>
        <pt x="-1050" y="-600" on="0"/>
        <pt x="-1050" y="-533" on="1"/>
        <pt x="-1050" y="-491" on="1"/>
        <pt x="-750" y="-437" on="1"/>
        <pt x="-750" y="-563" on="1"/>
        <pt x="-750" y="-700" on="0"/>
        <pt x="-1200" y="-700" on="1"/>
        <pt x="-1650" y="-700" on="0"/>
        <pt x="-1650" y="-563" on="1"/>
        <pt x="-1650" y="-481" on="1"/>
        <pt x="-1650" y="-412" on="0"/>
        <pt x="-1050" y="-344" on="0"/>
        <pt x="-1050" y="-297" on="1"/>
        <pt x="-1050" y="-266" on="1"/>
        <pt x="-1050" y="-200" on="0"/>
        <pt x="-1200" y="-200" on="1"/>
        <pt x="-1350" y="-200" on="0"/>
        <pt x="-1350" y="-266" on="1"/>
      </contour>
    </TTGlyph>
    <TTGlyph name="glyph228" xMin="-1650" yMin="-700" xMax="-750" yMax="-100">
      <contour>
        <pt x="-1350" y="-481" on="1"/>
        <pt x="-1252" y="-375" on="1"/>
        <pt x="-1162" y="-464" on="1"/>
        <pt x="-1350" y="-688" on="1"/>
        <pt x="-1350" y="-700" on="1"/>
        <pt x="-1650" y="-700" on="1"/>
        <pt x="-1650" y="-357" on="1"/>
        <pt x="-1650" y="-100" on="0"/>
        <pt x="-1200" y="-100" on="1"/>
        <pt x="-750" y="-100" on="0"/>
        <pt x="-750" y="-357" on="1"/>
        <pt x="-750" y="-700" on="1"/>
        <pt x="-1050" y="-700" on="1"/>
        <pt x="-1050" y="-357" on="1"/>
        <pt x="-1050" y="-250" on="0"/>
        <pt x="-1200" y="-250" on="1"/>
        <pt x="-1350" y="-250" on="0"/>
        <pt x="-1350" y="-357" on="1"/>
      </contour>
    </TTGlyph>
    <TTGlyph name="glyph229" xMin="-1650" yMin="-700" xMax="-750" yMax="-100">
      <contour>
        <pt x="-1252" y="-700" on="1"/>
        <pt x="-1650" y="-700" on="0"/>
        <pt x="-1650" y="-450" on="1"/>
        <pt x="-1650" y="-400" on="1"/>
        <pt x="-1650" y="-200" on="0"/>
        <pt x="-1400" y="-200" on="1"/>
        <pt x="-1250" y="-200" on="1"/>
        <pt x="-1250" y="-350" on="1"/>
        <pt x="-1350" y="-350" on="0"/>
        <pt x="-1350" y="-450" on="1"/>
        <pt x="-1350" y="-550" on="0"/>
        <pt x="-1252" y="-550" on="1"/>
        <pt x="-1050" y="-550" on="0"/>
        <pt x="-1050" y="-100" on="1"/>
        <pt x="-750" y="-100" on="1"/>
        <pt x="-750" y="-700" on="0"/>
      </contour>
    </TTGlyph>
    <TTGlyph name="glyph230" xMin="-1700" yMin="-700" xMax="-650" yMax="-100">
      <contour>
        <pt x="-750" y="-700" on="1"/>
        <pt x="-1400" y="-700" on="1"/>
        <pt x="-1650" y="-700" on="0"/>
        <pt x="-1650" y="-550" on="1"/>
        <pt x="-1650" y="-300" on="1"/>
        <pt x="-1650" y="-250" on="0"/>
        <pt x="-1700" y="-250" on="1"/>
        <pt x="-1700" y="-100" on="1"/>
        <pt x="-1500" y="-100" on="1"/>
        <pt x="-1350" y="-100" on="0"/>
        <pt x="-1350" y="-200" on="1"/>
        <pt x="-1350" y="-450" on="1"/>
        <pt x="-1350" y="-550" on="0"/>
        <pt x="-1200" y="-550" on="1"/>
        <pt x="-1050" y="-550" on="0"/>
        <pt x="-1050" y="-450" on="1"/>
        <pt x="-1050" y="-350" on="1"/>
        <pt x="-1150" y="-350" on="1"/>
        <pt x="-1150" y="-100" on="1"/>
        <pt x="-750" y="-100" on="1"/>
        <pt x="-750" y="-250" on="1"/>
        <pt x="-650" y="-250" on="1"/>
        <pt x="-650" y="-350" on="1"/>
        <pt x="-750" y="-350" on="1"/>
      </contour>
    </TTGlyph>
    <TTGlyph name="glyph231" xMin="-1650" yMin="-700" xMax="-750" yMax="-100">
      <contour>
        <pt x="-1050" y="-479" on="1"/>
        <pt x="-1050" y="-300" on="1"/>
        <pt x="-1200" y="-300" on="0"/>
        <pt x="-1200" y="-200" on="1"/>
        <pt x="-1200" y="-100" on="0"/>
        <pt x="-1050" y="-100" on="1"/>
        <pt x="-933" y="-100" on="1"/>
        <pt x="-750" y="-100" on="0"/>
        <pt x="-750" y="-250" on="1"/>
        <pt x="-750" y="-570" on="1"/>
        <pt x="-750" y="-700" on="0"/>
        <pt x="-900" y="-700" on="1"/>
        <pt x="-1050" y="-700" on="1"/>
        <pt x="-1050" y="-643" on="0"/>
        <pt x="-1204" y="-540" on="0"/>
        <pt x="-1300" y="-540" on="1"/>
        <pt x="-1350" y="-540" on="1"/>
        <pt x="-1350" y="-700" on="0"/>
        <pt x="-1500" y="-700" on="1"/>
        <pt x="-1650" y="-700" on="0"/>
        <pt x="-1650" y="-560" on="1"/>
        <pt x="-1650" y="-394" on="0"/>
        <pt x="-1517" y="-391" on="1"/>
        <pt x="-1650" y="-340" on="1"/>
        <pt x="-1650" y="-100" on="1"/>
        <pt x="-1350" y="-100" on="1"/>
        <pt x="-1350" y="-390" on="1"/>
        <pt x="-1300" y="-390" on="1"/>
        <pt x="-1153" y="-390" on="0"/>
      </contour>
    </TTGlyph>
    <TTGlyph name="glyph232" xMin="-1650" yMin="-700" xMax="-650" yMax="-100">
      <contour>
        <pt x="-750" y="-600" on="1"/>
        <pt x="-750" y="-700" on="0"/>
        <pt x="-897" y="-700" on="1"/>
        <pt x="-1050" y="-700" on="1"/>
        <pt x="-1200" y="-554" on="1"/>
        <pt x="-1350" y="-700" on="1"/>
        <pt x="-1503" y="-700" on="1"/>
        <pt x="-1650" y="-700" on="0"/>
        <pt x="-1650" y="-600" on="1"/>
        <pt x="-1650" y="-100" on="1"/>
        <pt x="-1350" y="-100" on="1"/>
        <pt x="-1350" y="-477" on="1"/>
        <pt x="-1200" y="-331" on="1"/>
        <pt x="-1050" y="-477" on="1"/>
        <pt x="-1050" y="-300" on="1"/>
        <pt x="-1150" y="-300" on="1"/>
        <pt x="-1150" y="-200" on="1"/>
        <pt x="-1050" y="-200" on="1"/>
        <pt x="-1050" y="-100" on="1"/>
        <pt x="-750" y="-100" on="1"/>
        <pt x="-750" y="-200" on="1"/>
        <pt x="-650" y="-200" on="1"/>
        <pt x="-650" y="-300" on="1"/>
        <pt x="-750" y="-300" on="1"/>
      </contour>
    </TTGlyph>
    <TTGlyph name="glyph233" xMin="-1650" yMin="-650" xMax="-750" yMax="-150">
      <contour>
        <pt x="-1650" y="-200" on="1"/>
        <pt x="-1576" y="-200" on="1"/>
        <pt x="-1391" y="-200" on="0"/>
        <pt x="-1273" y="-335" on="1"/>
        <pt x="-1155" y="-470" on="0"/>
        <pt x="-1077" y="-470" on="1"/>
        <pt x="-1000" y="-470" on="0"/>
        <pt x="-1000" y="-350" on="1"/>
        <pt x="-1100" y="-350" on="1"/>
        <pt x="-1100" y="-150" on="1"/>
        <pt x="-911" y="-150" on="1"/>
        <pt x="-750" y="-150" on="0"/>
        <pt x="-750" y="-350" on="1"/>
        <pt x="-750" y="-650" on="0"/>
        <pt x="-1029" y="-650" on="1"/>
        <pt x="-1197" y="-650" on="0"/>
        <pt x="-1317" y="-550" on="1"/>
        <pt x="-1437" y="-450" on="0"/>
        <pt x="-1536" y="-450" on="1"/>
        <pt x="-1650" y="-450" on="1"/>
      </contour>
    </TTGlyph>
    <TTGlyph name="glyph234" xMin="-1650" yMin="-700" xMax="-750" yMax="-100">
      <contour>
        <pt x="-1050" y="-700" on="1"/>
        <pt x="-1050" y="-357" on="1"/>
        <pt x="-1050" y="-250" on="0"/>
        <pt x="-1200" y="-250" on="1"/>
        <pt x="-1350" y="-250" on="0"/>
        <pt x="-1350" y="-357" on="1"/>
        <pt x="-1350" y="-450" on="1"/>
        <pt x="-1200" y="-450" on="0"/>
        <pt x="-1200" y="-575" on="1"/>
        <pt x="-1200" y="-700" on="0"/>
        <pt x="-1350" y="-700" on="1"/>
        <pt x="-1500" y="-700" on="1"/>
        <pt x="-1650" y="-700" on="0"/>
        <pt x="-1650" y="-614" on="1"/>
        <pt x="-1650" y="-357" on="1"/>
        <pt x="-1650" y="-100" on="0"/>
        <pt x="-1200" y="-100" on="1"/>
        <pt x="-750" y="-100" on="0"/>
        <pt x="-750" y="-357" on="1"/>
        <pt x="-750" y="-700" on="1"/>
      </contour>
    </TTGlyph>
    <TTGlyph name="glyph235" xMin="-1650" yMin="-670" xMax="-650" yMax="-70">
      <contour>
        <pt x="-1650" y="-170" on="1"/>
        <pt x="-1050" y="-170" on="1"/>
        <pt x="-1050" y="-70" on="1"/>
        <pt x="-750" y="-70" on="1"/>
        <pt x="-750" y="-170" on="1"/>
        <pt x="-650" y="-170" on="1"/>
        <pt x="-650" y="-320" on="1"/>
        <pt x="-750" y="-320" on="1"/>
        <pt x="-750" y="-570" on="1"/>
        <pt x="-750" y="-670" on="0"/>
        <pt x="-900" y="-670" on="1"/>
        <pt x="-1050" y="-670" on="1"/>
        <pt x="-1200" y="-550" on="1"/>
        <pt x="-1350" y="-670" on="1"/>
        <pt x="-1500" y="-670" on="1"/>
        <pt x="-1650" y="-670" on="0"/>
        <pt x="-1650" y="-570" on="1"/>
      </contour>
      <contour>
        <pt x="-1050" y="-470" on="1"/>
        <pt x="-1050" y="-320" on="1"/>
        <pt x="-1350" y="-320" on="1"/>
        <pt x="-1350" y="-470" on="1"/>
        <pt x="-1200" y="-370" on="1"/>
      </contour>
    </TTGlyph>
    <TTGlyph name="glyph236" xMin="-1650" yMin="-700" xMax="-750" yMax="-100">
      <contour>
        <pt x="-750" y="-318" on="1"/>
        <pt x="-750" y="-387" on="0"/>
        <pt x="-1350" y="-455" on="0"/>
        <pt x="-1350" y="-522" on="1"/>
        <pt x="-1350" y="-563" on="1"/>
        <pt x="-1350" y="-600" on="0"/>
        <pt x="-1270" y="-600" on="1"/>
        <pt x="-1210" y="-600" on="0"/>
        <pt x="-1050" y="-533" on="1"/>
        <pt x="-1050" y="-450" on="1"/>
        <pt x="-750" y="-450" on="1"/>
        <pt x="-750" y="-700" on="1"/>
        <pt x="-1050" y="-700" on="1"/>
        <pt x="-1050" y="-620" on="1"/>
        <pt x="-1195" y="-700" on="0"/>
        <pt x="-1270" y="-700" on="1"/>
        <pt x="-1400" y="-700" on="1"/>
        <pt x="-1650" y="-700" on="0"/>
        <pt x="-1650" y="-563" on="1"/>
        <pt x="-1650" y="-481" on="1"/>
        <pt x="-1650" y="-412" on="0"/>
        <pt x="-1050" y="-344" on="0"/>
        <pt x="-1050" y="-297" on="1"/>
        <pt x="-1050" y="-269" on="1"/>
        <pt x="-1050" y="-240" on="0"/>
        <pt x="-1077" y="-240" on="1"/>
        <pt x="-1145" y="-240" on="0"/>
        <pt x="-1200" y="-306" on="1"/>
        <pt x="-1255" y="-240" on="0"/>
        <pt x="-1322" y="-240" on="1"/>
        <pt x="-1350" y="-240" on="0"/>
        <pt x="-1350" y="-269" on="1"/>
        <pt x="-1350" y="-328" on="1"/>
        <pt x="-1517" y="-328" on="1"/>
        <pt x="-1650" y="-328" on="0"/>
        <pt x="-1650" y="-274" on="1"/>
        <pt x="-1650" y="-229" on="1"/>
        <pt x="-1650" y="-100" on="0"/>
        <pt x="-1500" y="-100" on="1"/>
        <pt x="-1365" y="-100" on="1"/>
        <pt x="-1270" y="-100" on="0"/>
        <pt x="-1200" y="-188" on="1"/>
        <pt x="-1130" y="-100" on="0"/>
        <pt x="-1035" y="-100" on="1"/>
        <pt x="-900" y="-100" on="1"/>
        <pt x="-750" y="-100" on="0"/>
        <pt x="-750" y="-229" on="1"/>
      </contour>
    </TTGlyph>
    <TTGlyph name="glyph237" xMin="-1650" yMin="-700" xMax="-750" yMax="-100">
      <contour>
        <pt x="-1050" y="-700" on="1"/>
        <pt x="-1050" y="-357" on="1"/>
        <pt x="-1050" y="-250" on="0"/>
        <pt x="-1200" y="-250" on="1"/>
        <pt x="-1350" y="-250" on="0"/>
        <pt x="-1350" y="-357" on="1"/>
        <pt x="-1350" y="-450" on="1"/>
        <pt x="-1200" y="-450" on="0"/>
        <pt x="-1200" y="-575" on="1"/>
        <pt x="-1200" y="-700" on="0"/>
        <pt x="-1350" y="-700" on="1"/>
        <pt x="-1500" y="-700" on="1"/>
        <pt x="-1650" y="-700" on="0"/>
        <pt x="-1650" y="-614" on="1"/>
        <pt x="-1650" y="-357" on="1"/>
        <pt x="-1650" y="-100" on="0"/>
        <pt x="-1200" y="-100" on="1"/>
        <pt x="-750" y="-100" on="0"/>
        <pt x="-750" y="-357" on="1"/>
        <pt x="-750" y="-700" on="1"/>
      </contour>
    </TTGlyph>
    <TTGlyph name="glyph238" xMin="-1650" yMin="-650" xMax="-700" yMax="-100">
      <contour>
        <pt x="-700" y="-650" on="1"/>
        <pt x="-814" y="-650" on="1"/>
        <pt x="-999" y="-650" on="0"/>
        <pt x="-1183" y="-350" on="1"/>
        <pt x="-1245" y="-250" on="0"/>
        <pt x="-1322" y="-250" on="1"/>
        <pt x="-1400" y="-250" on="0"/>
        <pt x="-1400" y="-350" on="1"/>
        <pt x="-1400" y="-400" on="1"/>
        <pt x="-1300" y="-400" on="1"/>
        <pt x="-1300" y="-600" on="1"/>
        <pt x="-1489" y="-600" on="1"/>
        <pt x="-1650" y="-600" on="0"/>
        <pt x="-1650" y="-400" on="1"/>
        <pt x="-1650" y="-300" on="1"/>
        <pt x="-1650" y="-100" on="0"/>
        <pt x="-1389" y="-100" on="1"/>
        <pt x="-1311" y="-100" on="1"/>
        <pt x="-1163" y="-100" on="0"/>
        <pt x="-1038" y="-225" on="1"/>
        <pt x="-913" y="-350" on="0"/>
        <pt x="-814" y="-350" on="1"/>
        <pt x="-700" y="-350" on="1"/>
      </contour>
    </TTGlyph>
    <TTGlyph name="glyph239" xMin="-1650" yMin="-700" xMax="-750" yMax="-100">
      <contour>
        <pt x="-1050" y="-263" on="0"/>
        <pt x="-1050" y="-200" on="1"/>
        <pt x="-1163" y="-200" on="1"/>
        <pt x="-1163" y="-100" on="1"/>
        <pt x="-750" y="-100" on="1"/>
        <pt x="-750" y="-219" on="1"/>
        <pt x="-750" y="-338" on="0"/>
        <pt x="-980" y="-366" on="1"/>
        <pt x="-1350" y="-394" on="1"/>
        <pt x="-1350" y="-514" on="1"/>
        <pt x="-750" y="-427" on="1"/>
        <pt x="-750" y="-590" on="1"/>
        <pt x="-750" y="-700" on="0"/>
        <pt x="-896" y="-700" on="1"/>
        <pt x="-1156" y="-700" on="1"/>
        <pt x="-1090" y="-645" on="1"/>
        <pt x="-1090" y="-590" on="1"/>
        <pt x="-1311" y="-645" on="1"/>
        <pt x="-1650" y="-645" on="1"/>
        <pt x="-1650" y="-318" on="1"/>
        <pt x="-1225" y="-277" on="1"/>
      </contour>
    </TTGlyph>
    <TTGlyph name="glyph240" xMin="-1650" yMin="-700" xMax="-750" yMax="-100">
      <contour>
        <pt x="-1020" y="-100" on="1"/>
        <pt x="-750" y="-100" on="1"/>
        <pt x="-750" y="-400" on="1"/>
        <pt x="-750" y="-476" on="0"/>
        <pt x="-869" y="-552" on="0"/>
        <pt x="-1034" y="-552" on="1"/>
        <pt x="-1144" y="-518" on="1"/>
        <pt x="-1144" y="-580" on="0"/>
        <pt x="-1200" y="-640" on="1"/>
        <pt x="-1254" y="-700" on="0"/>
        <pt x="-1364" y="-700" on="1"/>
        <pt x="-1650" y="-700" on="1"/>
        <pt x="-1650" y="-326" on="1"/>
        <pt x="-1364" y="-258" on="0"/>
        <pt x="-1020" y="-145" on="0"/>
      </contour>
      <contour>
        <pt x="-1180" y="-372" on="1"/>
        <pt x="-1020" y="-409" on="1"/>
        <pt x="-1020" y="-280" on="1"/>
      </contour>
      <contour>
        <pt x="-1364" y="-475" on="1"/>
        <pt x="-1364" y="-580" on="1"/>
        <pt x="-1309" y="-580" on="0"/>
        <pt x="-1281" y="-550" on="1"/>
        <pt x="-1254" y="-521" on="0"/>
        <pt x="-1254" y="-462" on="1"/>
        <pt x="-1254" y="-427" on="1"/>
      </contour>
    </TTGlyph>
    <TTGlyph name="glyph241" xMin="-1600" yMin="-700" xMax="-650" yMax="-100">
      <contour>
        <pt x="-1600" y="-600" on="0"/>
        <pt x="-1600" y="-500" on="1"/>
        <pt x="-1600" y="-300" on="1"/>
        <pt x="-1600" y="-200" on="0"/>
        <pt x="-1450" y="-200" on="1"/>
        <pt x="-1050" y="-200" on="1"/>
        <pt x="-1050" y="-100" on="1"/>
        <pt x="-750" y="-100" on="1"/>
        <pt x="-750" y="-200" on="1"/>
        <pt x="-650" y="-200" on="1"/>
        <pt x="-650" y="-350" on="1"/>
        <pt x="-750" y="-350" on="1"/>
        <pt x="-750" y="-450" on="1"/>
        <pt x="-650" y="-450" on="0"/>
        <pt x="-650" y="-575" on="1"/>
        <pt x="-650" y="-700" on="0"/>
        <pt x="-875" y="-700" on="1"/>
        <pt x="-1050" y="-700" on="0"/>
        <pt x="-1050" y="-600" on="1"/>
        <pt x="-1450" y="-600" on="1"/>
      </contour>
      <contour>
        <pt x="-1300" y="-450" on="1"/>
        <pt x="-1050" y="-450" on="1"/>
        <pt x="-1050" y="-350" on="1"/>
        <pt x="-1300" y="-350" on="1"/>
      </contour>
    </TTGlyph>
    <TTGlyph name="glyph242" xMin="-1650" yMin="-700" xMax="-750" yMax="-100">
      <contour>
        <pt x="-750" y="-600" on="1"/>
        <pt x="-750" y="-700" on="0"/>
        <pt x="-897" y="-700" on="1"/>
        <pt x="-1050" y="-700" on="1"/>
        <pt x="-1200" y="-554" on="1"/>
        <pt x="-1350" y="-700" on="1"/>
        <pt x="-1503" y="-700" on="1"/>
        <pt x="-1650" y="-700" on="0"/>
        <pt x="-1650" y="-600" on="1"/>
        <pt x="-1650" y="-100" on="1"/>
        <pt x="-1350" y="-100" on="1"/>
        <pt x="-1350" y="-477" on="1"/>
        <pt x="-1200" y="-331" on="1"/>
        <pt x="-1050" y="-477" on="1"/>
        <pt x="-1050" y="-300" on="1"/>
        <pt x="-1150" y="-300" on="0"/>
        <pt x="-1150" y="-200" on="1"/>
        <pt x="-1150" y="-100" on="0"/>
        <pt x="-1050" y="-100" on="1"/>
        <pt x="-900" y="-100" on="1"/>
        <pt x="-750" y="-100" on="0"/>
        <pt x="-750" y="-200" on="1"/>
      </contour>
    </TTGlyph>
    <TTGlyph name="glyph243" xMin="-1650" yMin="-700" xMax="-750" yMax="-100">
      <contour>
        <pt x="-750" y="-700" on="1"/>
        <pt x="-1050" y="-700" on="1"/>
        <pt x="-1050" y="-295" on="1"/>
        <pt x="-1200" y="-392" on="1"/>
        <pt x="-1350" y="-295" on="1"/>
        <pt x="-1350" y="-500" on="1"/>
        <pt x="-1200" y="-500" on="0"/>
        <pt x="-1200" y="-566" on="1"/>
        <pt x="-1200" y="-633" on="1"/>
        <pt x="-1200" y="-700" on="0"/>
        <pt x="-1350" y="-700" on="1"/>
        <pt x="-1500" y="-700" on="1"/>
        <pt x="-1650" y="-700" on="0"/>
        <pt x="-1650" y="-633" on="1"/>
        <pt x="-1650" y="-166" on="1"/>
        <pt x="-1650" y="-100" on="0"/>
        <pt x="-1503" y="-100" on="1"/>
        <pt x="-1350" y="-100" on="1"/>
        <pt x="-1200" y="-197" on="1"/>
        <pt x="-1050" y="-100" on="1"/>
        <pt x="-897" y="-100" on="1"/>
        <pt x="-750" y="-100" on="0"/>
        <pt x="-750" y="-166" on="1"/>
      </contour>
    </TTGlyph>
    <TTGlyph name="glyph244" xMin="-1750" yMin="-700" xMax="-750" yMax="-100">
      <contour>
        <pt x="-1350" y="-614" on="1"/>
        <pt x="-1350" y="-700" on="0"/>
        <pt x="-1500" y="-700" on="1"/>
        <pt x="-1650" y="-700" on="1"/>
        <pt x="-1750" y="-700" on="0"/>
        <pt x="-1750" y="-575" on="1"/>
        <pt x="-1750" y="-450" on="0"/>
        <pt x="-1650" y="-450" on="1"/>
        <pt x="-1650" y="-357" on="1"/>
        <pt x="-1650" y="-100" on="0"/>
        <pt x="-1200" y="-100" on="1"/>
        <pt x="-750" y="-100" on="0"/>
        <pt x="-750" y="-357" on="1"/>
        <pt x="-750" y="-700" on="1"/>
        <pt x="-1050" y="-700" on="1"/>
        <pt x="-1050" y="-357" on="1"/>
        <pt x="-1050" y="-250" on="0"/>
        <pt x="-1200" y="-250" on="1"/>
        <pt x="-1350" y="-250" on="0"/>
        <pt x="-1350" y="-357" on="1"/>
      </contour>
    </TTGlyph>
    <TTGlyph name="glyph245" xMin="-1700" yMin="-700" xMax="-700" yMax="-50">
      <contour>
        <pt x="-1050" y="-300" on="1"/>
        <pt x="-1050" y="-50" on="1"/>
        <pt x="-750" y="-50" on="1"/>
        <pt x="-750" y="-238" on="1"/>
        <pt x="-873" y="-301" on="1"/>
        <pt x="-836" y="-306" on="0"/>
        <pt x="-801" y="-325" on="1"/>
        <pt x="-754" y="-351" on="0"/>
        <pt x="-700" y="-447" on="0"/>
        <pt x="-700" y="-500" on="1"/>
        <pt x="-700" y="-700" on="0"/>
        <pt x="-868" y="-700" on="1"/>
        <pt x="-1036" y="-700" on="0"/>
        <pt x="-1043" y="-549" on="1"/>
        <pt x="-1700" y="-550" on="1"/>
        <pt x="-1700" y="-300" on="1"/>
      </contour>
    </TTGlyph>
    <TTGlyph name="glyph246" xMin="-1650" yMin="-650" xMax="-750" yMax="-150">
      <contour>
        <pt x="-1050" y="-650" on="1"/>
        <pt x="-1350" y="-400" on="1"/>
        <pt x="-1350" y="-650" on="1"/>
        <pt x="-1650" y="-650" on="1"/>
        <pt x="-1650" y="-150" on="1"/>
        <pt x="-1350" y="-150" on="1"/>
        <pt x="-1050" y="-399" on="1"/>
        <pt x="-1050" y="-150" on="1"/>
        <pt x="-750" y="-150" on="1"/>
        <pt x="-750" y="-650" on="1"/>
      </contour>
    </TTGlyph>
    <TTGlyph name="glyph247" xMin="-1650" yMin="-700" xMax="-750" yMax="-100">
      <contour>
        <pt x="-1261" y="-700" on="1"/>
        <pt x="-1505" y="-700" on="0"/>
        <pt x="-1650" y="-570" on="0"/>
        <pt x="-1650" y="-451" on="1"/>
        <pt x="-1650" y="-350" on="1"/>
        <pt x="-1536" y="-324" on="0"/>
        <pt x="-1352" y="-262" on="1"/>
        <pt x="-1169" y="-199" on="0"/>
        <pt x="-1050" y="-100" on="1"/>
        <pt x="-750" y="-100" on="1"/>
        <pt x="-750" y="-201" on="1"/>
        <pt x="-750" y="-448" on="0"/>
        <pt x="-1052" y="-700" on="0"/>
      </contour>
      <contour>
        <pt x="-1350" y="-447" on="1"/>
        <pt x="-1350" y="-497" on="0"/>
        <pt x="-1322" y="-524" on="1"/>
        <pt x="-1295" y="-549" on="0"/>
        <pt x="-1240" y="-549" on="1"/>
        <pt x="-1129" y="-549" on="0"/>
        <pt x="-1089" y="-483" on="1"/>
        <pt x="-1050" y="-417" on="0"/>
        <pt x="-1050" y="-276" on="1"/>
        <pt x="-1102" y="-338" on="0"/>
        <pt x="-1185" y="-381" on="1"/>
        <pt x="-1267" y="-423" on="0"/>
      </contour>
    </TTGlyph>
    <TTGlyph name="glyph248" xMin="-1650" yMin="-650" xMax="-750" yMax="-150">
      <contour>
        <pt x="-1400" y="-500" on="1"/>
        <pt x="-1290" y="-500" on="1"/>
        <pt x="-1290" y="-150" on="1"/>
        <pt x="-915" y="-150" on="1"/>
        <pt x="-832" y="-150" on="0"/>
        <pt x="-791" y="-188" on="1"/>
        <pt x="-750" y="-225" on="0"/>
        <pt x="-750" y="-275" on="1"/>
        <pt x="-750" y="-650" on="1"/>
        <pt x="-1000" y="-650" on="1"/>
        <pt x="-1000" y="-300" on="1"/>
        <pt x="-1110" y="-300" on="1"/>
        <pt x="-1110" y="-650" on="1"/>
        <pt x="-1485" y="-650" on="1"/>
        <pt x="-1567" y="-650" on="0"/>
        <pt x="-1608" y="-612" on="1"/>
        <pt x="-1650" y="-575" on="0"/>
        <pt x="-1650" y="-525" on="1"/>
        <pt x="-1650" y="-150" on="1"/>
        <pt x="-1400" y="-150" on="1"/>
      </contour>
    </TTGlyph>
    <TTGlyph name="glyph249" xMin="-1750" yMin="-700" xMax="-750" yMax="-100">
      <contour>
        <pt x="-1350" y="-100" on="1"/>
        <pt x="-1350" y="-550" on="1"/>
        <pt x="-1350" y="-700" on="0"/>
        <pt x="-1550" y="-700" on="1"/>
        <pt x="-1750" y="-700" on="1"/>
        <pt x="-1750" y="-550" on="1"/>
        <pt x="-1650" y="-550" on="0"/>
        <pt x="-1650" y="-475" on="1"/>
        <pt x="-1650" y="-100" on="1"/>
      </contour>
      <contour>
        <pt x="-1050" y="-250" on="1"/>
        <pt x="-1050" y="-100" on="1"/>
        <pt x="-750" y="-100" on="1"/>
        <pt x="-750" y="-550" on="1"/>
        <pt x="-750" y="-700" on="0"/>
        <pt x="-950" y="-700" on="1"/>
        <pt x="-1150" y="-700" on="1"/>
        <pt x="-1150" y="-550" on="1"/>
        <pt x="-1050" y="-550" on="0"/>
        <pt x="-1050" y="-475" on="1"/>
        <pt x="-1050" y="-400" on="1"/>
        <pt x="-1300" y="-400" on="1"/>
        <pt x="-1300" y="-250" on="1"/>
      </contour>
    </TTGlyph>
    <TTGlyph name="glyph250" xMin="-1475" yMin="1650" xMax="-925" yMax="2250">
      <contour>
        <pt x="-1475" y="1650" on="1"/>
        <pt x="-1475" y="2250" on="1"/>
        <pt x="-1275" y="2250" on="1"/>
        <pt x="-1275" y="1650" on="1"/>
      </contour>
      <contour>
        <pt x="-1125" y="1650" on="1"/>
        <pt x="-1125" y="2250" on="1"/>
        <pt x="-925" y="2250" on="1"/>
        <pt x="-925" y="1650" on="1"/>
      </contour>
    </TTGlyph>
    <TTGlyph name="glyph251" xMin="-1650" yMin="1600" xMax="-750" yMax="1850">
      <contour>
        <pt x="-1650" y="1600" on="1"/>
        <pt x="-1650" y="1850" on="1"/>
        <pt x="-1270" y="1850" on="1"/>
        <pt x="-1200" y="1800" on="1"/>
        <pt x="-1130" y="1850" on="1"/>
        <pt x="-750" y="1850" on="1"/>
        <pt x="-750" y="1600" on="1"/>
      </contour>
    </TTGlyph>
    <TTGlyph name="glyph252" xMin="-1600" yMin="1650" xMax="-800" yMax="2100">
      <contour>
        <pt x="-1272" y="1787" on="1"/>
        <pt x="-1181" y="1798" on="0"/>
        <pt x="-1108" y="1798" on="1"/>
        <pt x="-838" y="1798" on="0"/>
        <pt x="-800" y="1650" on="1"/>
        <pt x="-1076" y="1650" on="1"/>
        <pt x="-1076" y="1687" on="0"/>
        <pt x="-1156" y="1687" on="1"/>
        <pt x="-1216" y="1687" on="0"/>
        <pt x="-1319" y="1667" on="1"/>
        <pt x="-1324" y="1665" on="0"/>
        <pt x="-1324" y="1650" on="1"/>
        <pt x="-1600" y="1650" on="1"/>
        <pt x="-1600" y="1950" on="1"/>
        <pt x="-1212" y="1950" on="1"/>
        <pt x="-1075" y="1950" on="0"/>
        <pt x="-1075" y="2100" on="1"/>
        <pt x="-800" y="2100" on="1"/>
        <pt x="-800" y="1950" on="1"/>
        <pt x="-800" y="1850" on="0"/>
        <pt x="-1050" y="1850" on="1"/>
        <pt x="-1204" y="1850" on="0"/>
      </contour>
    </TTGlyph>
    <TTGlyph name="glyph253" xMin="-1500" yMin="1650" xMax="-900" yMax="2250">
      <contour>
        <pt x="-1100" y="2050" on="1"/>
        <pt x="-900" y="2050" on="1"/>
        <pt x="-900" y="1850" on="1"/>
        <pt x="-1100" y="1850" on="1"/>
        <pt x="-1100" y="1650" on="1"/>
        <pt x="-1300" y="1650" on="1"/>
        <pt x="-1300" y="1850" on="1"/>
        <pt x="-1500" y="1850" on="1"/>
        <pt x="-1500" y="2050" on="1"/>
        <pt x="-1300" y="2050" on="1"/>
        <pt x="-1300" y="2250" on="1"/>
        <pt x="-1100" y="2250" on="1"/>
      </contour>
    </TTGlyph>
    <TTGlyph name="glyph254" xMin="150" yMin="0" xMax="1650" yMax="1500">
      <contour>
        <pt x="750" y="1250" on="1"/>
        <pt x="750" y="1500" on="1"/>
        <pt x="1650" y="1500" on="1"/>
        <pt x="1650" y="1250" on="1"/>
      </contour>
      <contour>
        <pt x="1350" y="0" on="1"/>
        <pt x="1350" y="800" on="1"/>
        <pt x="1350" y="900" on="0"/>
        <pt x="1200" y="900" on="1"/>
        <pt x="1050" y="900" on="0"/>
        <pt x="1050" y="800" on="1"/>
        <pt x="1050" y="0" on="1"/>
        <pt x="750" y="0" on="1"/>
        <pt x="750" y="800" on="1"/>
        <pt x="750" y="1100" on="0"/>
        <pt x="1200" y="1100" on="1"/>
        <pt x="1650" y="1100" on="0"/>
        <pt x="1650" y="800" on="1"/>
        <pt x="1650" y="0" on="1"/>
      </contour>
      <contour>
        <pt x="450" y="1500" on="1"/>
        <pt x="450" y="300" on="1"/>
        <pt x="450" y="200" on="0"/>
        <pt x="550" y="200" on="1"/>
        <pt x="550" y="0" on="1"/>
        <pt x="350" y="0" on="1"/>
        <pt x="150" y="0" on="0"/>
        <pt x="150" y="200" on="1"/>
        <pt x="150" y="1500" on="1"/>
      </contour>
    </TTGlyph>
    <TTGlyph name="glyph255" xMin="150" yMin="0" xMax="1650" yMax="1500">
      <contour>
        <pt x="1350" y="873" on="0"/>
        <pt x="1350" y="1050" on="1"/>
        <pt x="1350" y="1200" on="1"/>
        <pt x="1350" y="1300" on="0"/>
        <pt x="1200" y="1300" on="1"/>
        <pt x="1050" y="1300" on="0"/>
        <pt x="1050" y="1200" on="1"/>
        <pt x="1050" y="1100" on="1"/>
        <pt x="1100" y="1100" on="1"/>
        <pt x="1100" y="900" on="1"/>
        <pt x="900" y="900" on="1"/>
        <pt x="750" y="900" on="0"/>
        <pt x="750" y="1000" on="1"/>
        <pt x="750" y="1200" on="1"/>
        <pt x="750" y="1500" on="0"/>
        <pt x="1200" y="1500" on="1"/>
        <pt x="1650" y="1500" on="0"/>
        <pt x="1650" y="1200" on="1"/>
        <pt x="1650" y="1050" on="1"/>
        <pt x="1650" y="763" on="0"/>
        <pt x="1125" y="585" on="1"/>
        <pt x="1050" y="559" on="1"/>
        <pt x="1050" y="300" on="1"/>
        <pt x="1050" y="200" on="0"/>
        <pt x="1200" y="200" on="1"/>
        <pt x="1350" y="200" on="0"/>
        <pt x="1350" y="300" on="1"/>
        <pt x="1350" y="600" on="1"/>
        <pt x="1650" y="600" on="1"/>
        <pt x="1650" y="300" on="1"/>
        <pt x="1650" y="0" on="0"/>
        <pt x="1200" y="0" on="1"/>
        <pt x="750" y="0" on="0"/>
        <pt x="750" y="300" on="1"/>
        <pt x="750" y="669" on="1"/>
        <pt x="1050" y="771" on="1"/>
      </contour>
      <contour>
        <pt x="450" y="1500" on="1"/>
        <pt x="450" y="300" on="1"/>
        <pt x="450" y="200" on="0"/>
        <pt x="550" y="200" on="1"/>
        <pt x="550" y="0" on="1"/>
        <pt x="350" y="0" on="1"/>
        <pt x="150" y="0" on="0"/>
        <pt x="150" y="200" on="1"/>
        <pt x="150" y="1500" on="1"/>
      </contour>
    </TTGlyph>
    <TTGlyph name="glyph256" xMin="150" yMin="0" xMax="1650" yMax="1500">
      <contour>
        <pt x="750" y="1250" on="1"/>
        <pt x="750" y="1500" on="1"/>
        <pt x="1650" y="1500" on="1"/>
        <pt x="1650" y="1250" on="1"/>
      </contour>
      <contour>
        <pt x="1050" y="27" on="1"/>
        <pt x="1050" y="0" on="1"/>
        <pt x="750" y="0" on="1"/>
        <pt x="750" y="800" on="1"/>
        <pt x="750" y="1100" on="0"/>
        <pt x="1200" y="1100" on="1"/>
        <pt x="1650" y="1100" on="0"/>
        <pt x="1650" y="800" on="1"/>
        <pt x="1650" y="0" on="1"/>
        <pt x="1350" y="0" on="1"/>
        <pt x="1350" y="800" on="1"/>
        <pt x="1350" y="900" on="0"/>
        <pt x="1200" y="900" on="1"/>
        <pt x="1050" y="900" on="0"/>
        <pt x="1050" y="800" on="1"/>
        <pt x="1050" y="343" on="1"/>
        <pt x="1149" y="526" on="1"/>
        <pt x="1281" y="454" on="1"/>
      </contour>
      <contour>
        <pt x="450" y="1500" on="1"/>
        <pt x="450" y="300" on="1"/>
        <pt x="450" y="200" on="0"/>
        <pt x="550" y="200" on="1"/>
        <pt x="550" y="0" on="1"/>
        <pt x="350" y="0" on="1"/>
        <pt x="150" y="0" on="0"/>
        <pt x="150" y="200" on="1"/>
        <pt x="150" y="1500" on="1"/>
      </contour>
    </TTGlyph>
    <TTGlyph name="glyph257" xMin="150" yMin="0" xMax="2250" yMax="1500">
      <contour>
        <pt x="1050" y="300" on="1"/>
        <pt x="1050" y="200" on="0"/>
        <pt x="1200" y="200" on="1"/>
        <pt x="1350" y="200" on="0"/>
        <pt x="1350" y="300" on="1"/>
        <pt x="1350" y="1500" on="1"/>
        <pt x="1650" y="1500" on="1"/>
        <pt x="1650" y="300" on="1"/>
        <pt x="1650" y="200" on="0"/>
        <pt x="1800" y="200" on="1"/>
        <pt x="1950" y="200" on="0"/>
        <pt x="1950" y="300" on="1"/>
        <pt x="1950" y="1500" on="1"/>
        <pt x="2250" y="1500" on="1"/>
        <pt x="2250" y="300" on="1"/>
        <pt x="2250" y="0" on="0"/>
        <pt x="1800" y="0" on="1"/>
        <pt x="1610" y="0" on="0"/>
        <pt x="1500" y="54" on="1"/>
        <pt x="1390" y="0" on="0"/>
        <pt x="1200" y="0" on="1"/>
        <pt x="750" y="0" on="0"/>
        <pt x="750" y="300" on="1"/>
        <pt x="750" y="1200" on="1"/>
        <pt x="750" y="1300" on="0"/>
        <pt x="650" y="1300" on="1"/>
        <pt x="650" y="1500" on="1"/>
        <pt x="850" y="1500" on="1"/>
        <pt x="1050" y="1500" on="0"/>
        <pt x="1050" y="1300" on="1"/>
      </contour>
      <contour>
        <pt x="450" y="1500" on="1"/>
        <pt x="450" y="300" on="1"/>
        <pt x="450" y="200" on="0"/>
        <pt x="550" y="200" on="1"/>
        <pt x="550" y="0" on="1"/>
        <pt x="350" y="0" on="1"/>
        <pt x="150" y="0" on="0"/>
        <pt x="150" y="200" on="1"/>
        <pt x="150" y="1500" on="1"/>
      </contour>
    </TTGlyph>
    <TTGlyph name="glyph258" xMin="150" yMin="0" xMax="1650" yMax="1600">
      <contour>
        <pt x="1030" y="1100" on="1"/>
        <pt x="750" y="1100" on="0"/>
        <pt x="750" y="1400" on="1"/>
        <pt x="750" y="1600" on="1"/>
        <pt x="1050" y="1600" on="1"/>
        <pt x="1050" y="1400" on="1"/>
        <pt x="1050" y="1300" on="0"/>
        <pt x="1150" y="1300" on="1"/>
        <pt x="1300" y="1300" on="1"/>
        <pt x="1300" y="1500" on="0"/>
        <pt x="1475" y="1500" on="1"/>
        <pt x="1650" y="1500" on="0"/>
        <pt x="1650" y="1300" on="1"/>
        <pt x="1650" y="1248" on="0"/>
        <pt x="1591" y="1153" on="0"/>
        <pt x="1537" y="1127" on="1"/>
        <pt x="1509" y="1113" on="0"/>
        <pt x="1481" y="1106" on="1"/>
        <pt x="1650" y="1000" on="1"/>
        <pt x="1650" y="100" on="1"/>
        <pt x="1650" y="0" on="0"/>
        <pt x="1503" y="0" on="1"/>
        <pt x="1350" y="0" on="1"/>
        <pt x="1200" y="146" on="1"/>
        <pt x="1050" y="0" on="1"/>
        <pt x="897" y="0" on="1"/>
        <pt x="750" y="0" on="0"/>
        <pt x="750" y="100" on="1"/>
        <pt x="750" y="700" on="1"/>
        <pt x="750" y="800" on="0"/>
        <pt x="700" y="800" on="1"/>
        <pt x="700" y="1000" on="1"/>
        <pt x="850" y="1000" on="1"/>
        <pt x="1050" y="1000" on="0"/>
        <pt x="1050" y="850" on="1"/>
        <pt x="1050" y="293" on="1"/>
        <pt x="1200" y="439" on="1"/>
        <pt x="1350" y="293" on="1"/>
        <pt x="1350" y="1100" on="1"/>
      </contour>
      <contour>
        <pt x="450" y="1500" on="1"/>
        <pt x="450" y="300" on="1"/>
        <pt x="450" y="200" on="0"/>
        <pt x="550" y="200" on="1"/>
        <pt x="550" y="0" on="1"/>
        <pt x="350" y="0" on="1"/>
        <pt x="150" y="0" on="0"/>
        <pt x="150" y="200" on="1"/>
        <pt x="150" y="1500" on="1"/>
      </contour>
    </TTGlyph>
    <TTGlyph name="glyph259" xMin="150" yMin="0" xMax="1650" yMax="1500">
      <contour>
        <pt x="1650" y="300" on="1"/>
        <pt x="1650" y="0" on="0"/>
        <pt x="1200" y="0" on="1"/>
        <pt x="750" y="0" on="0"/>
        <pt x="750" y="300" on="1"/>
        <pt x="750" y="850" on="1"/>
        <pt x="750" y="930" on="0"/>
        <pt x="850" y="980" on="1"/>
        <pt x="700" y="1047" on="1"/>
        <pt x="700" y="1500" on="1"/>
        <pt x="1650" y="1500" on="1"/>
        <pt x="1650" y="1250" on="1"/>
        <pt x="920" y="1250" on="1"/>
        <pt x="920" y="1183" on="1"/>
        <pt x="1100" y="1100" on="1"/>
        <pt x="1100" y="900" on="1"/>
        <pt x="1050" y="900" on="0"/>
        <pt x="1050" y="810" on="1"/>
        <pt x="1050" y="300" on="1"/>
        <pt x="1050" y="200" on="0"/>
        <pt x="1200" y="200" on="1"/>
        <pt x="1350" y="200" on="0"/>
        <pt x="1350" y="300" on="1"/>
        <pt x="1350" y="850" on="1"/>
        <pt x="1200" y="850" on="0"/>
        <pt x="1200" y="950" on="1"/>
        <pt x="1200" y="1000" on="1"/>
        <pt x="1200" y="1100" on="0"/>
        <pt x="1350" y="1100" on="1"/>
        <pt x="1500" y="1100" on="1"/>
        <pt x="1650" y="1100" on="0"/>
        <pt x="1650" y="1000" on="1"/>
      </contour>
      <contour>
        <pt x="450" y="1500" on="1"/>
        <pt x="450" y="300" on="1"/>
        <pt x="450" y="200" on="0"/>
        <pt x="550" y="200" on="1"/>
        <pt x="550" y="0" on="1"/>
        <pt x="350" y="0" on="1"/>
        <pt x="150" y="0" on="0"/>
        <pt x="150" y="200" on="1"/>
        <pt x="150" y="1500" on="1"/>
      </contour>
    </TTGlyph>
    <TTGlyph name="glyph260" xMin="150" yMin="0" xMax="1650" yMax="1500">
      <contour>
        <pt x="1650" y="200" on="1"/>
        <pt x="1650" y="0" on="0"/>
        <pt x="1500" y="0" on="1"/>
        <pt x="1350" y="0" on="1"/>
        <pt x="1350" y="97" on="0"/>
        <pt x="1196" y="200" on="0"/>
        <pt x="1100" y="200" on="1"/>
        <pt x="1050" y="200" on="1"/>
        <pt x="1050" y="0" on="0"/>
        <pt x="900" y="0" on="1"/>
        <pt x="700" y="0" on="0"/>
        <pt x="700" y="200" on="1"/>
        <pt x="700" y="252" on="0"/>
        <pt x="754" y="348" on="0"/>
        <pt x="802" y="374" on="1"/>
        <pt x="841" y="396" on="0"/>
        <pt x="883" y="399" on="1"/>
        <pt x="750" y="450" on="1"/>
        <pt x="750" y="850" on="1"/>
        <pt x="750" y="930" on="0"/>
        <pt x="850" y="980" on="1"/>
        <pt x="700" y="1047" on="1"/>
        <pt x="700" y="1500" on="1"/>
        <pt x="1650" y="1500" on="1"/>
        <pt x="1650" y="1250" on="1"/>
        <pt x="920" y="1250" on="1"/>
        <pt x="920" y="1183" on="1"/>
        <pt x="1100" y="1100" on="1"/>
        <pt x="1100" y="900" on="1"/>
        <pt x="1050" y="900" on="0"/>
        <pt x="1050" y="810" on="1"/>
        <pt x="1050" y="400" on="1"/>
        <pt x="1100" y="400" on="1"/>
        <pt x="1247" y="400" on="0"/>
        <pt x="1350" y="341" on="1"/>
        <pt x="1350" y="850" on="1"/>
        <pt x="1200" y="850" on="0"/>
        <pt x="1200" y="950" on="1"/>
        <pt x="1200" y="1000" on="1"/>
        <pt x="1200" y="1100" on="0"/>
        <pt x="1350" y="1100" on="1"/>
        <pt x="1500" y="1100" on="1"/>
        <pt x="1650" y="1100" on="0"/>
        <pt x="1650" y="1000" on="1"/>
      </contour>
      <contour>
        <pt x="450" y="1500" on="1"/>
        <pt x="450" y="300" on="1"/>
        <pt x="450" y="200" on="0"/>
        <pt x="550" y="200" on="1"/>
        <pt x="550" y="0" on="1"/>
        <pt x="350" y="0" on="1"/>
        <pt x="150" y="0" on="0"/>
        <pt x="150" y="200" on="1"/>
        <pt x="150" y="1500" on="1"/>
      </contour>
    </TTGlyph>
    <TTGlyph name="glyph261" xMin="150" yMin="0" xMax="1650" yMax="1600">
      <contour>
        <pt x="1050" y="293" on="1"/>
        <pt x="1200" y="439" on="1"/>
        <pt x="1350" y="293" on="1"/>
        <pt x="1350" y="1100" on="1"/>
        <pt x="1650" y="1100" on="1"/>
        <pt x="1650" y="100" on="1"/>
        <pt x="1650" y="0" on="0"/>
        <pt x="1503" y="0" on="1"/>
        <pt x="1350" y="0" on="1"/>
        <pt x="1200" y="146" on="1"/>
        <pt x="1050" y="0" on="1"/>
        <pt x="897" y="0" on="1"/>
        <pt x="750" y="0" on="0"/>
        <pt x="750" y="100" on="1"/>
        <pt x="750" y="850" on="1"/>
        <pt x="750" y="930" on="0"/>
        <pt x="850" y="980" on="1"/>
        <pt x="700" y="1037" on="1"/>
        <pt x="700" y="1500" on="1"/>
        <pt x="1350" y="1500" on="1"/>
        <pt x="1350" y="1600" on="1"/>
        <pt x="1650" y="1600" on="1"/>
        <pt x="1650" y="1250" on="1"/>
        <pt x="920" y="1250" on="1"/>
        <pt x="920" y="1183" on="1"/>
        <pt x="1150" y="1100" on="1"/>
        <pt x="1150" y="900" on="1"/>
        <pt x="1050" y="900" on="0"/>
        <pt x="1050" y="810" on="1"/>
      </contour>
      <contour>
        <pt x="450" y="1500" on="1"/>
        <pt x="450" y="300" on="1"/>
        <pt x="450" y="200" on="0"/>
        <pt x="550" y="200" on="1"/>
        <pt x="550" y="0" on="1"/>
        <pt x="350" y="0" on="1"/>
        <pt x="150" y="0" on="0"/>
        <pt x="150" y="200" on="1"/>
        <pt x="150" y="1500" on="1"/>
      </contour>
    </TTGlyph>
    <TTGlyph name="glyph262" xMin="150" yMin="0" xMax="2850" yMax="1500">
      <contour>
        <pt x="2250" y="300" on="1"/>
        <pt x="2250" y="200" on="0"/>
        <pt x="2400" y="200" on="1"/>
        <pt x="2550" y="200" on="0"/>
        <pt x="2550" y="300" on="1"/>
        <pt x="2550" y="1500" on="1"/>
        <pt x="2850" y="1500" on="1"/>
        <pt x="2850" y="300" on="1"/>
        <pt x="2850" y="0" on="0"/>
        <pt x="2400" y="0" on="1"/>
        <pt x="2210" y="0" on="0"/>
        <pt x="2100" y="54" on="1"/>
        <pt x="1990" y="0" on="0"/>
        <pt x="1800" y="0" on="1"/>
        <pt x="1350" y="0" on="0"/>
        <pt x="1350" y="300" on="1"/>
        <pt x="1350" y="1200" on="1"/>
        <pt x="1350" y="1300" on="0"/>
        <pt x="1200" y="1300" on="1"/>
        <pt x="1050" y="1300" on="0"/>
        <pt x="1050" y="1200" on="1"/>
        <pt x="1050" y="300" on="1"/>
        <pt x="1050" y="200" on="0"/>
        <pt x="1200" y="200" on="1"/>
        <pt x="1200" y="0" on="1"/>
        <pt x="975" y="0" on="1"/>
        <pt x="750" y="0" on="0"/>
        <pt x="750" y="300" on="1"/>
        <pt x="750" y="1200" on="1"/>
        <pt x="750" y="1500" on="0"/>
        <pt x="1200" y="1500" on="1"/>
        <pt x="1650" y="1500" on="0"/>
        <pt x="1650" y="1200" on="1"/>
        <pt x="1650" y="300" on="1"/>
        <pt x="1650" y="200" on="0"/>
        <pt x="1800" y="200" on="1"/>
        <pt x="1950" y="200" on="0"/>
        <pt x="1950" y="300" on="1"/>
        <pt x="1950" y="1500" on="1"/>
        <pt x="2250" y="1500" on="1"/>
      </contour>
      <contour>
        <pt x="450" y="1500" on="1"/>
        <pt x="450" y="300" on="1"/>
        <pt x="450" y="200" on="0"/>
        <pt x="550" y="200" on="1"/>
        <pt x="550" y="0" on="1"/>
        <pt x="350" y="0" on="1"/>
        <pt x="150" y="0" on="0"/>
        <pt x="150" y="200" on="1"/>
        <pt x="150" y="1500" on="1"/>
      </contour>
    </TTGlyph>
    <TTGlyph name="glyph263" xMin="150" yMin="-700" xMax="2250" yMax="1500">
      <contour>
        <pt x="750" y="-200" on="1"/>
        <pt x="1000" y="-200" on="1"/>
        <pt x="1348" y="-200" on="0"/>
        <pt x="1704" y="-500" on="1"/>
        <pt x="1950" y="-500" on="1"/>
        <pt x="1950" y="-350" on="1"/>
        <pt x="1800" y="-350" on="1"/>
        <pt x="1800" y="-100" on="1"/>
        <pt x="2050" y="-100" on="1"/>
        <pt x="2250" y="-100" on="0"/>
        <pt x="2250" y="-300" on="1"/>
        <pt x="2250" y="-500" on="1"/>
        <pt x="2250" y="-700" on="0"/>
        <pt x="2050" y="-700" on="1"/>
        <pt x="1562" y="-700" on="1"/>
        <pt x="1247" y="-450" on="0"/>
        <pt x="1000" y="-450" on="1"/>
        <pt x="750" y="-450" on="1"/>
      </contour>
      <contour>
        <pt x="1950" y="0" on="1"/>
        <pt x="1950" y="1150" on="1"/>
        <pt x="1950" y="1250" on="0"/>
        <pt x="1800" y="1250" on="1"/>
        <pt x="1700" y="1250" on="1"/>
        <pt x="1700" y="1500" on="1"/>
        <pt x="1800" y="1500" on="1"/>
        <pt x="2250" y="1500" on="0"/>
        <pt x="2250" y="1200" on="1"/>
        <pt x="2250" y="0" on="1"/>
      </contour>
      <contour>
        <pt x="1050" y="300" on="1"/>
        <pt x="1200" y="300" on="0"/>
        <pt x="1200" y="200" on="1"/>
        <pt x="1200" y="100" on="1"/>
        <pt x="1200" y="0" on="0"/>
        <pt x="1050" y="0" on="1"/>
        <pt x="900" y="0" on="1"/>
        <pt x="750" y="0" on="0"/>
        <pt x="750" y="100" on="1"/>
        <pt x="750" y="1400" on="1"/>
        <pt x="750" y="1500" on="0"/>
        <pt x="897" y="1500" on="1"/>
        <pt x="1050" y="1500" on="1"/>
        <pt x="1200" y="1354" on="1"/>
        <pt x="1350" y="1500" on="1"/>
        <pt x="1503" y="1500" on="1"/>
        <pt x="1650" y="1500" on="0"/>
        <pt x="1650" y="1400" on="1"/>
        <pt x="1650" y="0" on="1"/>
        <pt x="1350" y="0" on="1"/>
        <pt x="1350" y="1207" on="1"/>
        <pt x="1200" y="1061" on="1"/>
        <pt x="1050" y="1207" on="1"/>
      </contour>
      <contour>
        <pt x="450" y="1500" on="1"/>
        <pt x="450" y="300" on="1"/>
        <pt x="450" y="200" on="0"/>
        <pt x="550" y="200" on="1"/>
        <pt x="550" y="0" on="1"/>
        <pt x="350" y="0" on="1"/>
        <pt x="150" y="0" on="0"/>
        <pt x="150" y="200" on="1"/>
        <pt x="150" y="1500" on="1"/>
      </contour>
    </TTGlyph>
    <TTGlyph name="glyph264" xMin="150" yMin="0" xMax="1650" yMax="1600">
      <contour>
        <pt x="750" y="1500" on="1"/>
        <pt x="1100" y="1500" on="1"/>
        <pt x="1100" y="1400" on="1"/>
        <pt x="1050" y="1400" on="1"/>
        <pt x="1050" y="1350" on="1"/>
        <pt x="1350" y="1350" on="1"/>
        <pt x="1350" y="1600" on="1"/>
        <pt x="1650" y="1600" on="1"/>
        <pt x="1650" y="1300" on="1"/>
        <pt x="1650" y="1150" on="0"/>
        <pt x="1500" y="1150" on="1"/>
        <pt x="750" y="1150" on="1"/>
      </contour>
      <contour>
        <pt x="1050" y="1050" on="1"/>
        <pt x="1050" y="293" on="1"/>
        <pt x="1200" y="439" on="1"/>
        <pt x="1350" y="293" on="1"/>
        <pt x="1350" y="1050" on="1"/>
        <pt x="1650" y="1050" on="1"/>
        <pt x="1650" y="100" on="1"/>
        <pt x="1650" y="0" on="0"/>
        <pt x="1503" y="0" on="1"/>
        <pt x="1350" y="0" on="1"/>
        <pt x="1200" y="146" on="1"/>
        <pt x="1050" y="0" on="1"/>
        <pt x="897" y="0" on="1"/>
        <pt x="750" y="0" on="0"/>
        <pt x="750" y="100" on="1"/>
        <pt x="750" y="1050" on="1"/>
      </contour>
      <contour>
        <pt x="450" y="1500" on="1"/>
        <pt x="450" y="300" on="1"/>
        <pt x="450" y="200" on="0"/>
        <pt x="550" y="200" on="1"/>
        <pt x="550" y="0" on="1"/>
        <pt x="350" y="0" on="1"/>
        <pt x="150" y="0" on="0"/>
        <pt x="150" y="200" on="1"/>
        <pt x="150" y="1500" on="1"/>
      </contour>
    </TTGlyph>
    <TTGlyph name="glyph265" xMin="150" yMin="0" xMax="1700" yMax="1600">
      <contour>
        <pt x="1650" y="300" on="1"/>
        <pt x="1650" y="0" on="0"/>
        <pt x="1200" y="0" on="1"/>
        <pt x="750" y="0" on="0"/>
        <pt x="750" y="300" on="1"/>
        <pt x="750" y="1200" on="1"/>
        <pt x="750" y="1300" on="0"/>
        <pt x="700" y="1300" on="1"/>
        <pt x="700" y="1500" on="1"/>
        <pt x="850" y="1500" on="1"/>
        <pt x="1050" y="1500" on="0"/>
        <pt x="1050" y="1350" on="1"/>
        <pt x="1050" y="300" on="1"/>
        <pt x="1050" y="200" on="0"/>
        <pt x="1200" y="200" on="1"/>
        <pt x="1350" y="200" on="0"/>
        <pt x="1350" y="300" on="1"/>
        <pt x="1350" y="850" on="1"/>
        <pt x="1350" y="930" on="0"/>
        <pt x="1450" y="980" on="1"/>
        <pt x="1300" y="1037" on="1"/>
        <pt x="1300" y="1500" on="1"/>
        <pt x="1500" y="1500" on="1"/>
        <pt x="1500" y="1600" on="1"/>
        <pt x="1700" y="1600" on="1"/>
        <pt x="1700" y="1250" on="1"/>
        <pt x="1520" y="1250" on="1"/>
        <pt x="1520" y="1183" on="1"/>
        <pt x="1700" y="1100" on="1"/>
        <pt x="1700" y="900" on="1"/>
        <pt x="1650" y="900" on="0"/>
        <pt x="1650" y="810" on="1"/>
      </contour>
      <contour>
        <pt x="450" y="1500" on="1"/>
        <pt x="450" y="300" on="1"/>
        <pt x="450" y="200" on="0"/>
        <pt x="550" y="200" on="1"/>
        <pt x="550" y="0" on="1"/>
        <pt x="350" y="0" on="1"/>
        <pt x="150" y="0" on="0"/>
        <pt x="150" y="200" on="1"/>
        <pt x="150" y="1500" on="1"/>
      </contour>
    </TTGlyph>
    <TTGlyph name="glyph266" xMin="150" yMin="-50" xMax="1650" yMax="1500">
      <contour>
        <pt x="1650" y="600" on="1"/>
        <pt x="1650" y="-50" on="1"/>
        <pt x="1350" y="-50" on="1"/>
        <pt x="1350" y="44" on="1"/>
        <pt x="1265" y="0" on="0"/>
        <pt x="1150" y="0" on="1"/>
        <pt x="1000" y="0" on="1"/>
        <pt x="750" y="0" on="0"/>
        <pt x="750" y="300" on="1"/>
        <pt x="750" y="669" on="1"/>
        <pt x="1050" y="771" on="1"/>
        <pt x="1350" y="873" on="0"/>
        <pt x="1350" y="1050" on="1"/>
        <pt x="1350" y="1207" on="1"/>
        <pt x="1200" y="1061" on="1"/>
        <pt x="1050" y="1207" on="1"/>
        <pt x="1050" y="1100" on="1"/>
        <pt x="1100" y="1100" on="1"/>
        <pt x="1100" y="900" on="1"/>
        <pt x="900" y="900" on="1"/>
        <pt x="750" y="900" on="0"/>
        <pt x="750" y="1000" on="1"/>
        <pt x="750" y="1400" on="1"/>
        <pt x="750" y="1500" on="0"/>
        <pt x="897" y="1500" on="1"/>
        <pt x="1050" y="1500" on="1"/>
        <pt x="1200" y="1354" on="1"/>
        <pt x="1350" y="1500" on="1"/>
        <pt x="1503" y="1500" on="1"/>
        <pt x="1650" y="1500" on="0"/>
        <pt x="1650" y="1400" on="1"/>
        <pt x="1650" y="1050" on="1"/>
        <pt x="1650" y="763" on="0"/>
        <pt x="1125" y="585" on="1"/>
        <pt x="1050" y="559" on="1"/>
        <pt x="1050" y="300" on="1"/>
        <pt x="1050" y="200" on="0"/>
        <pt x="1150" y="200" on="1"/>
        <pt x="1250" y="200" on="0"/>
        <pt x="1350" y="300" on="1"/>
        <pt x="1350" y="600" on="1"/>
      </contour>
      <contour>
        <pt x="450" y="1500" on="1"/>
        <pt x="450" y="300" on="1"/>
        <pt x="450" y="200" on="0"/>
        <pt x="550" y="200" on="1"/>
        <pt x="550" y="0" on="1"/>
        <pt x="350" y="0" on="1"/>
        <pt x="150" y="0" on="0"/>
        <pt x="150" y="200" on="1"/>
        <pt x="150" y="1500" on="1"/>
      </contour>
    </TTGlyph>
    <TTGlyph name="glyph267" xMin="150" yMin="0" xMax="2250" yMax="1500">
      <contour>
        <pt x="1650" y="400" on="1"/>
        <pt x="1700" y="400" on="1"/>
        <pt x="1847" y="400" on="0"/>
        <pt x="1950" y="341" on="1"/>
        <pt x="1950" y="1500" on="1"/>
        <pt x="2250" y="1500" on="1"/>
        <pt x="2250" y="200" on="1"/>
        <pt x="2250" y="0" on="0"/>
        <pt x="2100" y="0" on="1"/>
        <pt x="1950" y="0" on="1"/>
        <pt x="1950" y="97" on="0"/>
        <pt x="1796" y="200" on="0"/>
        <pt x="1700" y="200" on="1"/>
        <pt x="1650" y="200" on="1"/>
        <pt x="1650" y="0" on="0"/>
        <pt x="1500" y="0" on="1"/>
        <pt x="1300" y="0" on="0"/>
        <pt x="1300" y="200" on="1"/>
        <pt x="1300" y="252" on="0"/>
        <pt x="1354" y="348" on="0"/>
        <pt x="1402" y="374" on="1"/>
        <pt x="1441" y="396" on="0"/>
        <pt x="1483" y="399" on="1"/>
        <pt x="1350" y="450" on="1"/>
        <pt x="1350" y="1207" on="1"/>
        <pt x="1200" y="1061" on="1"/>
        <pt x="1050" y="1207" on="1"/>
        <pt x="1050" y="300" on="1"/>
        <pt x="1200" y="300" on="0"/>
        <pt x="1200" y="200" on="1"/>
        <pt x="1200" y="100" on="1"/>
        <pt x="1200" y="0" on="0"/>
        <pt x="1050" y="0" on="1"/>
        <pt x="900" y="0" on="1"/>
        <pt x="750" y="0" on="0"/>
        <pt x="750" y="100" on="1"/>
        <pt x="750" y="1400" on="1"/>
        <pt x="750" y="1500" on="0"/>
        <pt x="897" y="1500" on="1"/>
        <pt x="1050" y="1500" on="1"/>
        <pt x="1200" y="1354" on="1"/>
        <pt x="1350" y="1500" on="1"/>
        <pt x="1503" y="1500" on="1"/>
        <pt x="1650" y="1500" on="0"/>
        <pt x="1650" y="1400" on="1"/>
      </contour>
      <contour>
        <pt x="450" y="1500" on="1"/>
        <pt x="450" y="300" on="1"/>
        <pt x="450" y="200" on="0"/>
        <pt x="550" y="200" on="1"/>
        <pt x="550" y="0" on="1"/>
        <pt x="350" y="0" on="1"/>
        <pt x="150" y="0" on="0"/>
        <pt x="150" y="200" on="1"/>
        <pt x="150" y="1500" on="1"/>
      </contour>
    </TTGlyph>
    <TTGlyph name="glyph268" xMin="150" yMin="0" xMax="2850" yMax="1500">
      <contour>
        <pt x="1350" y="1200" on="1"/>
        <pt x="1350" y="1300" on="0"/>
        <pt x="1200" y="1300" on="1"/>
        <pt x="1050" y="1300" on="0"/>
        <pt x="1050" y="1200" on="1"/>
        <pt x="1050" y="0" on="1"/>
        <pt x="750" y="0" on="1"/>
        <pt x="750" y="1200" on="1"/>
        <pt x="750" y="1500" on="0"/>
        <pt x="1200" y="1500" on="1"/>
        <pt x="1650" y="1500" on="0"/>
        <pt x="1650" y="1200" on="1"/>
        <pt x="1650" y="293" on="1"/>
        <pt x="1800" y="439" on="1"/>
        <pt x="1950" y="293" on="1"/>
        <pt x="1950" y="1200" on="1"/>
        <pt x="1950" y="1500" on="0"/>
        <pt x="2400" y="1500" on="1"/>
        <pt x="2850" y="1500" on="0"/>
        <pt x="2850" y="1200" on="1"/>
        <pt x="2850" y="0" on="1"/>
        <pt x="2550" y="0" on="1"/>
        <pt x="2550" y="1200" on="1"/>
        <pt x="2550" y="1300" on="0"/>
        <pt x="2400" y="1300" on="1"/>
        <pt x="2250" y="1300" on="0"/>
        <pt x="2250" y="1200" on="1"/>
        <pt x="2250" y="100" on="1"/>
        <pt x="2250" y="0" on="0"/>
        <pt x="2103" y="0" on="1"/>
        <pt x="1950" y="0" on="1"/>
        <pt x="1800" y="146" on="1"/>
        <pt x="1650" y="0" on="1"/>
        <pt x="1497" y="0" on="1"/>
        <pt x="1350" y="0" on="0"/>
        <pt x="1350" y="100" on="1"/>
      </contour>
      <contour>
        <pt x="450" y="1500" on="1"/>
        <pt x="450" y="300" on="1"/>
        <pt x="450" y="200" on="0"/>
        <pt x="550" y="200" on="1"/>
        <pt x="550" y="0" on="1"/>
        <pt x="350" y="0" on="1"/>
        <pt x="150" y="0" on="0"/>
        <pt x="150" y="200" on="1"/>
        <pt x="150" y="1500" on="1"/>
      </contour>
    </TTGlyph>
    <TTGlyph name="glyph269" xMin="150" yMin="0" xMax="1650" yMax="1500">
      <contour>
        <pt x="750" y="1250" on="1"/>
        <pt x="750" y="1500" on="1"/>
        <pt x="1650" y="1500" on="1"/>
        <pt x="1650" y="1250" on="1"/>
      </contour>
      <contour>
        <pt x="750" y="800" on="1"/>
        <pt x="750" y="1100" on="0"/>
        <pt x="1200" y="1100" on="1"/>
        <pt x="1650" y="1100" on="0"/>
        <pt x="1650" y="800" on="1"/>
        <pt x="1650" y="0" on="1"/>
        <pt x="1350" y="0" on="1"/>
        <pt x="1350" y="800" on="1"/>
        <pt x="1350" y="900" on="0"/>
        <pt x="1200" y="900" on="1"/>
        <pt x="1050" y="900" on="0"/>
        <pt x="1050" y="800" on="1"/>
        <pt x="1050" y="300" on="1"/>
        <pt x="1200" y="300" on="0"/>
        <pt x="1200" y="200" on="1"/>
        <pt x="1200" y="100" on="1"/>
        <pt x="1200" y="0" on="0"/>
        <pt x="1050" y="0" on="1"/>
        <pt x="900" y="0" on="1"/>
        <pt x="750" y="0" on="0"/>
        <pt x="750" y="100" on="1"/>
      </contour>
      <contour>
        <pt x="450" y="1500" on="1"/>
        <pt x="450" y="300" on="1"/>
        <pt x="450" y="200" on="0"/>
        <pt x="550" y="200" on="1"/>
        <pt x="550" y="0" on="1"/>
        <pt x="350" y="0" on="1"/>
        <pt x="150" y="0" on="0"/>
        <pt x="150" y="200" on="1"/>
        <pt x="150" y="1500" on="1"/>
      </contour>
    </TTGlyph>
    <TTGlyph name="glyph270" xMin="150" yMin="0" xMax="1650" yMax="1600">
      <contour>
        <pt x="750" y="850" on="1"/>
        <pt x="750" y="930" on="0"/>
        <pt x="850" y="980" on="1"/>
        <pt x="700" y="1057" on="1"/>
        <pt x="700" y="1500" on="1"/>
        <pt x="1350" y="1500" on="1"/>
        <pt x="1350" y="1600" on="1"/>
        <pt x="1650" y="1600" on="1"/>
        <pt x="1650" y="1250" on="1"/>
        <pt x="920" y="1250" on="1"/>
        <pt x="920" y="1183" on="1"/>
        <pt x="1100" y="1100" on="1"/>
        <pt x="1100" y="900" on="1"/>
        <pt x="1050" y="900" on="0"/>
        <pt x="1050" y="810" on="1"/>
        <pt x="1050" y="300" on="1"/>
        <pt x="1050" y="200" on="0"/>
        <pt x="1200" y="200" on="1"/>
        <pt x="1350" y="200" on="0"/>
        <pt x="1350" y="300" on="1"/>
        <pt x="1350" y="850" on="1"/>
        <pt x="1200" y="850" on="0"/>
        <pt x="1200" y="950" on="1"/>
        <pt x="1200" y="1000" on="1"/>
        <pt x="1200" y="1100" on="0"/>
        <pt x="1350" y="1100" on="1"/>
        <pt x="1500" y="1100" on="1"/>
        <pt x="1650" y="1100" on="0"/>
        <pt x="1650" y="1000" on="1"/>
        <pt x="1650" y="300" on="1"/>
        <pt x="1650" y="0" on="0"/>
        <pt x="1200" y="0" on="1"/>
        <pt x="750" y="0" on="0"/>
        <pt x="750" y="300" on="1"/>
      </contour>
      <contour>
        <pt x="450" y="1500" on="1"/>
        <pt x="450" y="300" on="1"/>
        <pt x="450" y="200" on="0"/>
        <pt x="550" y="200" on="1"/>
        <pt x="550" y="0" on="1"/>
        <pt x="350" y="0" on="1"/>
        <pt x="150" y="0" on="0"/>
        <pt x="150" y="200" on="1"/>
        <pt x="150" y="1500" on="1"/>
      </contour>
    </TTGlyph>
    <TTGlyph name="glyph271" xMin="150" yMin="0" xMax="1650" yMax="1500">
      <contour>
        <pt x="750" y="1200" on="1"/>
        <pt x="750" y="1500" on="0"/>
        <pt x="1200" y="1500" on="1"/>
        <pt x="1650" y="1500" on="0"/>
        <pt x="1650" y="1200" on="1"/>
        <pt x="1650" y="1050" on="1"/>
        <pt x="1650" y="950" on="0"/>
        <pt x="1500" y="950" on="1"/>
        <pt x="1300" y="950" on="1"/>
        <pt x="1300" y="1150" on="1"/>
        <pt x="1350" y="1150" on="1"/>
        <pt x="1350" y="1200" on="1"/>
        <pt x="1350" y="1300" on="0"/>
        <pt x="1200" y="1300" on="1"/>
        <pt x="1050" y="1300" on="0"/>
        <pt x="1050" y="1200" on="1"/>
        <pt x="1050" y="1000" on="1"/>
        <pt x="1050" y="872" on="0"/>
        <pt x="1266" y="822" on="1"/>
        <pt x="1403" y="790" on="1"/>
        <pt x="1423" y="813" on="0"/>
        <pt x="1479" y="850" on="0"/>
        <pt x="1510" y="850" on="1"/>
        <pt x="1550" y="850" on="1"/>
        <pt x="1650" y="850" on="0"/>
        <pt x="1650" y="766" on="1"/>
        <pt x="1650" y="644" on="1"/>
        <pt x="1650" y="572" on="0"/>
        <pt x="1547" y="539" on="1"/>
        <pt x="1650" y="490" on="1"/>
        <pt x="1650" y="300" on="1"/>
        <pt x="1650" y="0" on="0"/>
        <pt x="1200" y="0" on="1"/>
        <pt x="750" y="0" on="0"/>
        <pt x="750" y="300" on="1"/>
        <pt x="750" y="620" on="1"/>
        <pt x="1050" y="550" on="1"/>
        <pt x="1050" y="300" on="1"/>
        <pt x="1050" y="200" on="0"/>
        <pt x="1200" y="200" on="1"/>
        <pt x="1350" y="200" on="0"/>
        <pt x="1350" y="300" on="1"/>
        <pt x="1350" y="585" on="1"/>
        <pt x="1051" y="660" on="1"/>
        <pt x="750" y="738" on="0"/>
        <pt x="750" y="1000" on="1"/>
      </contour>
      <contour>
        <pt x="450" y="1500" on="1"/>
        <pt x="450" y="300" on="1"/>
        <pt x="450" y="200" on="0"/>
        <pt x="550" y="200" on="1"/>
        <pt x="550" y="0" on="1"/>
        <pt x="350" y="0" on="1"/>
        <pt x="150" y="0" on="0"/>
        <pt x="150" y="200" on="1"/>
        <pt x="150" y="1500" on="1"/>
      </contour>
    </TTGlyph>
    <TTGlyph name="glyph272" xMin="150" yMin="0" xMax="1650" yMax="1500">
      <contour>
        <pt x="750" y="850" on="1"/>
        <pt x="750" y="930" on="0"/>
        <pt x="850" y="980" on="1"/>
        <pt x="700" y="1047" on="1"/>
        <pt x="700" y="1500" on="1"/>
        <pt x="1650" y="1500" on="1"/>
        <pt x="1650" y="1250" on="1"/>
        <pt x="920" y="1250" on="1"/>
        <pt x="920" y="1183" on="1"/>
        <pt x="1100" y="1100" on="1"/>
        <pt x="1100" y="900" on="1"/>
        <pt x="1050" y="900" on="0"/>
        <pt x="1050" y="810" on="1"/>
        <pt x="1050" y="293" on="1"/>
        <pt x="1200" y="439" on="1"/>
        <pt x="1350" y="293" on="1"/>
        <pt x="1350" y="850" on="1"/>
        <pt x="1200" y="850" on="0"/>
        <pt x="1200" y="950" on="1"/>
        <pt x="1200" y="1000" on="1"/>
        <pt x="1200" y="1100" on="0"/>
        <pt x="1350" y="1100" on="1"/>
        <pt x="1500" y="1100" on="1"/>
        <pt x="1650" y="1100" on="0"/>
        <pt x="1650" y="1000" on="1"/>
        <pt x="1650" y="100" on="1"/>
        <pt x="1650" y="0" on="0"/>
        <pt x="1503" y="0" on="1"/>
        <pt x="1350" y="0" on="1"/>
        <pt x="1200" y="146" on="1"/>
        <pt x="1050" y="0" on="1"/>
        <pt x="897" y="0" on="1"/>
        <pt x="750" y="0" on="0"/>
        <pt x="750" y="100" on="1"/>
      </contour>
      <contour>
        <pt x="450" y="1500" on="1"/>
        <pt x="450" y="300" on="1"/>
        <pt x="450" y="200" on="0"/>
        <pt x="550" y="200" on="1"/>
        <pt x="550" y="0" on="1"/>
        <pt x="350" y="0" on="1"/>
        <pt x="150" y="0" on="0"/>
        <pt x="150" y="200" on="1"/>
        <pt x="150" y="1500" on="1"/>
      </contour>
    </TTGlyph>
    <TTGlyph name="glyph273" xMin="150" yMin="0" xMax="1650" yMax="1500">
      <contour>
        <pt x="750" y="600" on="1"/>
        <pt x="1050" y="600" on="1"/>
        <pt x="1050" y="293" on="1"/>
        <pt x="1200" y="439" on="1"/>
        <pt x="1350" y="293" on="1"/>
        <pt x="1350" y="576" on="1"/>
        <pt x="1275" y="595" on="1"/>
        <pt x="750" y="753" on="0"/>
        <pt x="750" y="1000" on="1"/>
        <pt x="750" y="1200" on="1"/>
        <pt x="750" y="1500" on="0"/>
        <pt x="1200" y="1500" on="1"/>
        <pt x="1650" y="1500" on="0"/>
        <pt x="1650" y="1200" on="1"/>
        <pt x="1650" y="1000" on="1"/>
        <pt x="1650" y="900" on="0"/>
        <pt x="1500" y="900" on="1"/>
        <pt x="1300" y="900" on="1"/>
        <pt x="1300" y="1100" on="1"/>
        <pt x="1350" y="1100" on="1"/>
        <pt x="1350" y="1200" on="1"/>
        <pt x="1350" y="1300" on="0"/>
        <pt x="1200" y="1300" on="1"/>
        <pt x="1050" y="1300" on="0"/>
        <pt x="1050" y="1200" on="1"/>
        <pt x="1050" y="1000" on="1"/>
        <pt x="1050" y="863" on="0"/>
        <pt x="1350" y="781" on="1"/>
        <pt x="1650" y="699" on="1"/>
        <pt x="1650" y="100" on="1"/>
        <pt x="1650" y="0" on="0"/>
        <pt x="1503" y="0" on="1"/>
        <pt x="1350" y="0" on="1"/>
        <pt x="1200" y="146" on="1"/>
        <pt x="1050" y="0" on="1"/>
        <pt x="897" y="0" on="1"/>
        <pt x="750" y="0" on="0"/>
        <pt x="750" y="100" on="1"/>
      </contour>
      <contour>
        <pt x="450" y="1500" on="1"/>
        <pt x="450" y="300" on="1"/>
        <pt x="450" y="200" on="0"/>
        <pt x="550" y="200" on="1"/>
        <pt x="550" y="0" on="1"/>
        <pt x="350" y="0" on="1"/>
        <pt x="150" y="0" on="0"/>
        <pt x="150" y="200" on="1"/>
        <pt x="150" y="1500" on="1"/>
      </contour>
    </TTGlyph>
    <TTGlyph name="glyph274" xMin="150" yMin="0" xMax="1650" yMax="1500">
      <contour>
        <pt x="700" y="1500" on="1"/>
        <pt x="1150" y="1500" on="1"/>
        <pt x="1150" y="1250" on="1"/>
        <pt x="920" y="1250" on="1"/>
        <pt x="920" y="1183" on="1"/>
        <pt x="1150" y="1100" on="1"/>
        <pt x="1150" y="900" on="1"/>
        <pt x="1050" y="900" on="0"/>
        <pt x="1050" y="810" on="1"/>
        <pt x="1050" y="300" on="1"/>
        <pt x="1050" y="200" on="0"/>
        <pt x="1200" y="200" on="1"/>
        <pt x="1350" y="200" on="0"/>
        <pt x="1350" y="300" on="1"/>
        <pt x="1350" y="1500" on="1"/>
        <pt x="1650" y="1500" on="1"/>
        <pt x="1650" y="300" on="1"/>
        <pt x="1650" y="0" on="0"/>
        <pt x="1200" y="0" on="1"/>
        <pt x="750" y="0" on="0"/>
        <pt x="750" y="300" on="1"/>
        <pt x="750" y="850" on="1"/>
        <pt x="750" y="930" on="0"/>
        <pt x="850" y="980" on="1"/>
        <pt x="700" y="1017" on="1"/>
      </contour>
      <contour>
        <pt x="450" y="1500" on="1"/>
        <pt x="450" y="300" on="1"/>
        <pt x="450" y="200" on="0"/>
        <pt x="550" y="200" on="1"/>
        <pt x="550" y="0" on="1"/>
        <pt x="350" y="0" on="1"/>
        <pt x="150" y="0" on="0"/>
        <pt x="150" y="200" on="1"/>
        <pt x="150" y="1500" on="1"/>
      </contour>
    </TTGlyph>
    <TTGlyph name="glyph275" xMin="150" yMin="0" xMax="1650" yMax="1600">
      <contour>
        <pt x="1050" y="293" on="1"/>
        <pt x="1200" y="439" on="1"/>
        <pt x="1350" y="293" on="1"/>
        <pt x="1350" y="850" on="1"/>
        <pt x="1200" y="850" on="0"/>
        <pt x="1200" y="950" on="1"/>
        <pt x="1200" y="1000" on="1"/>
        <pt x="1200" y="1100" on="0"/>
        <pt x="1350" y="1100" on="1"/>
        <pt x="1500" y="1100" on="1"/>
        <pt x="1650" y="1100" on="0"/>
        <pt x="1650" y="1000" on="1"/>
        <pt x="1650" y="100" on="1"/>
        <pt x="1650" y="0" on="0"/>
        <pt x="1503" y="0" on="1"/>
        <pt x="1350" y="0" on="1"/>
        <pt x="1200" y="146" on="1"/>
        <pt x="1050" y="0" on="1"/>
        <pt x="897" y="0" on="1"/>
        <pt x="750" y="0" on="0"/>
        <pt x="750" y="100" on="1"/>
        <pt x="750" y="850" on="1"/>
        <pt x="750" y="930" on="0"/>
        <pt x="850" y="980" on="1"/>
        <pt x="700" y="1057" on="1"/>
        <pt x="700" y="1500" on="1"/>
        <pt x="1350" y="1500" on="1"/>
        <pt x="1350" y="1600" on="1"/>
        <pt x="1650" y="1600" on="1"/>
        <pt x="1650" y="1250" on="1"/>
        <pt x="920" y="1250" on="1"/>
        <pt x="920" y="1183" on="1"/>
        <pt x="1100" y="1100" on="1"/>
        <pt x="1100" y="900" on="1"/>
        <pt x="1050" y="900" on="0"/>
        <pt x="1050" y="810" on="1"/>
      </contour>
      <contour>
        <pt x="450" y="1500" on="1"/>
        <pt x="450" y="300" on="1"/>
        <pt x="450" y="200" on="0"/>
        <pt x="550" y="200" on="1"/>
        <pt x="550" y="0" on="1"/>
        <pt x="350" y="0" on="1"/>
        <pt x="150" y="0" on="0"/>
        <pt x="150" y="200" on="1"/>
        <pt x="150" y="1500" on="1"/>
      </contour>
    </TTGlyph>
    <TTGlyph name="glyph276" xMin="150" yMin="0" xMax="1650" yMax="1500">
      <contour>
        <pt x="1200" y="0" on="0"/>
        <pt x="1050" y="0" on="1"/>
        <pt x="900" y="0" on="1"/>
        <pt x="750" y="0" on="0"/>
        <pt x="750" y="100" on="1"/>
        <pt x="750" y="1400" on="1"/>
        <pt x="750" y="1500" on="0"/>
        <pt x="897" y="1500" on="1"/>
        <pt x="1050" y="1500" on="1"/>
        <pt x="1200" y="1354" on="1"/>
        <pt x="1350" y="1500" on="1"/>
        <pt x="1503" y="1500" on="1"/>
        <pt x="1650" y="1500" on="0"/>
        <pt x="1650" y="1400" on="1"/>
        <pt x="1650" y="0" on="1"/>
        <pt x="1350" y="0" on="1"/>
        <pt x="1350" y="1207" on="1"/>
        <pt x="1200" y="1061" on="1"/>
        <pt x="1050" y="1207" on="1"/>
        <pt x="1050" y="300" on="1"/>
        <pt x="1200" y="300" on="0"/>
        <pt x="1200" y="200" on="1"/>
        <pt x="1200" y="100" on="1"/>
      </contour>
      <contour>
        <pt x="450" y="1500" on="1"/>
        <pt x="450" y="300" on="1"/>
        <pt x="450" y="200" on="0"/>
        <pt x="550" y="200" on="1"/>
        <pt x="550" y="0" on="1"/>
        <pt x="350" y="0" on="1"/>
        <pt x="150" y="0" on="0"/>
        <pt x="150" y="200" on="1"/>
        <pt x="150" y="1500" on="1"/>
      </contour>
    </TTGlyph>
    <TTGlyph name="glyph277" xMin="150" yMin="0" xMax="1650" yMax="1500">
      <contour>
        <pt x="750" y="1250" on="1"/>
        <pt x="750" y="1500" on="1"/>
        <pt x="1650" y="1500" on="1"/>
        <pt x="1650" y="1250" on="1"/>
      </contour>
      <contour>
        <pt x="1050" y="100" on="1"/>
        <pt x="1050" y="0" on="0"/>
        <pt x="900" y="0" on="1"/>
        <pt x="750" y="0" on="1"/>
        <pt x="650" y="0" on="0"/>
        <pt x="650" y="150" on="1"/>
        <pt x="650" y="300" on="0"/>
        <pt x="750" y="300" on="1"/>
        <pt x="750" y="800" on="1"/>
        <pt x="750" y="1100" on="0"/>
        <pt x="1200" y="1100" on="1"/>
        <pt x="1650" y="1100" on="0"/>
        <pt x="1650" y="800" on="1"/>
        <pt x="1650" y="0" on="1"/>
        <pt x="1350" y="0" on="1"/>
        <pt x="1350" y="800" on="1"/>
        <pt x="1350" y="900" on="0"/>
        <pt x="1200" y="900" on="1"/>
        <pt x="1050" y="900" on="0"/>
        <pt x="1050" y="800" on="1"/>
      </contour>
      <contour>
        <pt x="450" y="1500" on="1"/>
        <pt x="450" y="300" on="1"/>
        <pt x="450" y="200" on="0"/>
        <pt x="550" y="200" on="1"/>
        <pt x="550" y="0" on="1"/>
        <pt x="350" y="0" on="1"/>
        <pt x="150" y="0" on="0"/>
        <pt x="150" y="200" on="1"/>
        <pt x="150" y="1500" on="1"/>
      </contour>
    </TTGlyph>
    <TTGlyph name="glyph278" xMin="150" yMin="0" xMax="1650" yMax="1500">
      <contour>
        <pt x="1050" y="300" on="1"/>
        <pt x="1050" y="200" on="0"/>
        <pt x="1200" y="200" on="1"/>
        <pt x="1350" y="200" on="0"/>
        <pt x="1350" y="300" on="1"/>
        <pt x="1350" y="600" on="1"/>
        <pt x="1100" y="600" on="1"/>
        <pt x="1100" y="800" on="1"/>
        <pt x="1350" y="800" on="1"/>
        <pt x="1350" y="1500" on="1"/>
        <pt x="1650" y="1500" on="1"/>
        <pt x="1650" y="300" on="1"/>
        <pt x="1650" y="0" on="0"/>
        <pt x="1200" y="0" on="1"/>
        <pt x="750" y="0" on="0"/>
        <pt x="750" y="300" on="1"/>
        <pt x="750" y="850" on="1"/>
        <pt x="750" y="930" on="0"/>
        <pt x="850" y="980" on="1"/>
        <pt x="700" y="1017" on="1"/>
        <pt x="700" y="1500" on="1"/>
        <pt x="1150" y="1500" on="1"/>
        <pt x="1150" y="1250" on="1"/>
        <pt x="920" y="1250" on="1"/>
        <pt x="920" y="1183" on="1"/>
        <pt x="1150" y="1100" on="1"/>
        <pt x="1150" y="900" on="1"/>
        <pt x="1050" y="900" on="0"/>
        <pt x="1050" y="810" on="1"/>
      </contour>
      <contour>
        <pt x="450" y="1500" on="1"/>
        <pt x="450" y="300" on="1"/>
        <pt x="450" y="200" on="0"/>
        <pt x="550" y="200" on="1"/>
        <pt x="550" y="0" on="1"/>
        <pt x="350" y="0" on="1"/>
        <pt x="150" y="0" on="0"/>
        <pt x="150" y="200" on="1"/>
        <pt x="150" y="1500" on="1"/>
      </contour>
    </TTGlyph>
    <TTGlyph name="glyph279" xMin="150" yMin="0" xMax="2250" yMax="1500">
      <contour>
        <pt x="750" y="1300" on="1"/>
        <pt x="750" y="1500" on="0"/>
        <pt x="950" y="1500" on="1"/>
        <pt x="1150" y="1500" on="1"/>
        <pt x="1150" y="1300" on="1"/>
        <pt x="1050" y="1300" on="0"/>
        <pt x="1050" y="1200" on="1"/>
        <pt x="1050" y="300" on="1"/>
        <pt x="1050" y="200" on="0"/>
        <pt x="1200" y="200" on="1"/>
        <pt x="1350" y="200" on="0"/>
        <pt x="1350" y="300" on="1"/>
        <pt x="1350" y="1500" on="1"/>
        <pt x="1650" y="1500" on="1"/>
        <pt x="1650" y="300" on="1"/>
        <pt x="1650" y="200" on="0"/>
        <pt x="1800" y="200" on="1"/>
        <pt x="1950" y="200" on="0"/>
        <pt x="1950" y="300" on="1"/>
        <pt x="1950" y="1500" on="1"/>
        <pt x="2250" y="1500" on="1"/>
        <pt x="2250" y="300" on="1"/>
        <pt x="2250" y="0" on="0"/>
        <pt x="1800" y="0" on="1"/>
        <pt x="1610" y="0" on="0"/>
        <pt x="1500" y="54" on="1"/>
        <pt x="1390" y="0" on="0"/>
        <pt x="1200" y="0" on="1"/>
        <pt x="750" y="0" on="0"/>
        <pt x="750" y="300" on="1"/>
      </contour>
      <contour>
        <pt x="450" y="1500" on="1"/>
        <pt x="450" y="300" on="1"/>
        <pt x="450" y="200" on="0"/>
        <pt x="550" y="200" on="1"/>
        <pt x="550" y="0" on="1"/>
        <pt x="350" y="0" on="1"/>
        <pt x="150" y="0" on="0"/>
        <pt x="150" y="200" on="1"/>
        <pt x="150" y="1500" on="1"/>
      </contour>
    </TTGlyph>
    <TTGlyph name="glyph280" xMin="150" yMin="0" xMax="1050" yMax="1500">
      <contour>
        <pt x="1050" y="1500" on="1"/>
        <pt x="1050" y="200" on="1"/>
        <pt x="1050" y="0" on="0"/>
        <pt x="850" y="0" on="1"/>
        <pt x="650" y="0" on="1"/>
        <pt x="650" y="200" on="1"/>
        <pt x="750" y="200" on="0"/>
        <pt x="750" y="300" on="1"/>
        <pt x="750" y="1500" on="1"/>
      </contour>
      <contour>
        <pt x="450" y="1500" on="1"/>
        <pt x="450" y="300" on="1"/>
        <pt x="450" y="200" on="0"/>
        <pt x="550" y="200" on="1"/>
        <pt x="550" y="0" on="1"/>
        <pt x="350" y="0" on="1"/>
        <pt x="150" y="0" on="0"/>
        <pt x="150" y="200" on="1"/>
        <pt x="150" y="1500" on="1"/>
      </contour>
    </TTGlyph>
    <TTGlyph name="glyph281" xMin="150" yMin="0" xMax="2250" yMax="1500">
      <contour>
        <pt x="1650" y="300" on="1"/>
        <pt x="1650" y="200" on="0"/>
        <pt x="1800" y="200" on="1"/>
        <pt x="1950" y="200" on="0"/>
        <pt x="1950" y="300" on="1"/>
        <pt x="1950" y="1500" on="1"/>
        <pt x="2250" y="1500" on="1"/>
        <pt x="2250" y="300" on="1"/>
        <pt x="2250" y="0" on="0"/>
        <pt x="1800" y="0" on="1"/>
        <pt x="1350" y="0" on="0"/>
        <pt x="1350" y="300" on="1"/>
        <pt x="1350" y="1200" on="1"/>
        <pt x="1350" y="1300" on="0"/>
        <pt x="1200" y="1300" on="1"/>
        <pt x="1050" y="1300" on="0"/>
        <pt x="1050" y="1200" on="1"/>
        <pt x="1050" y="300" on="1"/>
        <pt x="1050" y="200" on="0"/>
        <pt x="1200" y="200" on="1"/>
        <pt x="1200" y="0" on="1"/>
        <pt x="975" y="0" on="1"/>
        <pt x="750" y="0" on="0"/>
        <pt x="750" y="300" on="1"/>
        <pt x="750" y="1200" on="1"/>
        <pt x="750" y="1500" on="0"/>
        <pt x="1200" y="1500" on="1"/>
        <pt x="1650" y="1500" on="0"/>
        <pt x="1650" y="1200" on="1"/>
      </contour>
      <contour>
        <pt x="450" y="1500" on="1"/>
        <pt x="450" y="300" on="1"/>
        <pt x="450" y="200" on="0"/>
        <pt x="550" y="200" on="1"/>
        <pt x="550" y="0" on="1"/>
        <pt x="350" y="0" on="1"/>
        <pt x="150" y="0" on="0"/>
        <pt x="150" y="200" on="1"/>
        <pt x="150" y="1500" on="1"/>
      </contour>
    </TTGlyph>
    <TTGlyph name="glyph282" xMin="150" yMin="0" xMax="1100" yMax="1600">
      <contour>
        <pt x="750" y="850" on="1"/>
        <pt x="750" y="930" on="0"/>
        <pt x="850" y="980" on="1"/>
        <pt x="700" y="1037" on="1"/>
        <pt x="700" y="1500" on="1"/>
        <pt x="900" y="1500" on="1"/>
        <pt x="900" y="1600" on="1"/>
        <pt x="1100" y="1600" on="1"/>
        <pt x="1100" y="1250" on="1"/>
        <pt x="920" y="1250" on="1"/>
        <pt x="920" y="1183" on="1"/>
        <pt x="1100" y="1100" on="1"/>
        <pt x="1100" y="900" on="1"/>
        <pt x="1050" y="900" on="0"/>
        <pt x="1050" y="810" on="1"/>
        <pt x="1050" y="200" on="1"/>
        <pt x="1050" y="0" on="0"/>
        <pt x="875" y="0" on="1"/>
        <pt x="700" y="0" on="1"/>
        <pt x="700" y="200" on="1"/>
        <pt x="750" y="200" on="0"/>
        <pt x="750" y="300" on="1"/>
      </contour>
      <contour>
        <pt x="450" y="1500" on="1"/>
        <pt x="450" y="300" on="1"/>
        <pt x="450" y="200" on="0"/>
        <pt x="550" y="200" on="1"/>
        <pt x="550" y="0" on="1"/>
        <pt x="350" y="0" on="1"/>
        <pt x="150" y="0" on="0"/>
        <pt x="150" y="200" on="1"/>
        <pt x="150" y="1500" on="1"/>
      </contour>
    </TTGlyph>
    <TTGlyph name="glyph283" xMin="150" yMin="0" xMax="1750" yMax="1500">
      <contour>
        <pt x="750" y="1250" on="1"/>
        <pt x="750" y="1500" on="1"/>
        <pt x="1650" y="1500" on="1"/>
        <pt x="1650" y="1250" on="1"/>
      </contour>
      <contour>
        <pt x="1350" y="567" on="1"/>
        <pt x="1350" y="800" on="1"/>
        <pt x="1350" y="900" on="0"/>
        <pt x="1200" y="900" on="1"/>
        <pt x="1050" y="900" on="0"/>
        <pt x="1050" y="800" on="1"/>
        <pt x="1050" y="343" on="1"/>
        <pt x="1149" y="526" on="1"/>
        <pt x="1281" y="454" on="1"/>
        <pt x="1050" y="27" on="1"/>
        <pt x="1050" y="0" on="1"/>
        <pt x="750" y="0" on="1"/>
        <pt x="750" y="800" on="1"/>
        <pt x="750" y="1100" on="0"/>
        <pt x="1200" y="1100" on="1"/>
        <pt x="1650" y="1100" on="0"/>
        <pt x="1650" y="800" on="1"/>
        <pt x="1650" y="567" on="1"/>
        <pt x="1750" y="567" on="1"/>
        <pt x="1750" y="367" on="1"/>
        <pt x="1650" y="367" on="1"/>
        <pt x="1650" y="0" on="1"/>
        <pt x="1350" y="0" on="1"/>
        <pt x="1350" y="367" on="1"/>
        <pt x="1300" y="367" on="1"/>
        <pt x="1300" y="567" on="1"/>
      </contour>
      <contour>
        <pt x="450" y="1500" on="1"/>
        <pt x="450" y="300" on="1"/>
        <pt x="450" y="200" on="0"/>
        <pt x="550" y="200" on="1"/>
        <pt x="550" y="0" on="1"/>
        <pt x="350" y="0" on="1"/>
        <pt x="150" y="0" on="0"/>
        <pt x="150" y="200" on="1"/>
        <pt x="150" y="1500" on="1"/>
      </contour>
    </TTGlyph>
    <TTGlyph name="glyph284" xMin="150" yMin="0" xMax="1750" yMax="1500">
      <contour>
        <pt x="1650" y="650" on="1"/>
        <pt x="1650" y="300" on="1"/>
        <pt x="1650" y="0" on="0"/>
        <pt x="1200" y="0" on="1"/>
        <pt x="750" y="0" on="0"/>
        <pt x="750" y="300" on="1"/>
        <pt x="750" y="850" on="1"/>
        <pt x="750" y="930" on="0"/>
        <pt x="850" y="980" on="1"/>
        <pt x="700" y="1017" on="1"/>
        <pt x="700" y="1500" on="1"/>
        <pt x="1150" y="1500" on="1"/>
        <pt x="1150" y="1250" on="1"/>
        <pt x="920" y="1250" on="1"/>
        <pt x="920" y="1183" on="1"/>
        <pt x="1150" y="1100" on="1"/>
        <pt x="1150" y="900" on="1"/>
        <pt x="1050" y="900" on="0"/>
        <pt x="1050" y="810" on="1"/>
        <pt x="1050" y="300" on="1"/>
        <pt x="1050" y="200" on="0"/>
        <pt x="1200" y="200" on="1"/>
        <pt x="1350" y="200" on="0"/>
        <pt x="1350" y="300" on="1"/>
        <pt x="1350" y="650" on="1"/>
        <pt x="1300" y="650" on="1"/>
        <pt x="1300" y="850" on="1"/>
        <pt x="1350" y="850" on="1"/>
        <pt x="1350" y="1500" on="1"/>
        <pt x="1650" y="1500" on="1"/>
        <pt x="1650" y="850" on="1"/>
        <pt x="1750" y="850" on="1"/>
        <pt x="1750" y="650" on="1"/>
      </contour>
      <contour>
        <pt x="450" y="1500" on="1"/>
        <pt x="450" y="300" on="1"/>
        <pt x="450" y="200" on="0"/>
        <pt x="550" y="200" on="1"/>
        <pt x="550" y="0" on="1"/>
        <pt x="350" y="0" on="1"/>
        <pt x="150" y="0" on="0"/>
        <pt x="150" y="200" on="1"/>
        <pt x="150" y="1500" on="1"/>
      </contour>
    </TTGlyph>
    <TTGlyph name="glyph285" xMin="150" yMin="0" xMax="2250" yMax="1500">
      <contour>
        <pt x="750" y="1250" on="1"/>
        <pt x="750" y="1500" on="1"/>
        <pt x="1500" y="1500" on="1"/>
        <pt x="1500" y="1250" on="1"/>
      </contour>
      <contour>
        <pt x="2250" y="1500" on="1"/>
        <pt x="2250" y="300" on="1"/>
        <pt x="2250" y="0" on="0"/>
        <pt x="1800" y="0" on="1"/>
        <pt x="1350" y="0" on="0"/>
        <pt x="1350" y="300" on="1"/>
        <pt x="1350" y="800" on="1"/>
        <pt x="1350" y="900" on="0"/>
        <pt x="1200" y="900" on="1"/>
        <pt x="1050" y="900" on="0"/>
        <pt x="1050" y="800" on="1"/>
        <pt x="1050" y="300" on="1"/>
        <pt x="1050" y="200" on="0"/>
        <pt x="1200" y="200" on="1"/>
        <pt x="1200" y="0" on="1"/>
        <pt x="975" y="0" on="1"/>
        <pt x="750" y="0" on="0"/>
        <pt x="750" y="300" on="1"/>
        <pt x="750" y="800" on="1"/>
        <pt x="750" y="1100" on="0"/>
        <pt x="1200" y="1100" on="1"/>
        <pt x="1650" y="1100" on="0"/>
        <pt x="1650" y="800" on="1"/>
        <pt x="1650" y="300" on="1"/>
        <pt x="1650" y="200" on="0"/>
        <pt x="1800" y="200" on="1"/>
        <pt x="1950" y="200" on="0"/>
        <pt x="1950" y="300" on="1"/>
        <pt x="1950" y="1500" on="1"/>
      </contour>
      <contour>
        <pt x="450" y="1500" on="1"/>
        <pt x="450" y="300" on="1"/>
        <pt x="450" y="200" on="0"/>
        <pt x="550" y="200" on="1"/>
        <pt x="550" y="0" on="1"/>
        <pt x="350" y="0" on="1"/>
        <pt x="150" y="0" on="0"/>
        <pt x="150" y="200" on="1"/>
        <pt x="150" y="1500" on="1"/>
      </contour>
    </TTGlyph>
    <TTGlyph name="glyph286" xMin="150" yMin="0" xMax="2250" yMax="1500">
      <contour>
        <pt x="1050" y="300" on="1"/>
        <pt x="1050" y="200" on="0"/>
        <pt x="1200" y="200" on="1"/>
        <pt x="1350" y="200" on="0"/>
        <pt x="1350" y="300" on="1"/>
        <pt x="1350" y="1200" on="1"/>
        <pt x="1350" y="1500" on="0"/>
        <pt x="1800" y="1500" on="1"/>
        <pt x="2250" y="1500" on="0"/>
        <pt x="2250" y="1200" on="1"/>
        <pt x="2250" y="0" on="1"/>
        <pt x="1950" y="0" on="1"/>
        <pt x="1950" y="1200" on="1"/>
        <pt x="1950" y="1300" on="0"/>
        <pt x="1800" y="1300" on="1"/>
        <pt x="1650" y="1300" on="0"/>
        <pt x="1650" y="1200" on="1"/>
        <pt x="1650" y="300" on="1"/>
        <pt x="1650" y="0" on="0"/>
        <pt x="1200" y="0" on="1"/>
        <pt x="750" y="0" on="0"/>
        <pt x="750" y="300" on="1"/>
        <pt x="750" y="850" on="1"/>
        <pt x="750" y="930" on="0"/>
        <pt x="850" y="980" on="1"/>
        <pt x="700" y="1017" on="1"/>
        <pt x="700" y="1500" on="1"/>
        <pt x="1150" y="1500" on="1"/>
        <pt x="1150" y="1250" on="1"/>
        <pt x="920" y="1250" on="1"/>
        <pt x="920" y="1183" on="1"/>
        <pt x="1150" y="1100" on="1"/>
        <pt x="1150" y="900" on="1"/>
        <pt x="1050" y="900" on="0"/>
        <pt x="1050" y="810" on="1"/>
      </contour>
      <contour>
        <pt x="450" y="1500" on="1"/>
        <pt x="450" y="300" on="1"/>
        <pt x="450" y="200" on="0"/>
        <pt x="550" y="200" on="1"/>
        <pt x="550" y="0" on="1"/>
        <pt x="350" y="0" on="1"/>
        <pt x="150" y="0" on="0"/>
        <pt x="150" y="200" on="1"/>
        <pt x="150" y="1500" on="1"/>
      </contour>
    </TTGlyph>
    <TTGlyph name="glyph287" xMin="150" yMin="-700" xMax="2250" yMax="1500">
      <contour>
        <pt x="750" y="1200" on="1"/>
        <pt x="750" y="1500" on="0"/>
        <pt x="1200" y="1500" on="1"/>
        <pt x="1650" y="1500" on="0"/>
        <pt x="1650" y="1200" on="1"/>
        <pt x="1650" y="1050" on="1"/>
        <pt x="1650" y="950" on="0"/>
        <pt x="1500" y="950" on="1"/>
        <pt x="1300" y="950" on="1"/>
        <pt x="1300" y="1150" on="1"/>
        <pt x="1350" y="1150" on="1"/>
        <pt x="1350" y="1200" on="1"/>
        <pt x="1350" y="1300" on="0"/>
        <pt x="1200" y="1300" on="1"/>
        <pt x="1050" y="1300" on="0"/>
        <pt x="1050" y="1200" on="1"/>
        <pt x="1050" y="1000" on="1"/>
        <pt x="1050" y="872" on="0"/>
        <pt x="1266" y="822" on="1"/>
        <pt x="1403" y="790" on="1"/>
        <pt x="1423" y="813" on="0"/>
        <pt x="1479" y="850" on="0"/>
        <pt x="1510" y="850" on="1"/>
        <pt x="1550" y="850" on="1"/>
        <pt x="1650" y="850" on="0"/>
        <pt x="1650" y="766" on="1"/>
        <pt x="1650" y="644" on="1"/>
        <pt x="1650" y="572" on="0"/>
        <pt x="1547" y="539" on="1"/>
        <pt x="1650" y="490" on="1"/>
        <pt x="1650" y="300" on="1"/>
        <pt x="1650" y="0" on="0"/>
        <pt x="1200" y="0" on="1"/>
        <pt x="750" y="0" on="0"/>
        <pt x="750" y="300" on="1"/>
        <pt x="750" y="620" on="1"/>
        <pt x="1050" y="550" on="1"/>
        <pt x="1050" y="300" on="1"/>
        <pt x="1050" y="200" on="0"/>
        <pt x="1200" y="200" on="1"/>
        <pt x="1350" y="200" on="0"/>
        <pt x="1350" y="300" on="1"/>
        <pt x="1350" y="585" on="1"/>
        <pt x="1051" y="660" on="1"/>
        <pt x="750" y="738" on="0"/>
        <pt x="750" y="1000" on="1"/>
      </contour>
      <contour>
        <pt x="1350" y="-400" on="1"/>
        <pt x="1350" y="-300" on="0"/>
        <pt x="1300" y="-300" on="1"/>
        <pt x="1300" y="-100" on="1"/>
        <pt x="1450" y="-100" on="1"/>
        <pt x="1650" y="-100" on="0"/>
        <pt x="1650" y="-250" on="1"/>
        <pt x="1650" y="-407" on="1"/>
        <pt x="1800" y="-261" on="1"/>
        <pt x="1950" y="-407" on="1"/>
        <pt x="1950" y="1500" on="1"/>
        <pt x="2250" y="1500" on="1"/>
        <pt x="2250" y="-600" on="1"/>
        <pt x="2250" y="-700" on="0"/>
        <pt x="2103" y="-700" on="1"/>
        <pt x="1950" y="-700" on="1"/>
        <pt x="1800" y="-554" on="1"/>
        <pt x="1650" y="-700" on="1"/>
        <pt x="1497" y="-700" on="1"/>
        <pt x="1350" y="-700" on="0"/>
        <pt x="1350" y="-600" on="1"/>
      </contour>
      <contour>
        <pt x="450" y="1500" on="1"/>
        <pt x="450" y="300" on="1"/>
        <pt x="450" y="200" on="0"/>
        <pt x="550" y="200" on="1"/>
        <pt x="550" y="0" on="1"/>
        <pt x="350" y="0" on="1"/>
        <pt x="150" y="0" on="0"/>
        <pt x="150" y="200" on="1"/>
        <pt x="150" y="1500" on="1"/>
      </contour>
    </TTGlyph>
    <TTGlyph name="glyph288" xMin="150" yMin="0" xMax="1650" yMax="1500">
      <contour>
        <pt x="1050" y="1500" on="1"/>
        <pt x="1050" y="200" on="1"/>
        <pt x="1050" y="0" on="0"/>
        <pt x="850" y="0" on="1"/>
        <pt x="650" y="0" on="1"/>
        <pt x="650" y="200" on="1"/>
        <pt x="750" y="200" on="0"/>
        <pt x="750" y="300" on="1"/>
        <pt x="750" y="1500" on="1"/>
      </contour>
      <contour>
        <pt x="1350" y="850" on="1"/>
        <pt x="1350" y="1500" on="1"/>
        <pt x="1650" y="1500" on="1"/>
        <pt x="1650" y="200" on="1"/>
        <pt x="1650" y="0" on="0"/>
        <pt x="1450" y="0" on="1"/>
        <pt x="1250" y="0" on="1"/>
        <pt x="1250" y="200" on="1"/>
        <pt x="1350" y="200" on="0"/>
        <pt x="1350" y="300" on="1"/>
        <pt x="1350" y="650" on="1"/>
        <pt x="1100" y="650" on="1"/>
        <pt x="1100" y="850" on="1"/>
      </contour>
      <contour>
        <pt x="450" y="1500" on="1"/>
        <pt x="450" y="300" on="1"/>
        <pt x="450" y="200" on="0"/>
        <pt x="550" y="200" on="1"/>
        <pt x="550" y="0" on="1"/>
        <pt x="350" y="0" on="1"/>
        <pt x="150" y="0" on="0"/>
        <pt x="150" y="200" on="1"/>
        <pt x="150" y="1500" on="1"/>
      </contour>
    </TTGlyph>
    <TTGlyph name="glyph289" xMin="150" yMin="0" xMax="2250" yMax="1500">
      <contour>
        <pt x="1950" y="0" on="1"/>
        <pt x="1950" y="1150" on="1"/>
        <pt x="1950" y="1250" on="0"/>
        <pt x="1800" y="1250" on="1"/>
        <pt x="1700" y="1250" on="1"/>
        <pt x="1700" y="1500" on="1"/>
        <pt x="1800" y="1500" on="1"/>
        <pt x="2250" y="1500" on="0"/>
        <pt x="2250" y="1200" on="1"/>
        <pt x="2250" y="0" on="1"/>
      </contour>
      <contour>
        <pt x="1050" y="300" on="1"/>
        <pt x="1200" y="300" on="0"/>
        <pt x="1200" y="200" on="1"/>
        <pt x="1200" y="100" on="1"/>
        <pt x="1200" y="0" on="0"/>
        <pt x="1050" y="0" on="1"/>
        <pt x="900" y="0" on="1"/>
        <pt x="750" y="0" on="0"/>
        <pt x="750" y="100" on="1"/>
        <pt x="750" y="1400" on="1"/>
        <pt x="750" y="1500" on="0"/>
        <pt x="897" y="1500" on="1"/>
        <pt x="1050" y="1500" on="1"/>
        <pt x="1200" y="1354" on="1"/>
        <pt x="1350" y="1500" on="1"/>
        <pt x="1503" y="1500" on="1"/>
        <pt x="1650" y="1500" on="0"/>
        <pt x="1650" y="1400" on="1"/>
        <pt x="1650" y="0" on="1"/>
        <pt x="1350" y="0" on="1"/>
        <pt x="1350" y="1207" on="1"/>
        <pt x="1200" y="1061" on="1"/>
        <pt x="1050" y="1207" on="1"/>
      </contour>
      <contour>
        <pt x="450" y="1500" on="1"/>
        <pt x="450" y="300" on="1"/>
        <pt x="450" y="200" on="0"/>
        <pt x="550" y="200" on="1"/>
        <pt x="550" y="0" on="1"/>
        <pt x="350" y="0" on="1"/>
        <pt x="150" y="0" on="0"/>
        <pt x="150" y="200" on="1"/>
        <pt x="150" y="1500" on="1"/>
      </contour>
    </TTGlyph>
    <TTGlyph name="glyph290" xMin="0" yMin="0" xMax="1650" yMax="2300">
      <contour>
        <pt x="750" y="1250" on="1"/>
        <pt x="750" y="1500" on="1"/>
        <pt x="1650" y="1500" on="1"/>
        <pt x="1650" y="1250" on="1"/>
      </contour>
      <contour>
        <pt x="1350" y="0" on="1"/>
        <pt x="1350" y="800" on="1"/>
        <pt x="1350" y="900" on="0"/>
        <pt x="1200" y="900" on="1"/>
        <pt x="1050" y="900" on="0"/>
        <pt x="1050" y="800" on="1"/>
        <pt x="1050" y="0" on="1"/>
        <pt x="750" y="0" on="1"/>
        <pt x="750" y="800" on="1"/>
        <pt x="750" y="1100" on="0"/>
        <pt x="1200" y="1100" on="1"/>
        <pt x="1650" y="1100" on="0"/>
        <pt x="1650" y="800" on="1"/>
        <pt x="1650" y="0" on="1"/>
      </contour>
      <contour>
        <pt x="450" y="1500" on="1"/>
        <pt x="450" y="300" on="1"/>
        <pt x="450" y="200" on="0"/>
        <pt x="550" y="200" on="1"/>
        <pt x="550" y="0" on="1"/>
        <pt x="350" y="0" on="1"/>
        <pt x="150" y="0" on="0"/>
        <pt x="150" y="200" on="1"/>
        <pt x="150" y="1500" on="1"/>
      </contour>
      <contour>
        <pt x="0" y="1650" on="1"/>
        <pt x="0" y="1900" on="1"/>
        <pt x="150" y="1900" on="1"/>
        <pt x="150" y="2300" on="1"/>
        <pt x="450" y="2300" on="1"/>
        <pt x="450" y="1650" on="1"/>
      </contour>
    </TTGlyph>
    <TTGlyph name="glyph291" xMin="0" yMin="0" xMax="1650" yMax="2300">
      <contour>
        <pt x="1350" y="873" on="0"/>
        <pt x="1350" y="1050" on="1"/>
        <pt x="1350" y="1200" on="1"/>
        <pt x="1350" y="1300" on="0"/>
        <pt x="1200" y="1300" on="1"/>
        <pt x="1050" y="1300" on="0"/>
        <pt x="1050" y="1200" on="1"/>
        <pt x="1050" y="1100" on="1"/>
        <pt x="1100" y="1100" on="1"/>
        <pt x="1100" y="900" on="1"/>
        <pt x="900" y="900" on="1"/>
        <pt x="750" y="900" on="0"/>
        <pt x="750" y="1000" on="1"/>
        <pt x="750" y="1200" on="1"/>
        <pt x="750" y="1500" on="0"/>
        <pt x="1200" y="1500" on="1"/>
        <pt x="1650" y="1500" on="0"/>
        <pt x="1650" y="1200" on="1"/>
        <pt x="1650" y="1050" on="1"/>
        <pt x="1650" y="763" on="0"/>
        <pt x="1125" y="585" on="1"/>
        <pt x="1050" y="559" on="1"/>
        <pt x="1050" y="300" on="1"/>
        <pt x="1050" y="200" on="0"/>
        <pt x="1200" y="200" on="1"/>
        <pt x="1350" y="200" on="0"/>
        <pt x="1350" y="300" on="1"/>
        <pt x="1350" y="600" on="1"/>
        <pt x="1650" y="600" on="1"/>
        <pt x="1650" y="300" on="1"/>
        <pt x="1650" y="0" on="0"/>
        <pt x="1200" y="0" on="1"/>
        <pt x="750" y="0" on="0"/>
        <pt x="750" y="300" on="1"/>
        <pt x="750" y="669" on="1"/>
        <pt x="1050" y="771" on="1"/>
      </contour>
      <contour>
        <pt x="450" y="1500" on="1"/>
        <pt x="450" y="300" on="1"/>
        <pt x="450" y="200" on="0"/>
        <pt x="550" y="200" on="1"/>
        <pt x="550" y="0" on="1"/>
        <pt x="350" y="0" on="1"/>
        <pt x="150" y="0" on="0"/>
        <pt x="150" y="200" on="1"/>
        <pt x="150" y="1500" on="1"/>
      </contour>
      <contour>
        <pt x="0" y="1650" on="1"/>
        <pt x="0" y="1900" on="1"/>
        <pt x="150" y="1900" on="1"/>
        <pt x="150" y="2300" on="1"/>
        <pt x="450" y="2300" on="1"/>
        <pt x="450" y="1650" on="1"/>
      </contour>
    </TTGlyph>
    <TTGlyph name="glyph292" xMin="0" yMin="0" xMax="1650" yMax="2300">
      <contour>
        <pt x="750" y="1250" on="1"/>
        <pt x="750" y="1500" on="1"/>
        <pt x="1650" y="1500" on="1"/>
        <pt x="1650" y="1250" on="1"/>
      </contour>
      <contour>
        <pt x="1050" y="27" on="1"/>
        <pt x="1050" y="0" on="1"/>
        <pt x="750" y="0" on="1"/>
        <pt x="750" y="800" on="1"/>
        <pt x="750" y="1100" on="0"/>
        <pt x="1200" y="1100" on="1"/>
        <pt x="1650" y="1100" on="0"/>
        <pt x="1650" y="800" on="1"/>
        <pt x="1650" y="0" on="1"/>
        <pt x="1350" y="0" on="1"/>
        <pt x="1350" y="800" on="1"/>
        <pt x="1350" y="900" on="0"/>
        <pt x="1200" y="900" on="1"/>
        <pt x="1050" y="900" on="0"/>
        <pt x="1050" y="800" on="1"/>
        <pt x="1050" y="343" on="1"/>
        <pt x="1149" y="526" on="1"/>
        <pt x="1281" y="454" on="1"/>
      </contour>
      <contour>
        <pt x="450" y="1500" on="1"/>
        <pt x="450" y="300" on="1"/>
        <pt x="450" y="200" on="0"/>
        <pt x="550" y="200" on="1"/>
        <pt x="550" y="0" on="1"/>
        <pt x="350" y="0" on="1"/>
        <pt x="150" y="0" on="0"/>
        <pt x="150" y="200" on="1"/>
        <pt x="150" y="1500" on="1"/>
      </contour>
      <contour>
        <pt x="0" y="1650" on="1"/>
        <pt x="0" y="1900" on="1"/>
        <pt x="150" y="1900" on="1"/>
        <pt x="150" y="2300" on="1"/>
        <pt x="450" y="2300" on="1"/>
        <pt x="450" y="1650" on="1"/>
      </contour>
    </TTGlyph>
    <TTGlyph name="glyph293" xMin="0" yMin="0" xMax="2250" yMax="2300">
      <contour>
        <pt x="1050" y="300" on="1"/>
        <pt x="1050" y="200" on="0"/>
        <pt x="1200" y="200" on="1"/>
        <pt x="1350" y="200" on="0"/>
        <pt x="1350" y="300" on="1"/>
        <pt x="1350" y="1500" on="1"/>
        <pt x="1650" y="1500" on="1"/>
        <pt x="1650" y="300" on="1"/>
        <pt x="1650" y="200" on="0"/>
        <pt x="1800" y="200" on="1"/>
        <pt x="1950" y="200" on="0"/>
        <pt x="1950" y="300" on="1"/>
        <pt x="1950" y="1500" on="1"/>
        <pt x="2250" y="1500" on="1"/>
        <pt x="2250" y="300" on="1"/>
        <pt x="2250" y="0" on="0"/>
        <pt x="1800" y="0" on="1"/>
        <pt x="1610" y="0" on="0"/>
        <pt x="1500" y="54" on="1"/>
        <pt x="1390" y="0" on="0"/>
        <pt x="1200" y="0" on="1"/>
        <pt x="750" y="0" on="0"/>
        <pt x="750" y="300" on="1"/>
        <pt x="750" y="1200" on="1"/>
        <pt x="750" y="1300" on="0"/>
        <pt x="650" y="1300" on="1"/>
        <pt x="650" y="1500" on="1"/>
        <pt x="850" y="1500" on="1"/>
        <pt x="1050" y="1500" on="0"/>
        <pt x="1050" y="1300" on="1"/>
      </contour>
      <contour>
        <pt x="450" y="1500" on="1"/>
        <pt x="450" y="300" on="1"/>
        <pt x="450" y="200" on="0"/>
        <pt x="550" y="200" on="1"/>
        <pt x="550" y="0" on="1"/>
        <pt x="350" y="0" on="1"/>
        <pt x="150" y="0" on="0"/>
        <pt x="150" y="200" on="1"/>
        <pt x="150" y="1500" on="1"/>
      </contour>
      <contour>
        <pt x="0" y="1650" on="1"/>
        <pt x="0" y="1900" on="1"/>
        <pt x="150" y="1900" on="1"/>
        <pt x="150" y="2300" on="1"/>
        <pt x="450" y="2300" on="1"/>
        <pt x="450" y="1650" on="1"/>
      </contour>
    </TTGlyph>
    <TTGlyph name="glyph294" xMin="0" yMin="0" xMax="1650" yMax="2300">
      <contour>
        <pt x="1030" y="1100" on="1"/>
        <pt x="750" y="1100" on="0"/>
        <pt x="750" y="1400" on="1"/>
        <pt x="750" y="1600" on="1"/>
        <pt x="1050" y="1600" on="1"/>
        <pt x="1050" y="1400" on="1"/>
        <pt x="1050" y="1300" on="0"/>
        <pt x="1150" y="1300" on="1"/>
        <pt x="1300" y="1300" on="1"/>
        <pt x="1300" y="1500" on="0"/>
        <pt x="1475" y="1500" on="1"/>
        <pt x="1650" y="1500" on="0"/>
        <pt x="1650" y="1300" on="1"/>
        <pt x="1650" y="1248" on="0"/>
        <pt x="1591" y="1153" on="0"/>
        <pt x="1537" y="1127" on="1"/>
        <pt x="1509" y="1113" on="0"/>
        <pt x="1481" y="1106" on="1"/>
        <pt x="1650" y="1000" on="1"/>
        <pt x="1650" y="100" on="1"/>
        <pt x="1650" y="0" on="0"/>
        <pt x="1503" y="0" on="1"/>
        <pt x="1350" y="0" on="1"/>
        <pt x="1200" y="146" on="1"/>
        <pt x="1050" y="0" on="1"/>
        <pt x="897" y="0" on="1"/>
        <pt x="750" y="0" on="0"/>
        <pt x="750" y="100" on="1"/>
        <pt x="750" y="700" on="1"/>
        <pt x="750" y="800" on="0"/>
        <pt x="700" y="800" on="1"/>
        <pt x="700" y="1000" on="1"/>
        <pt x="850" y="1000" on="1"/>
        <pt x="1050" y="1000" on="0"/>
        <pt x="1050" y="850" on="1"/>
        <pt x="1050" y="293" on="1"/>
        <pt x="1200" y="439" on="1"/>
        <pt x="1350" y="293" on="1"/>
        <pt x="1350" y="1100" on="1"/>
      </contour>
      <contour>
        <pt x="450" y="1500" on="1"/>
        <pt x="450" y="300" on="1"/>
        <pt x="450" y="200" on="0"/>
        <pt x="550" y="200" on="1"/>
        <pt x="550" y="0" on="1"/>
        <pt x="350" y="0" on="1"/>
        <pt x="150" y="0" on="0"/>
        <pt x="150" y="200" on="1"/>
        <pt x="150" y="1500" on="1"/>
      </contour>
      <contour>
        <pt x="0" y="1650" on="1"/>
        <pt x="0" y="1900" on="1"/>
        <pt x="150" y="1900" on="1"/>
        <pt x="150" y="2300" on="1"/>
        <pt x="450" y="2300" on="1"/>
        <pt x="450" y="1650" on="1"/>
      </contour>
    </TTGlyph>
    <TTGlyph name="glyph295" xMin="0" yMin="0" xMax="1650" yMax="2300">
      <contour>
        <pt x="1650" y="300" on="1"/>
        <pt x="1650" y="0" on="0"/>
        <pt x="1200" y="0" on="1"/>
        <pt x="750" y="0" on="0"/>
        <pt x="750" y="300" on="1"/>
        <pt x="750" y="850" on="1"/>
        <pt x="750" y="930" on="0"/>
        <pt x="850" y="980" on="1"/>
        <pt x="700" y="1047" on="1"/>
        <pt x="700" y="1500" on="1"/>
        <pt x="1650" y="1500" on="1"/>
        <pt x="1650" y="1250" on="1"/>
        <pt x="920" y="1250" on="1"/>
        <pt x="920" y="1183" on="1"/>
        <pt x="1100" y="1100" on="1"/>
        <pt x="1100" y="900" on="1"/>
        <pt x="1050" y="900" on="0"/>
        <pt x="1050" y="810" on="1"/>
        <pt x="1050" y="300" on="1"/>
        <pt x="1050" y="200" on="0"/>
        <pt x="1200" y="200" on="1"/>
        <pt x="1350" y="200" on="0"/>
        <pt x="1350" y="300" on="1"/>
        <pt x="1350" y="850" on="1"/>
        <pt x="1200" y="850" on="0"/>
        <pt x="1200" y="950" on="1"/>
        <pt x="1200" y="1000" on="1"/>
        <pt x="1200" y="1100" on="0"/>
        <pt x="1350" y="1100" on="1"/>
        <pt x="1500" y="1100" on="1"/>
        <pt x="1650" y="1100" on="0"/>
        <pt x="1650" y="1000" on="1"/>
      </contour>
      <contour>
        <pt x="450" y="1500" on="1"/>
        <pt x="450" y="300" on="1"/>
        <pt x="450" y="200" on="0"/>
        <pt x="550" y="200" on="1"/>
        <pt x="550" y="0" on="1"/>
        <pt x="350" y="0" on="1"/>
        <pt x="150" y="0" on="0"/>
        <pt x="150" y="200" on="1"/>
        <pt x="150" y="1500" on="1"/>
      </contour>
      <contour>
        <pt x="0" y="1650" on="1"/>
        <pt x="0" y="1900" on="1"/>
        <pt x="150" y="1900" on="1"/>
        <pt x="150" y="2300" on="1"/>
        <pt x="450" y="2300" on="1"/>
        <pt x="450" y="1650" on="1"/>
      </contour>
    </TTGlyph>
    <TTGlyph name="glyph296" xMin="0" yMin="0" xMax="1650" yMax="2300">
      <contour>
        <pt x="1650" y="200" on="1"/>
        <pt x="1650" y="0" on="0"/>
        <pt x="1500" y="0" on="1"/>
        <pt x="1350" y="0" on="1"/>
        <pt x="1350" y="97" on="0"/>
        <pt x="1196" y="200" on="0"/>
        <pt x="1100" y="200" on="1"/>
        <pt x="1050" y="200" on="1"/>
        <pt x="1050" y="0" on="0"/>
        <pt x="900" y="0" on="1"/>
        <pt x="700" y="0" on="0"/>
        <pt x="700" y="200" on="1"/>
        <pt x="700" y="252" on="0"/>
        <pt x="754" y="348" on="0"/>
        <pt x="802" y="374" on="1"/>
        <pt x="841" y="396" on="0"/>
        <pt x="883" y="399" on="1"/>
        <pt x="750" y="450" on="1"/>
        <pt x="750" y="850" on="1"/>
        <pt x="750" y="930" on="0"/>
        <pt x="850" y="980" on="1"/>
        <pt x="700" y="1047" on="1"/>
        <pt x="700" y="1500" on="1"/>
        <pt x="1650" y="1500" on="1"/>
        <pt x="1650" y="1250" on="1"/>
        <pt x="920" y="1250" on="1"/>
        <pt x="920" y="1183" on="1"/>
        <pt x="1100" y="1100" on="1"/>
        <pt x="1100" y="900" on="1"/>
        <pt x="1050" y="900" on="0"/>
        <pt x="1050" y="810" on="1"/>
        <pt x="1050" y="400" on="1"/>
        <pt x="1100" y="400" on="1"/>
        <pt x="1247" y="400" on="0"/>
        <pt x="1350" y="341" on="1"/>
        <pt x="1350" y="850" on="1"/>
        <pt x="1200" y="850" on="0"/>
        <pt x="1200" y="950" on="1"/>
        <pt x="1200" y="1000" on="1"/>
        <pt x="1200" y="1100" on="0"/>
        <pt x="1350" y="1100" on="1"/>
        <pt x="1500" y="1100" on="1"/>
        <pt x="1650" y="1100" on="0"/>
        <pt x="1650" y="1000" on="1"/>
      </contour>
      <contour>
        <pt x="450" y="1500" on="1"/>
        <pt x="450" y="300" on="1"/>
        <pt x="450" y="200" on="0"/>
        <pt x="550" y="200" on="1"/>
        <pt x="550" y="0" on="1"/>
        <pt x="350" y="0" on="1"/>
        <pt x="150" y="0" on="0"/>
        <pt x="150" y="200" on="1"/>
        <pt x="150" y="1500" on="1"/>
      </contour>
      <contour>
        <pt x="0" y="1650" on="1"/>
        <pt x="0" y="1900" on="1"/>
        <pt x="150" y="1900" on="1"/>
        <pt x="150" y="2300" on="1"/>
        <pt x="450" y="2300" on="1"/>
        <pt x="450" y="1650" on="1"/>
      </contour>
    </TTGlyph>
    <TTGlyph name="glyph297" xMin="0" yMin="0" xMax="1650" yMax="2300">
      <contour>
        <pt x="1050" y="293" on="1"/>
        <pt x="1200" y="439" on="1"/>
        <pt x="1350" y="293" on="1"/>
        <pt x="1350" y="1100" on="1"/>
        <pt x="1650" y="1100" on="1"/>
        <pt x="1650" y="100" on="1"/>
        <pt x="1650" y="0" on="0"/>
        <pt x="1503" y="0" on="1"/>
        <pt x="1350" y="0" on="1"/>
        <pt x="1200" y="146" on="1"/>
        <pt x="1050" y="0" on="1"/>
        <pt x="897" y="0" on="1"/>
        <pt x="750" y="0" on="0"/>
        <pt x="750" y="100" on="1"/>
        <pt x="750" y="850" on="1"/>
        <pt x="750" y="930" on="0"/>
        <pt x="850" y="980" on="1"/>
        <pt x="700" y="1037" on="1"/>
        <pt x="700" y="1500" on="1"/>
        <pt x="1350" y="1500" on="1"/>
        <pt x="1350" y="1600" on="1"/>
        <pt x="1650" y="1600" on="1"/>
        <pt x="1650" y="1250" on="1"/>
        <pt x="920" y="1250" on="1"/>
        <pt x="920" y="1183" on="1"/>
        <pt x="1150" y="1100" on="1"/>
        <pt x="1150" y="900" on="1"/>
        <pt x="1050" y="900" on="0"/>
        <pt x="1050" y="810" on="1"/>
      </contour>
      <contour>
        <pt x="450" y="1500" on="1"/>
        <pt x="450" y="300" on="1"/>
        <pt x="450" y="200" on="0"/>
        <pt x="550" y="200" on="1"/>
        <pt x="550" y="0" on="1"/>
        <pt x="350" y="0" on="1"/>
        <pt x="150" y="0" on="0"/>
        <pt x="150" y="200" on="1"/>
        <pt x="150" y="1500" on="1"/>
      </contour>
      <contour>
        <pt x="0" y="1650" on="1"/>
        <pt x="0" y="1900" on="1"/>
        <pt x="150" y="1900" on="1"/>
        <pt x="150" y="2300" on="1"/>
        <pt x="450" y="2300" on="1"/>
        <pt x="450" y="1650" on="1"/>
      </contour>
    </TTGlyph>
    <TTGlyph name="glyph298" xMin="0" yMin="0" xMax="2850" yMax="2300">
      <contour>
        <pt x="2250" y="300" on="1"/>
        <pt x="2250" y="200" on="0"/>
        <pt x="2400" y="200" on="1"/>
        <pt x="2550" y="200" on="0"/>
        <pt x="2550" y="300" on="1"/>
        <pt x="2550" y="1500" on="1"/>
        <pt x="2850" y="1500" on="1"/>
        <pt x="2850" y="300" on="1"/>
        <pt x="2850" y="0" on="0"/>
        <pt x="2400" y="0" on="1"/>
        <pt x="2210" y="0" on="0"/>
        <pt x="2100" y="54" on="1"/>
        <pt x="1990" y="0" on="0"/>
        <pt x="1800" y="0" on="1"/>
        <pt x="1350" y="0" on="0"/>
        <pt x="1350" y="300" on="1"/>
        <pt x="1350" y="1200" on="1"/>
        <pt x="1350" y="1300" on="0"/>
        <pt x="1200" y="1300" on="1"/>
        <pt x="1050" y="1300" on="0"/>
        <pt x="1050" y="1200" on="1"/>
        <pt x="1050" y="300" on="1"/>
        <pt x="1050" y="200" on="0"/>
        <pt x="1200" y="200" on="1"/>
        <pt x="1200" y="0" on="1"/>
        <pt x="975" y="0" on="1"/>
        <pt x="750" y="0" on="0"/>
        <pt x="750" y="300" on="1"/>
        <pt x="750" y="1200" on="1"/>
        <pt x="750" y="1500" on="0"/>
        <pt x="1200" y="1500" on="1"/>
        <pt x="1650" y="1500" on="0"/>
        <pt x="1650" y="1200" on="1"/>
        <pt x="1650" y="300" on="1"/>
        <pt x="1650" y="200" on="0"/>
        <pt x="1800" y="200" on="1"/>
        <pt x="1950" y="200" on="0"/>
        <pt x="1950" y="300" on="1"/>
        <pt x="1950" y="1500" on="1"/>
        <pt x="2250" y="1500" on="1"/>
      </contour>
      <contour>
        <pt x="450" y="1500" on="1"/>
        <pt x="450" y="300" on="1"/>
        <pt x="450" y="200" on="0"/>
        <pt x="550" y="200" on="1"/>
        <pt x="550" y="0" on="1"/>
        <pt x="350" y="0" on="1"/>
        <pt x="150" y="0" on="0"/>
        <pt x="150" y="200" on="1"/>
        <pt x="150" y="1500" on="1"/>
      </contour>
      <contour>
        <pt x="0" y="1650" on="1"/>
        <pt x="0" y="1900" on="1"/>
        <pt x="150" y="1900" on="1"/>
        <pt x="150" y="2300" on="1"/>
        <pt x="450" y="2300" on="1"/>
        <pt x="450" y="1650" on="1"/>
      </contour>
    </TTGlyph>
    <TTGlyph name="glyph299" xMin="0" yMin="-700" xMax="2250" yMax="2300">
      <contour>
        <pt x="750" y="-200" on="1"/>
        <pt x="1000" y="-200" on="1"/>
        <pt x="1348" y="-200" on="0"/>
        <pt x="1704" y="-500" on="1"/>
        <pt x="1950" y="-500" on="1"/>
        <pt x="1950" y="-350" on="1"/>
        <pt x="1800" y="-350" on="1"/>
        <pt x="1800" y="-100" on="1"/>
        <pt x="2050" y="-100" on="1"/>
        <pt x="2250" y="-100" on="0"/>
        <pt x="2250" y="-300" on="1"/>
        <pt x="2250" y="-500" on="1"/>
        <pt x="2250" y="-700" on="0"/>
        <pt x="2050" y="-700" on="1"/>
        <pt x="1562" y="-700" on="1"/>
        <pt x="1247" y="-450" on="0"/>
        <pt x="1000" y="-450" on="1"/>
        <pt x="750" y="-450" on="1"/>
      </contour>
      <contour>
        <pt x="1950" y="0" on="1"/>
        <pt x="1950" y="1150" on="1"/>
        <pt x="1950" y="1250" on="0"/>
        <pt x="1800" y="1250" on="1"/>
        <pt x="1700" y="1250" on="1"/>
        <pt x="1700" y="1500" on="1"/>
        <pt x="1800" y="1500" on="1"/>
        <pt x="2250" y="1500" on="0"/>
        <pt x="2250" y="1200" on="1"/>
        <pt x="2250" y="0" on="1"/>
      </contour>
      <contour>
        <pt x="1050" y="300" on="1"/>
        <pt x="1200" y="300" on="0"/>
        <pt x="1200" y="200" on="1"/>
        <pt x="1200" y="100" on="1"/>
        <pt x="1200" y="0" on="0"/>
        <pt x="1050" y="0" on="1"/>
        <pt x="900" y="0" on="1"/>
        <pt x="750" y="0" on="0"/>
        <pt x="750" y="100" on="1"/>
        <pt x="750" y="1400" on="1"/>
        <pt x="750" y="1500" on="0"/>
        <pt x="897" y="1500" on="1"/>
        <pt x="1050" y="1500" on="1"/>
        <pt x="1200" y="1354" on="1"/>
        <pt x="1350" y="1500" on="1"/>
        <pt x="1503" y="1500" on="1"/>
        <pt x="1650" y="1500" on="0"/>
        <pt x="1650" y="1400" on="1"/>
        <pt x="1650" y="0" on="1"/>
        <pt x="1350" y="0" on="1"/>
        <pt x="1350" y="1207" on="1"/>
        <pt x="1200" y="1061" on="1"/>
        <pt x="1050" y="1207" on="1"/>
      </contour>
      <contour>
        <pt x="450" y="1500" on="1"/>
        <pt x="450" y="300" on="1"/>
        <pt x="450" y="200" on="0"/>
        <pt x="550" y="200" on="1"/>
        <pt x="550" y="0" on="1"/>
        <pt x="350" y="0" on="1"/>
        <pt x="150" y="0" on="0"/>
        <pt x="150" y="200" on="1"/>
        <pt x="150" y="1500" on="1"/>
      </contour>
      <contour>
        <pt x="0" y="1650" on="1"/>
        <pt x="0" y="1900" on="1"/>
        <pt x="150" y="1900" on="1"/>
        <pt x="150" y="2300" on="1"/>
        <pt x="450" y="2300" on="1"/>
        <pt x="450" y="1650" on="1"/>
      </contour>
    </TTGlyph>
    <TTGlyph name="glyph300" xMin="0" yMin="0" xMax="1650" yMax="2300">
      <contour>
        <pt x="750" y="1500" on="1"/>
        <pt x="1100" y="1500" on="1"/>
        <pt x="1100" y="1400" on="1"/>
        <pt x="1050" y="1400" on="1"/>
        <pt x="1050" y="1350" on="1"/>
        <pt x="1350" y="1350" on="1"/>
        <pt x="1350" y="1600" on="1"/>
        <pt x="1650" y="1600" on="1"/>
        <pt x="1650" y="1300" on="1"/>
        <pt x="1650" y="1150" on="0"/>
        <pt x="1500" y="1150" on="1"/>
        <pt x="750" y="1150" on="1"/>
      </contour>
      <contour>
        <pt x="1050" y="1050" on="1"/>
        <pt x="1050" y="293" on="1"/>
        <pt x="1200" y="439" on="1"/>
        <pt x="1350" y="293" on="1"/>
        <pt x="1350" y="1050" on="1"/>
        <pt x="1650" y="1050" on="1"/>
        <pt x="1650" y="100" on="1"/>
        <pt x="1650" y="0" on="0"/>
        <pt x="1503" y="0" on="1"/>
        <pt x="1350" y="0" on="1"/>
        <pt x="1200" y="146" on="1"/>
        <pt x="1050" y="0" on="1"/>
        <pt x="897" y="0" on="1"/>
        <pt x="750" y="0" on="0"/>
        <pt x="750" y="100" on="1"/>
        <pt x="750" y="1050" on="1"/>
      </contour>
      <contour>
        <pt x="450" y="1500" on="1"/>
        <pt x="450" y="300" on="1"/>
        <pt x="450" y="200" on="0"/>
        <pt x="550" y="200" on="1"/>
        <pt x="550" y="0" on="1"/>
        <pt x="350" y="0" on="1"/>
        <pt x="150" y="0" on="0"/>
        <pt x="150" y="200" on="1"/>
        <pt x="150" y="1500" on="1"/>
      </contour>
      <contour>
        <pt x="0" y="1650" on="1"/>
        <pt x="0" y="1900" on="1"/>
        <pt x="150" y="1900" on="1"/>
        <pt x="150" y="2300" on="1"/>
        <pt x="450" y="2300" on="1"/>
        <pt x="450" y="1650" on="1"/>
      </contour>
    </TTGlyph>
    <TTGlyph name="glyph301" xMin="0" yMin="0" xMax="1700" yMax="2300">
      <contour>
        <pt x="1650" y="300" on="1"/>
        <pt x="1650" y="0" on="0"/>
        <pt x="1200" y="0" on="1"/>
        <pt x="750" y="0" on="0"/>
        <pt x="750" y="300" on="1"/>
        <pt x="750" y="1200" on="1"/>
        <pt x="750" y="1300" on="0"/>
        <pt x="700" y="1300" on="1"/>
        <pt x="700" y="1500" on="1"/>
        <pt x="850" y="1500" on="1"/>
        <pt x="1050" y="1500" on="0"/>
        <pt x="1050" y="1350" on="1"/>
        <pt x="1050" y="300" on="1"/>
        <pt x="1050" y="200" on="0"/>
        <pt x="1200" y="200" on="1"/>
        <pt x="1350" y="200" on="0"/>
        <pt x="1350" y="300" on="1"/>
        <pt x="1350" y="850" on="1"/>
        <pt x="1350" y="930" on="0"/>
        <pt x="1450" y="980" on="1"/>
        <pt x="1300" y="1037" on="1"/>
        <pt x="1300" y="1500" on="1"/>
        <pt x="1500" y="1500" on="1"/>
        <pt x="1500" y="1600" on="1"/>
        <pt x="1700" y="1600" on="1"/>
        <pt x="1700" y="1250" on="1"/>
        <pt x="1520" y="1250" on="1"/>
        <pt x="1520" y="1183" on="1"/>
        <pt x="1700" y="1100" on="1"/>
        <pt x="1700" y="900" on="1"/>
        <pt x="1650" y="900" on="0"/>
        <pt x="1650" y="810" on="1"/>
      </contour>
      <contour>
        <pt x="450" y="1500" on="1"/>
        <pt x="450" y="300" on="1"/>
        <pt x="450" y="200" on="0"/>
        <pt x="550" y="200" on="1"/>
        <pt x="550" y="0" on="1"/>
        <pt x="350" y="0" on="1"/>
        <pt x="150" y="0" on="0"/>
        <pt x="150" y="200" on="1"/>
        <pt x="150" y="1500" on="1"/>
      </contour>
      <contour>
        <pt x="0" y="1650" on="1"/>
        <pt x="0" y="1900" on="1"/>
        <pt x="150" y="1900" on="1"/>
        <pt x="150" y="2300" on="1"/>
        <pt x="450" y="2300" on="1"/>
        <pt x="450" y="1650" on="1"/>
      </contour>
    </TTGlyph>
    <TTGlyph name="glyph302" xMin="0" yMin="-50" xMax="1650" yMax="2300">
      <contour>
        <pt x="1650" y="600" on="1"/>
        <pt x="1650" y="-50" on="1"/>
        <pt x="1350" y="-50" on="1"/>
        <pt x="1350" y="44" on="1"/>
        <pt x="1265" y="0" on="0"/>
        <pt x="1150" y="0" on="1"/>
        <pt x="1000" y="0" on="1"/>
        <pt x="750" y="0" on="0"/>
        <pt x="750" y="300" on="1"/>
        <pt x="750" y="669" on="1"/>
        <pt x="1050" y="771" on="1"/>
        <pt x="1350" y="873" on="0"/>
        <pt x="1350" y="1050" on="1"/>
        <pt x="1350" y="1207" on="1"/>
        <pt x="1200" y="1061" on="1"/>
        <pt x="1050" y="1207" on="1"/>
        <pt x="1050" y="1100" on="1"/>
        <pt x="1100" y="1100" on="1"/>
        <pt x="1100" y="900" on="1"/>
        <pt x="900" y="900" on="1"/>
        <pt x="750" y="900" on="0"/>
        <pt x="750" y="1000" on="1"/>
        <pt x="750" y="1400" on="1"/>
        <pt x="750" y="1500" on="0"/>
        <pt x="897" y="1500" on="1"/>
        <pt x="1050" y="1500" on="1"/>
        <pt x="1200" y="1354" on="1"/>
        <pt x="1350" y="1500" on="1"/>
        <pt x="1503" y="1500" on="1"/>
        <pt x="1650" y="1500" on="0"/>
        <pt x="1650" y="1400" on="1"/>
        <pt x="1650" y="1050" on="1"/>
        <pt x="1650" y="763" on="0"/>
        <pt x="1125" y="585" on="1"/>
        <pt x="1050" y="559" on="1"/>
        <pt x="1050" y="300" on="1"/>
        <pt x="1050" y="200" on="0"/>
        <pt x="1150" y="200" on="1"/>
        <pt x="1250" y="200" on="0"/>
        <pt x="1350" y="300" on="1"/>
        <pt x="1350" y="600" on="1"/>
      </contour>
      <contour>
        <pt x="450" y="1500" on="1"/>
        <pt x="450" y="300" on="1"/>
        <pt x="450" y="200" on="0"/>
        <pt x="550" y="200" on="1"/>
        <pt x="550" y="0" on="1"/>
        <pt x="350" y="0" on="1"/>
        <pt x="150" y="0" on="0"/>
        <pt x="150" y="200" on="1"/>
        <pt x="150" y="1500" on="1"/>
      </contour>
      <contour>
        <pt x="0" y="1650" on="1"/>
        <pt x="0" y="1900" on="1"/>
        <pt x="150" y="1900" on="1"/>
        <pt x="150" y="2300" on="1"/>
        <pt x="450" y="2300" on="1"/>
        <pt x="450" y="1650" on="1"/>
      </contour>
    </TTGlyph>
    <TTGlyph name="glyph303" xMin="0" yMin="0" xMax="2250" yMax="2300">
      <contour>
        <pt x="1650" y="400" on="1"/>
        <pt x="1700" y="400" on="1"/>
        <pt x="1847" y="400" on="0"/>
        <pt x="1950" y="341" on="1"/>
        <pt x="1950" y="1500" on="1"/>
        <pt x="2250" y="1500" on="1"/>
        <pt x="2250" y="200" on="1"/>
        <pt x="2250" y="0" on="0"/>
        <pt x="2100" y="0" on="1"/>
        <pt x="1950" y="0" on="1"/>
        <pt x="1950" y="97" on="0"/>
        <pt x="1796" y="200" on="0"/>
        <pt x="1700" y="200" on="1"/>
        <pt x="1650" y="200" on="1"/>
        <pt x="1650" y="0" on="0"/>
        <pt x="1500" y="0" on="1"/>
        <pt x="1300" y="0" on="0"/>
        <pt x="1300" y="200" on="1"/>
        <pt x="1300" y="252" on="0"/>
        <pt x="1354" y="348" on="0"/>
        <pt x="1402" y="374" on="1"/>
        <pt x="1441" y="396" on="0"/>
        <pt x="1483" y="399" on="1"/>
        <pt x="1350" y="450" on="1"/>
        <pt x="1350" y="1207" on="1"/>
        <pt x="1200" y="1061" on="1"/>
        <pt x="1050" y="1207" on="1"/>
        <pt x="1050" y="300" on="1"/>
        <pt x="1200" y="300" on="0"/>
        <pt x="1200" y="200" on="1"/>
        <pt x="1200" y="100" on="1"/>
        <pt x="1200" y="0" on="0"/>
        <pt x="1050" y="0" on="1"/>
        <pt x="900" y="0" on="1"/>
        <pt x="750" y="0" on="0"/>
        <pt x="750" y="100" on="1"/>
        <pt x="750" y="1400" on="1"/>
        <pt x="750" y="1500" on="0"/>
        <pt x="897" y="1500" on="1"/>
        <pt x="1050" y="1500" on="1"/>
        <pt x="1200" y="1354" on="1"/>
        <pt x="1350" y="1500" on="1"/>
        <pt x="1503" y="1500" on="1"/>
        <pt x="1650" y="1500" on="0"/>
        <pt x="1650" y="1400" on="1"/>
      </contour>
      <contour>
        <pt x="450" y="1500" on="1"/>
        <pt x="450" y="300" on="1"/>
        <pt x="450" y="200" on="0"/>
        <pt x="550" y="200" on="1"/>
        <pt x="550" y="0" on="1"/>
        <pt x="350" y="0" on="1"/>
        <pt x="150" y="0" on="0"/>
        <pt x="150" y="200" on="1"/>
        <pt x="150" y="1500" on="1"/>
      </contour>
      <contour>
        <pt x="0" y="1650" on="1"/>
        <pt x="0" y="1900" on="1"/>
        <pt x="150" y="1900" on="1"/>
        <pt x="150" y="2300" on="1"/>
        <pt x="450" y="2300" on="1"/>
        <pt x="450" y="1650" on="1"/>
      </contour>
    </TTGlyph>
    <TTGlyph name="glyph304" xMin="0" yMin="0" xMax="2850" yMax="2300">
      <contour>
        <pt x="1350" y="1200" on="1"/>
        <pt x="1350" y="1300" on="0"/>
        <pt x="1200" y="1300" on="1"/>
        <pt x="1050" y="1300" on="0"/>
        <pt x="1050" y="1200" on="1"/>
        <pt x="1050" y="0" on="1"/>
        <pt x="750" y="0" on="1"/>
        <pt x="750" y="1200" on="1"/>
        <pt x="750" y="1500" on="0"/>
        <pt x="1200" y="1500" on="1"/>
        <pt x="1650" y="1500" on="0"/>
        <pt x="1650" y="1200" on="1"/>
        <pt x="1650" y="293" on="1"/>
        <pt x="1800" y="439" on="1"/>
        <pt x="1950" y="293" on="1"/>
        <pt x="1950" y="1200" on="1"/>
        <pt x="1950" y="1500" on="0"/>
        <pt x="2400" y="1500" on="1"/>
        <pt x="2850" y="1500" on="0"/>
        <pt x="2850" y="1200" on="1"/>
        <pt x="2850" y="0" on="1"/>
        <pt x="2550" y="0" on="1"/>
        <pt x="2550" y="1200" on="1"/>
        <pt x="2550" y="1300" on="0"/>
        <pt x="2400" y="1300" on="1"/>
        <pt x="2250" y="1300" on="0"/>
        <pt x="2250" y="1200" on="1"/>
        <pt x="2250" y="100" on="1"/>
        <pt x="2250" y="0" on="0"/>
        <pt x="2103" y="0" on="1"/>
        <pt x="1950" y="0" on="1"/>
        <pt x="1800" y="146" on="1"/>
        <pt x="1650" y="0" on="1"/>
        <pt x="1497" y="0" on="1"/>
        <pt x="1350" y="0" on="0"/>
        <pt x="1350" y="100" on="1"/>
      </contour>
      <contour>
        <pt x="450" y="1500" on="1"/>
        <pt x="450" y="300" on="1"/>
        <pt x="450" y="200" on="0"/>
        <pt x="550" y="200" on="1"/>
        <pt x="550" y="0" on="1"/>
        <pt x="350" y="0" on="1"/>
        <pt x="150" y="0" on="0"/>
        <pt x="150" y="200" on="1"/>
        <pt x="150" y="1500" on="1"/>
      </contour>
      <contour>
        <pt x="0" y="1650" on="1"/>
        <pt x="0" y="1900" on="1"/>
        <pt x="150" y="1900" on="1"/>
        <pt x="150" y="2300" on="1"/>
        <pt x="450" y="2300" on="1"/>
        <pt x="450" y="1650" on="1"/>
      </contour>
    </TTGlyph>
    <TTGlyph name="glyph305" xMin="0" yMin="0" xMax="1650" yMax="2300">
      <contour>
        <pt x="750" y="1250" on="1"/>
        <pt x="750" y="1500" on="1"/>
        <pt x="1650" y="1500" on="1"/>
        <pt x="1650" y="1250" on="1"/>
      </contour>
      <contour>
        <pt x="750" y="800" on="1"/>
        <pt x="750" y="1100" on="0"/>
        <pt x="1200" y="1100" on="1"/>
        <pt x="1650" y="1100" on="0"/>
        <pt x="1650" y="800" on="1"/>
        <pt x="1650" y="0" on="1"/>
        <pt x="1350" y="0" on="1"/>
        <pt x="1350" y="800" on="1"/>
        <pt x="1350" y="900" on="0"/>
        <pt x="1200" y="900" on="1"/>
        <pt x="1050" y="900" on="0"/>
        <pt x="1050" y="800" on="1"/>
        <pt x="1050" y="300" on="1"/>
        <pt x="1200" y="300" on="0"/>
        <pt x="1200" y="200" on="1"/>
        <pt x="1200" y="100" on="1"/>
        <pt x="1200" y="0" on="0"/>
        <pt x="1050" y="0" on="1"/>
        <pt x="900" y="0" on="1"/>
        <pt x="750" y="0" on="0"/>
        <pt x="750" y="100" on="1"/>
      </contour>
      <contour>
        <pt x="450" y="1500" on="1"/>
        <pt x="450" y="300" on="1"/>
        <pt x="450" y="200" on="0"/>
        <pt x="550" y="200" on="1"/>
        <pt x="550" y="0" on="1"/>
        <pt x="350" y="0" on="1"/>
        <pt x="150" y="0" on="0"/>
        <pt x="150" y="200" on="1"/>
        <pt x="150" y="1500" on="1"/>
      </contour>
      <contour>
        <pt x="0" y="1650" on="1"/>
        <pt x="0" y="1900" on="1"/>
        <pt x="150" y="1900" on="1"/>
        <pt x="150" y="2300" on="1"/>
        <pt x="450" y="2300" on="1"/>
        <pt x="450" y="1650" on="1"/>
      </contour>
    </TTGlyph>
</ttFont>
